<mxfile host="app.diagrams.net" agent="Mozilla/5.0 (Windows NT 10.0; Win64; x64) AppleWebKit/537.36 (KHTML, like Gecko) Chrome/129.0.0.0 Safari/537.36" version="24.7.16">
  <diagram name="Page-1" id="PrAhHyFqpY0iZm9ffoHx">
    <mxGraphModel dx="1794" dy="1474" grid="1" gridSize="10" guides="1" tooltips="1" connect="1" arrows="1" fold="1" page="1" pageScale="1" pageWidth="850" pageHeight="1100" math="0" shadow="0">
      <root>
        <mxCell id="0" />
        <mxCell id="1" parent="0" />
        <mxCell id="_AcPWI5R-T2uOKAbNlTF-10" style="edgeStyle=orthogonalEdgeStyle;rounded=0;orthogonalLoop=1;jettySize=auto;html=1;exitX=0.75;exitY=1;exitDx=0;exitDy=0;entryX=0.75;entryY=0;entryDx=0;entryDy=0;" parent="1" source="_AcPWI5R-T2uOKAbNlTF-1" target="_AcPWI5R-T2uOKAbNlTF-3" edge="1">
          <mxGeometry relative="1" as="geometry" />
        </mxCell>
        <mxCell id="_AcPWI5R-T2uOKAbNlTF-11" value="Dout&lt;div&gt;[127:0]&lt;/div&gt;" style="edgeLabel;html=1;align=center;verticalAlign=middle;resizable=0;points=[];" parent="_AcPWI5R-T2uOKAbNlTF-10" vertex="1" connectable="0">
          <mxGeometry x="-0.0552" relative="1" as="geometry">
            <mxPoint as="offset" />
          </mxGeometry>
        </mxCell>
        <mxCell id="_AcPWI5R-T2uOKAbNlTF-1" value="I-Cache" style="whiteSpace=wrap;html=1;" parent="1" vertex="1">
          <mxGeometry x="100" y="140" width="130" height="130" as="geometry" />
        </mxCell>
        <mxCell id="_AcPWI5R-T2uOKAbNlTF-6" style="edgeStyle=orthogonalEdgeStyle;rounded=0;orthogonalLoop=1;jettySize=auto;html=1;entryX=0.25;entryY=1;entryDx=0;entryDy=0;" parent="1" source="_AcPWI5R-T2uOKAbNlTF-3" target="_AcPWI5R-T2uOKAbNlTF-1" edge="1">
          <mxGeometry relative="1" as="geometry" />
        </mxCell>
        <mxCell id="_AcPWI5R-T2uOKAbNlTF-7" value="PC_en" style="edgeLabel;html=1;align=center;verticalAlign=middle;resizable=0;points=[];" parent="_AcPWI5R-T2uOKAbNlTF-6" vertex="1" connectable="0">
          <mxGeometry x="0.0721" y="-1" relative="1" as="geometry">
            <mxPoint as="offset" />
          </mxGeometry>
        </mxCell>
        <mxCell id="_AcPWI5R-T2uOKAbNlTF-8" style="edgeStyle=orthogonalEdgeStyle;rounded=0;orthogonalLoop=1;jettySize=auto;html=1;entryX=0.5;entryY=1;entryDx=0;entryDy=0;exitX=0.566;exitY=0.015;exitDx=0;exitDy=0;exitPerimeter=0;" parent="1" source="_AcPWI5R-T2uOKAbNlTF-3" target="_AcPWI5R-T2uOKAbNlTF-1" edge="1">
          <mxGeometry relative="1" as="geometry">
            <Array as="points">
              <mxPoint x="179" y="290" />
              <mxPoint x="165" y="290" />
            </Array>
          </mxGeometry>
        </mxCell>
        <mxCell id="_AcPWI5R-T2uOKAbNlTF-9" value="Abort" style="edgeLabel;html=1;align=center;verticalAlign=middle;resizable=0;points=[];" parent="_AcPWI5R-T2uOKAbNlTF-8" vertex="1" connectable="0">
          <mxGeometry x="-0.299" relative="1" as="geometry">
            <mxPoint x="2" y="15" as="offset" />
          </mxGeometry>
        </mxCell>
        <mxCell id="oB-aT5vTAcFPeE-sXGdO-3" value="" style="edgeStyle=orthogonalEdgeStyle;rounded=0;orthogonalLoop=1;jettySize=auto;html=1;fontSize=12;startSize=8;endSize=8;startArrow=none;startFill=0;" edge="1" parent="1" source="_AcPWI5R-T2uOKAbNlTF-3" target="cbFBZiRL0tx0ivI146Lf-1">
          <mxGeometry relative="1" as="geometry">
            <Array as="points">
              <mxPoint x="80" y="490" />
              <mxPoint x="80" y="490" />
            </Array>
          </mxGeometry>
        </mxCell>
        <mxCell id="oB-aT5vTAcFPeE-sXGdO-8" value="i_fetch_instruction[31:0]" style="edgeLabel;html=1;align=center;verticalAlign=middle;resizable=0;points=[];fontSize=12;" vertex="1" connectable="0" parent="oB-aT5vTAcFPeE-sXGdO-3">
          <mxGeometry x="-0.419" y="1" relative="1" as="geometry">
            <mxPoint x="-1" y="1" as="offset" />
          </mxGeometry>
        </mxCell>
        <mxCell id="oB-aT5vTAcFPeE-sXGdO-6" style="edgeStyle=orthogonalEdgeStyle;rounded=0;orthogonalLoop=1;jettySize=auto;html=1;entryX=0.25;entryY=0;entryDx=0;entryDy=0;fontSize=12;startSize=8;endSize=8;exitX=0;exitY=0.75;exitDx=0;exitDy=0;" edge="1" parent="1" source="_AcPWI5R-T2uOKAbNlTF-3" target="cbFBZiRL0tx0ivI146Lf-1">
          <mxGeometry relative="1" as="geometry" />
        </mxCell>
        <mxCell id="oB-aT5vTAcFPeE-sXGdO-7" value="i_fetch_pc_plus_4 [31:0]" style="edgeLabel;html=1;align=center;verticalAlign=middle;resizable=0;points=[];fontSize=12;" vertex="1" connectable="0" parent="oB-aT5vTAcFPeE-sXGdO-6">
          <mxGeometry x="0.1761" y="-3" relative="1" as="geometry">
            <mxPoint x="-36" y="15" as="offset" />
          </mxGeometry>
        </mxCell>
        <mxCell id="_AcPWI5R-T2uOKAbNlTF-3" value="IFQ" style="whiteSpace=wrap;html=1;shadow=0;" parent="1" vertex="1">
          <mxGeometry x="60" y="320" width="210" height="60" as="geometry" />
        </mxCell>
        <mxCell id="_AcPWI5R-T2uOKAbNlTF-4" style="edgeStyle=orthogonalEdgeStyle;rounded=0;orthogonalLoop=1;jettySize=auto;html=1;entryX=0.125;entryY=0.984;entryDx=0;entryDy=0;entryPerimeter=0;exitX=0.09;exitY=-0.011;exitDx=0;exitDy=0;exitPerimeter=0;" parent="1" source="_AcPWI5R-T2uOKAbNlTF-3" target="_AcPWI5R-T2uOKAbNlTF-1" edge="1">
          <mxGeometry relative="1" as="geometry" />
        </mxCell>
        <mxCell id="_AcPWI5R-T2uOKAbNlTF-5" value="PC_in&lt;div&gt;[31:0]&lt;/div&gt;" style="edgeLabel;html=1;align=center;verticalAlign=middle;resizable=0;points=[];" parent="_AcPWI5R-T2uOKAbNlTF-4" vertex="1" connectable="0">
          <mxGeometry x="-0.083" relative="1" as="geometry">
            <mxPoint as="offset" />
          </mxGeometry>
        </mxCell>
        <mxCell id="_AcPWI5R-T2uOKAbNlTF-12" style="edgeStyle=orthogonalEdgeStyle;rounded=0;orthogonalLoop=1;jettySize=auto;html=1;exitX=0.921;exitY=0.997;exitDx=0;exitDy=0;entryX=0.91;entryY=-0.021;entryDx=0;entryDy=0;entryPerimeter=0;exitPerimeter=0;" parent="1" source="_AcPWI5R-T2uOKAbNlTF-1" target="_AcPWI5R-T2uOKAbNlTF-3" edge="1">
          <mxGeometry relative="1" as="geometry" />
        </mxCell>
        <mxCell id="_AcPWI5R-T2uOKAbNlTF-13" value="Dout_valid" style="edgeLabel;html=1;align=center;verticalAlign=middle;resizable=0;points=[];" parent="_AcPWI5R-T2uOKAbNlTF-12" vertex="1" connectable="0">
          <mxGeometry x="-0.0384" relative="1" as="geometry">
            <mxPoint x="27" as="offset" />
          </mxGeometry>
        </mxCell>
        <mxCell id="oB-aT5vTAcFPeE-sXGdO-15" style="edgeStyle=orthogonalEdgeStyle;rounded=0;orthogonalLoop=1;jettySize=auto;html=1;fontSize=12;startSize=8;endSize=8;" edge="1" parent="1" source="cbFBZiRL0tx0ivI146Lf-1" target="_AcPWI5R-T2uOKAbNlTF-3">
          <mxGeometry relative="1" as="geometry">
            <Array as="points">
              <mxPoint x="222" y="450" />
              <mxPoint x="165" y="450" />
            </Array>
          </mxGeometry>
        </mxCell>
        <mxCell id="oB-aT5vTAcFPeE-sXGdO-16" value="dispatch_jmp_br_addr[31:0]" style="edgeLabel;html=1;align=center;verticalAlign=middle;resizable=0;points=[];fontSize=12;" vertex="1" connectable="0" parent="oB-aT5vTAcFPeE-sXGdO-15">
          <mxGeometry x="0.3538" relative="1" as="geometry">
            <mxPoint x="105" y="26" as="offset" />
          </mxGeometry>
        </mxCell>
        <mxCell id="oB-aT5vTAcFPeE-sXGdO-17" style="edgeStyle=orthogonalEdgeStyle;rounded=0;orthogonalLoop=1;jettySize=auto;html=1;exitX=0.75;exitY=0;exitDx=0;exitDy=0;entryX=0.75;entryY=1;entryDx=0;entryDy=0;fontSize=12;startSize=8;endSize=8;" edge="1" parent="1" source="cbFBZiRL0tx0ivI146Lf-1" target="_AcPWI5R-T2uOKAbNlTF-3">
          <mxGeometry relative="1" as="geometry">
            <Array as="points">
              <mxPoint x="406" y="430" />
              <mxPoint x="218" y="430" />
            </Array>
          </mxGeometry>
        </mxCell>
        <mxCell id="oB-aT5vTAcFPeE-sXGdO-18" value="dispatch_jmp" style="edgeLabel;html=1;align=center;verticalAlign=middle;resizable=0;points=[];fontSize=12;" vertex="1" connectable="0" parent="oB-aT5vTAcFPeE-sXGdO-17">
          <mxGeometry x="-0.2124" y="3" relative="1" as="geometry">
            <mxPoint as="offset" />
          </mxGeometry>
        </mxCell>
        <mxCell id="cbFBZiRL0tx0ivI146Lf-1" value="" style="whiteSpace=wrap;html=1;fillColor=#dae8fc;strokeColor=#6c8ebf;movable=0;resizable=0;rotatable=0;deletable=0;editable=0;locked=1;connectable=0;" parent="1" vertex="1">
          <mxGeometry x="-260" y="550" width="850" height="930" as="geometry" />
        </mxCell>
        <mxCell id="oB-aT5vTAcFPeE-sXGdO-19" style="edgeStyle=orthogonalEdgeStyle;rounded=0;orthogonalLoop=1;jettySize=auto;html=1;entryX=1;entryY=0.5;entryDx=0;entryDy=0;fontSize=12;startSize=8;endSize=8;exitX=0.844;exitY=0.005;exitDx=0;exitDy=0;exitPerimeter=0;" edge="1" parent="1" source="cbFBZiRL0tx0ivI146Lf-1" target="_AcPWI5R-T2uOKAbNlTF-3">
          <mxGeometry relative="1" as="geometry" />
        </mxCell>
        <mxCell id="oB-aT5vTAcFPeE-sXGdO-20" value="dispatch_en" style="edgeLabel;html=1;align=center;verticalAlign=middle;resizable=0;points=[];fontSize=12;" vertex="1" connectable="0" parent="oB-aT5vTAcFPeE-sXGdO-19">
          <mxGeometry x="0.2922" relative="1" as="geometry">
            <mxPoint x="55" y="70" as="offset" />
          </mxGeometry>
        </mxCell>
        <mxCell id="cbFBZiRL0tx0ivI146Lf-2" value="Dispatch Unit" style="text;html=1;align=center;verticalAlign=middle;resizable=0;points=[];autosize=1;strokeColor=none;fillColor=none;" parent="1" vertex="1">
          <mxGeometry x="-140" y="520" width="90" height="30" as="geometry" />
        </mxCell>
        <mxCell id="oB-aT5vTAcFPeE-sXGdO-11" style="edgeStyle=orthogonalEdgeStyle;rounded=0;orthogonalLoop=1;jettySize=auto;html=1;exitX=0.25;exitY=1;exitDx=0;exitDy=0;entryX=0.418;entryY=0.007;entryDx=0;entryDy=0;entryPerimeter=0;fontSize=12;startSize=8;endSize=8;" edge="1" parent="1" source="_AcPWI5R-T2uOKAbNlTF-3" target="cbFBZiRL0tx0ivI146Lf-1">
          <mxGeometry relative="1" as="geometry" />
        </mxCell>
        <mxCell id="oB-aT5vTAcFPeE-sXGdO-12" value="ifetch_empty_flag" style="edgeLabel;html=1;align=center;verticalAlign=middle;resizable=0;points=[];fontSize=12;" vertex="1" connectable="0" parent="oB-aT5vTAcFPeE-sXGdO-11">
          <mxGeometry x="0.5834" y="-2" relative="1" as="geometry">
            <mxPoint x="5" y="1" as="offset" />
          </mxGeometry>
        </mxCell>
        <mxCell id="oB-aT5vTAcFPeE-sXGdO-27" style="edgeStyle=orthogonalEdgeStyle;rounded=0;orthogonalLoop=1;jettySize=auto;html=1;exitDx=0;exitDy=0;startArrow=none;startFill=0;endArrow=none;endFill=0;" edge="1" parent="1" source="oB-aT5vTAcFPeE-sXGdO-45">
          <mxGeometry relative="1" as="geometry">
            <mxPoint x="80" y="540" as="targetPoint" />
          </mxGeometry>
        </mxCell>
        <mxCell id="oB-aT5vTAcFPeE-sXGdO-28" value="instr[31:0]" style="edgeLabel;html=1;align=center;verticalAlign=middle;resizable=0;points=[];" vertex="1" connectable="0" parent="oB-aT5vTAcFPeE-sXGdO-27">
          <mxGeometry x="0.1311" y="2" relative="1" as="geometry">
            <mxPoint x="55" y="-12" as="offset" />
          </mxGeometry>
        </mxCell>
        <mxCell id="oB-aT5vTAcFPeE-sXGdO-29" style="edgeStyle=orthogonalEdgeStyle;rounded=0;orthogonalLoop=1;jettySize=auto;html=1;exitDx=0;exitDy=0;entryX=0.998;entryY=0.188;entryDx=0;entryDy=0;entryPerimeter=0;" edge="1" parent="1" source="oB-aT5vTAcFPeE-sXGdO-57" target="oB-aT5vTAcFPeE-sXGdO-23">
          <mxGeometry relative="1" as="geometry">
            <mxPoint x="150" y="840" as="targetPoint" />
            <mxPoint x="150" y="770" as="sourcePoint" />
            <Array as="points">
              <mxPoint x="150" y="834" />
            </Array>
          </mxGeometry>
        </mxCell>
        <mxCell id="oB-aT5vTAcFPeE-sXGdO-31" style="edgeStyle=orthogonalEdgeStyle;rounded=0;orthogonalLoop=1;jettySize=auto;html=1;exitDx=0;exitDy=0;entryX=0.999;entryY=0.343;entryDx=0;entryDy=0;entryPerimeter=0;" edge="1" parent="1" source="oB-aT5vTAcFPeE-sXGdO-61" target="oB-aT5vTAcFPeE-sXGdO-23">
          <mxGeometry relative="1" as="geometry">
            <mxPoint x="180" y="840" as="targetPoint" />
            <Array as="points">
              <mxPoint x="180" y="855" />
            </Array>
          </mxGeometry>
        </mxCell>
        <mxCell id="oB-aT5vTAcFPeE-sXGdO-33" style="edgeStyle=orthogonalEdgeStyle;rounded=0;orthogonalLoop=1;jettySize=auto;html=1;exitX=0.395;exitY=1.005;exitDx=0;exitDy=0;exitPerimeter=0;" edge="1" parent="1" source="oB-aT5vTAcFPeE-sXGdO-21">
          <mxGeometry relative="1" as="geometry">
            <mxPoint x="200" y="820" as="targetPoint" />
            <Array as="points">
              <mxPoint x="200" y="771" />
              <mxPoint x="200" y="820" />
            </Array>
          </mxGeometry>
        </mxCell>
        <mxCell id="oB-aT5vTAcFPeE-sXGdO-34" value="rd[4:0]" style="edgeLabel;html=1;align=center;verticalAlign=middle;resizable=0;points=[];" vertex="1" connectable="0" parent="oB-aT5vTAcFPeE-sXGdO-33">
          <mxGeometry x="-0.0421" relative="1" as="geometry">
            <mxPoint y="-14" as="offset" />
          </mxGeometry>
        </mxCell>
        <mxCell id="oB-aT5vTAcFPeE-sXGdO-35" style="edgeStyle=orthogonalEdgeStyle;rounded=0;orthogonalLoop=1;jettySize=auto;html=1;exitDx=0;exitDy=0;" edge="1" parent="1" source="oB-aT5vTAcFPeE-sXGdO-51">
          <mxGeometry relative="1" as="geometry">
            <mxPoint x="320" y="870" as="targetPoint" />
            <mxPoint x="240" y="770" as="sourcePoint" />
          </mxGeometry>
        </mxCell>
        <mxCell id="oB-aT5vTAcFPeE-sXGdO-37" style="edgeStyle=orthogonalEdgeStyle;rounded=0;orthogonalLoop=1;jettySize=auto;html=1;exitX=0.561;exitY=1;exitDx=0;exitDy=0;exitPerimeter=0;" edge="1" parent="1" source="oB-aT5vTAcFPeE-sXGdO-21">
          <mxGeometry relative="1" as="geometry">
            <mxPoint x="230" y="820" as="targetPoint" />
          </mxGeometry>
        </mxCell>
        <mxCell id="oB-aT5vTAcFPeE-sXGdO-38" value="func3[2:0]" style="edgeLabel;html=1;align=center;verticalAlign=middle;resizable=0;points=[];" vertex="1" connectable="0" parent="oB-aT5vTAcFPeE-sXGdO-37">
          <mxGeometry x="0.1392" y="-3" relative="1" as="geometry">
            <mxPoint x="3" y="2" as="offset" />
          </mxGeometry>
        </mxCell>
        <mxCell id="oB-aT5vTAcFPeE-sXGdO-39" style="edgeStyle=orthogonalEdgeStyle;rounded=0;orthogonalLoop=1;jettySize=auto;html=1;" edge="1" parent="1">
          <mxGeometry relative="1" as="geometry">
            <mxPoint x="260" y="820" as="targetPoint" />
            <mxPoint x="260" y="770" as="sourcePoint" />
          </mxGeometry>
        </mxCell>
        <mxCell id="oB-aT5vTAcFPeE-sXGdO-40" value="func7[6:0]" style="edgeLabel;html=1;align=center;verticalAlign=middle;resizable=0;points=[];" vertex="1" connectable="0" parent="oB-aT5vTAcFPeE-sXGdO-39">
          <mxGeometry x="-0.0421" relative="1" as="geometry">
            <mxPoint y="-14" as="offset" />
          </mxGeometry>
        </mxCell>
        <mxCell id="oB-aT5vTAcFPeE-sXGdO-21" value="Decoder" style="whiteSpace=wrap;html=1;" vertex="1" parent="1">
          <mxGeometry x="140" y="640" width="160" height="130" as="geometry" />
        </mxCell>
        <mxCell id="oB-aT5vTAcFPeE-sXGdO-94" style="edgeStyle=orthogonalEdgeStyle;rounded=0;orthogonalLoop=1;jettySize=auto;html=1;exitX=0;exitY=0.25;exitDx=0;exitDy=0;endArrow=none;endFill=0;startArrow=classic;startFill=1;" edge="1" parent="1" source="oB-aT5vTAcFPeE-sXGdO-22">
          <mxGeometry relative="1" as="geometry">
            <mxPoint x="-200" y="672.7142857142858" as="targetPoint" />
          </mxGeometry>
        </mxCell>
        <mxCell id="oB-aT5vTAcFPeE-sXGdO-95" value="wen_rf[31:0]" style="edgeLabel;html=1;align=center;verticalAlign=middle;resizable=0;points=[];" vertex="1" connectable="0" parent="oB-aT5vTAcFPeE-sXGdO-94">
          <mxGeometry x="0.5348" y="-3" relative="1" as="geometry">
            <mxPoint x="19" y="-10" as="offset" />
          </mxGeometry>
        </mxCell>
        <mxCell id="oB-aT5vTAcFPeE-sXGdO-96" style="edgeStyle=orthogonalEdgeStyle;rounded=0;orthogonalLoop=1;jettySize=auto;html=1;exitX=0;exitY=0.5;exitDx=0;exitDy=0;endArrow=none;endFill=0;startArrow=classic;startFill=1;" edge="1" parent="1" source="oB-aT5vTAcFPeE-sXGdO-22">
          <mxGeometry relative="1" as="geometry">
            <mxPoint x="-210" y="705.2857142857142" as="targetPoint" />
          </mxGeometry>
        </mxCell>
        <mxCell id="oB-aT5vTAcFPeE-sXGdO-97" value="write_data_rf" style="edgeLabel;html=1;align=center;verticalAlign=middle;resizable=0;points=[];" vertex="1" connectable="0" parent="oB-aT5vTAcFPeE-sXGdO-96">
          <mxGeometry x="0.541" y="-1" relative="1" as="geometry">
            <mxPoint x="27" y="-5" as="offset" />
          </mxGeometry>
        </mxCell>
        <mxCell id="oB-aT5vTAcFPeE-sXGdO-98" style="edgeStyle=orthogonalEdgeStyle;rounded=0;orthogonalLoop=1;jettySize=auto;html=1;exitX=0;exitY=0.75;exitDx=0;exitDy=0;" edge="1" parent="1" source="oB-aT5vTAcFPeE-sXGdO-22">
          <mxGeometry relative="1" as="geometry">
            <mxPoint x="-200" y="737.6666666666667" as="targetPoint" />
          </mxGeometry>
        </mxCell>
        <mxCell id="oB-aT5vTAcFPeE-sXGdO-99" value="rs1data_rf[31:0]" style="edgeLabel;html=1;align=center;verticalAlign=middle;resizable=0;points=[];" vertex="1" connectable="0" parent="oB-aT5vTAcFPeE-sXGdO-98">
          <mxGeometry x="0.5465" y="-1" relative="1" as="geometry">
            <mxPoint x="30" as="offset" />
          </mxGeometry>
        </mxCell>
        <mxCell id="oB-aT5vTAcFPeE-sXGdO-101" style="edgeStyle=orthogonalEdgeStyle;rounded=0;orthogonalLoop=1;jettySize=auto;html=1;exitX=0.013;exitY=0.924;exitDx=0;exitDy=0;exitPerimeter=0;" edge="1" parent="1" source="oB-aT5vTAcFPeE-sXGdO-22">
          <mxGeometry relative="1" as="geometry">
            <mxPoint x="-210" y="760" as="targetPoint" />
          </mxGeometry>
        </mxCell>
        <mxCell id="oB-aT5vTAcFPeE-sXGdO-102" value="rs2data_rf[31:0]" style="edgeLabel;html=1;align=center;verticalAlign=middle;resizable=0;points=[];" vertex="1" connectable="0" parent="oB-aT5vTAcFPeE-sXGdO-101">
          <mxGeometry x="0.4374" y="-3" relative="1" as="geometry">
            <mxPoint x="31" as="offset" />
          </mxGeometry>
        </mxCell>
        <mxCell id="oB-aT5vTAcFPeE-sXGdO-22" value="RegFile" style="whiteSpace=wrap;html=1;" vertex="1" parent="1">
          <mxGeometry x="-110" y="640" width="160" height="130" as="geometry" />
        </mxCell>
        <mxCell id="oB-aT5vTAcFPeE-sXGdO-64" style="edgeStyle=orthogonalEdgeStyle;rounded=0;orthogonalLoop=1;jettySize=auto;html=1;" edge="1" parent="1" source="oB-aT5vTAcFPeE-sXGdO-23">
          <mxGeometry relative="1" as="geometry">
            <mxPoint x="150" y="875" as="targetPoint" />
          </mxGeometry>
        </mxCell>
        <mxCell id="oB-aT5vTAcFPeE-sXGdO-65" value="rs1tag_rst[5:0]" style="edgeLabel;html=1;align=center;verticalAlign=middle;resizable=0;points=[];" vertex="1" connectable="0" parent="oB-aT5vTAcFPeE-sXGdO-64">
          <mxGeometry x="-0.4952" y="2" relative="1" as="geometry">
            <mxPoint x="22" y="2" as="offset" />
          </mxGeometry>
        </mxCell>
        <mxCell id="oB-aT5vTAcFPeE-sXGdO-66" style="edgeStyle=orthogonalEdgeStyle;rounded=0;orthogonalLoop=1;jettySize=auto;html=1;exitX=1;exitY=0.75;exitDx=0;exitDy=0;" edge="1" parent="1" source="oB-aT5vTAcFPeE-sXGdO-23">
          <mxGeometry relative="1" as="geometry">
            <mxPoint x="150" y="907.4000000000001" as="targetPoint" />
          </mxGeometry>
        </mxCell>
        <mxCell id="oB-aT5vTAcFPeE-sXGdO-67" value="rs1valid_rst" style="edgeLabel;html=1;align=center;verticalAlign=middle;resizable=0;points=[];" vertex="1" connectable="0" parent="oB-aT5vTAcFPeE-sXGdO-66">
          <mxGeometry x="-0.4622" y="3" relative="1" as="geometry">
            <mxPoint x="23" as="offset" />
          </mxGeometry>
        </mxCell>
        <mxCell id="oB-aT5vTAcFPeE-sXGdO-68" style="edgeStyle=orthogonalEdgeStyle;rounded=0;orthogonalLoop=1;jettySize=auto;html=1;exitX=0.999;exitY=0.934;exitDx=0;exitDy=0;exitPerimeter=0;" edge="1" parent="1" source="oB-aT5vTAcFPeE-sXGdO-23">
          <mxGeometry relative="1" as="geometry">
            <mxPoint x="150" y="930" as="targetPoint" />
          </mxGeometry>
        </mxCell>
        <mxCell id="oB-aT5vTAcFPeE-sXGdO-69" value="rs2tag_rst[5:0]" style="edgeLabel;html=1;align=center;verticalAlign=middle;resizable=0;points=[];" vertex="1" connectable="0" parent="oB-aT5vTAcFPeE-sXGdO-68">
          <mxGeometry x="-0.4465" y="3" relative="1" as="geometry">
            <mxPoint x="22" as="offset" />
          </mxGeometry>
        </mxCell>
        <mxCell id="oB-aT5vTAcFPeE-sXGdO-70" style="edgeStyle=orthogonalEdgeStyle;rounded=0;orthogonalLoop=1;jettySize=auto;html=1;exitX=1;exitY=1;exitDx=0;exitDy=0;" edge="1" parent="1" source="oB-aT5vTAcFPeE-sXGdO-23">
          <mxGeometry relative="1" as="geometry">
            <mxPoint x="140" y="980" as="targetPoint" />
          </mxGeometry>
        </mxCell>
        <mxCell id="oB-aT5vTAcFPeE-sXGdO-71" value="rs2valid_rst" style="edgeLabel;html=1;align=center;verticalAlign=middle;resizable=0;points=[];" vertex="1" connectable="0" parent="oB-aT5vTAcFPeE-sXGdO-70">
          <mxGeometry x="-0.2023" y="1" relative="1" as="geometry">
            <mxPoint x="18" as="offset" />
          </mxGeometry>
        </mxCell>
        <mxCell id="oB-aT5vTAcFPeE-sXGdO-72" style="edgeStyle=orthogonalEdgeStyle;rounded=0;orthogonalLoop=1;jettySize=auto;html=1;exitX=0.75;exitY=1;exitDx=0;exitDy=0;startArrow=classic;startFill=1;endArrow=none;endFill=0;" edge="1" parent="1" source="oB-aT5vTAcFPeE-sXGdO-23">
          <mxGeometry relative="1" as="geometry">
            <mxPoint x="10.200000000000045" y="1000" as="targetPoint" />
          </mxGeometry>
        </mxCell>
        <mxCell id="oB-aT5vTAcFPeE-sXGdO-73" value="cdb_valid" style="edgeLabel;html=1;align=center;verticalAlign=middle;resizable=0;points=[];" vertex="1" connectable="0" parent="oB-aT5vTAcFPeE-sXGdO-72">
          <mxGeometry x="-0.2161" y="-1" relative="1" as="geometry">
            <mxPoint as="offset" />
          </mxGeometry>
        </mxCell>
        <mxCell id="oB-aT5vTAcFPeE-sXGdO-74" style="edgeStyle=orthogonalEdgeStyle;rounded=0;orthogonalLoop=1;jettySize=auto;html=1;exitX=0.5;exitY=1;exitDx=0;exitDy=0;startArrow=classic;startFill=1;endArrow=none;endFill=0;" edge="1" parent="1" source="oB-aT5vTAcFPeE-sXGdO-23">
          <mxGeometry relative="1" as="geometry">
            <mxPoint x="-29.799999999999955" y="1000" as="targetPoint" />
          </mxGeometry>
        </mxCell>
        <mxCell id="oB-aT5vTAcFPeE-sXGdO-75" value="cdb_tag_rst[5:0]" style="edgeLabel;html=1;align=center;verticalAlign=middle;resizable=0;points=[];" vertex="1" connectable="0" parent="oB-aT5vTAcFPeE-sXGdO-74">
          <mxGeometry x="0.5839" y="2" relative="1" as="geometry">
            <mxPoint as="offset" />
          </mxGeometry>
        </mxCell>
        <mxCell id="oB-aT5vTAcFPeE-sXGdO-76" style="edgeStyle=orthogonalEdgeStyle;rounded=0;orthogonalLoop=1;jettySize=auto;html=1;exitX=0.25;exitY=1;exitDx=0;exitDy=0;" edge="1" parent="1" source="oB-aT5vTAcFPeE-sXGdO-23">
          <mxGeometry relative="1" as="geometry">
            <mxPoint x="-69.79999999999995" y="1010" as="targetPoint" />
          </mxGeometry>
        </mxCell>
        <mxCell id="oB-aT5vTAcFPeE-sXGdO-77" value="wen_rf_rst[31:0]" style="edgeLabel;html=1;align=center;verticalAlign=middle;resizable=0;points=[];" vertex="1" connectable="0" parent="oB-aT5vTAcFPeE-sXGdO-76">
          <mxGeometry x="-0.327" y="-3" relative="1" as="geometry">
            <mxPoint as="offset" />
          </mxGeometry>
        </mxCell>
        <mxCell id="oB-aT5vTAcFPeE-sXGdO-81" style="edgeStyle=orthogonalEdgeStyle;rounded=0;orthogonalLoop=1;jettySize=auto;html=1;exitX=0;exitY=0;exitDx=0;exitDy=0;endArrow=none;endFill=0;startArrow=classic;startFill=1;" edge="1" parent="1" source="oB-aT5vTAcFPeE-sXGdO-23">
          <mxGeometry relative="1" as="geometry">
            <mxPoint x="-220" y="811" as="targetPoint" />
            <Array as="points">
              <mxPoint x="-164" y="810" />
              <mxPoint x="-220" y="811" />
            </Array>
          </mxGeometry>
        </mxCell>
        <mxCell id="oB-aT5vTAcFPeE-sXGdO-82" value="wdata0_rst[6:0]" style="edgeLabel;html=1;align=center;verticalAlign=middle;resizable=0;points=[];" vertex="1" connectable="0" parent="oB-aT5vTAcFPeE-sXGdO-81">
          <mxGeometry x="0.7183" y="1" relative="1" as="geometry">
            <mxPoint x="35" y="-2" as="offset" />
          </mxGeometry>
        </mxCell>
        <mxCell id="oB-aT5vTAcFPeE-sXGdO-83" style="edgeStyle=orthogonalEdgeStyle;rounded=0;orthogonalLoop=1;jettySize=auto;html=1;exitX=0;exitY=0.25;exitDx=0;exitDy=0;startArrow=classic;startFill=1;endArrow=none;endFill=0;" edge="1" parent="1" source="oB-aT5vTAcFPeE-sXGdO-23">
          <mxGeometry relative="1" as="geometry">
            <mxPoint x="-220" y="842.4285714285713" as="targetPoint" />
          </mxGeometry>
        </mxCell>
        <mxCell id="oB-aT5vTAcFPeE-sXGdO-84" value="waddr_rst[4:0]" style="edgeLabel;html=1;align=center;verticalAlign=middle;resizable=0;points=[];" vertex="1" connectable="0" parent="oB-aT5vTAcFPeE-sXGdO-83">
          <mxGeometry x="0.5863" y="-2" relative="1" as="geometry">
            <mxPoint x="27" y="-1" as="offset" />
          </mxGeometry>
        </mxCell>
        <mxCell id="oB-aT5vTAcFPeE-sXGdO-85" style="edgeStyle=orthogonalEdgeStyle;rounded=0;orthogonalLoop=1;jettySize=auto;html=1;exitX=0;exitY=0.5;exitDx=0;exitDy=0;startArrow=classic;startFill=1;endArrow=none;endFill=0;" edge="1" parent="1" source="oB-aT5vTAcFPeE-sXGdO-23">
          <mxGeometry relative="1" as="geometry">
            <mxPoint x="-220" y="875" as="targetPoint" />
          </mxGeometry>
        </mxCell>
        <mxCell id="oB-aT5vTAcFPeE-sXGdO-86" value="wen0_rst" style="edgeLabel;html=1;align=center;verticalAlign=middle;resizable=0;points=[];" vertex="1" connectable="0" parent="oB-aT5vTAcFPeE-sXGdO-85">
          <mxGeometry x="0.5973" y="-4" relative="1" as="geometry">
            <mxPoint x="27" as="offset" />
          </mxGeometry>
        </mxCell>
        <mxCell id="oB-aT5vTAcFPeE-sXGdO-87" style="edgeStyle=orthogonalEdgeStyle;rounded=0;orthogonalLoop=1;jettySize=auto;html=1;exitX=0;exitY=0.75;exitDx=0;exitDy=0;startArrow=classic;startFill=1;endArrow=none;endFill=0;" edge="1" parent="1" source="oB-aT5vTAcFPeE-sXGdO-23">
          <mxGeometry relative="1" as="geometry">
            <mxPoint x="-220" y="907.5714285714287" as="targetPoint" />
          </mxGeometry>
        </mxCell>
        <mxCell id="oB-aT5vTAcFPeE-sXGdO-88" value="wdata1_rst[6:0]" style="edgeLabel;html=1;align=center;verticalAlign=middle;resizable=0;points=[];" vertex="1" connectable="0" parent="oB-aT5vTAcFPeE-sXGdO-87">
          <mxGeometry x="0.4116" y="-4" relative="1" as="geometry">
            <mxPoint x="18" as="offset" />
          </mxGeometry>
        </mxCell>
        <mxCell id="oB-aT5vTAcFPeE-sXGdO-89" style="edgeStyle=orthogonalEdgeStyle;rounded=0;orthogonalLoop=1;jettySize=auto;html=1;startArrow=classic;startFill=1;endArrow=none;endFill=0;" edge="1" parent="1">
          <mxGeometry relative="1" as="geometry">
            <mxPoint x="-220" y="930" as="targetPoint" />
            <mxPoint x="-110" y="930" as="sourcePoint" />
          </mxGeometry>
        </mxCell>
        <mxCell id="oB-aT5vTAcFPeE-sXGdO-90" value="wen1_rst" style="edgeLabel;html=1;align=center;verticalAlign=middle;resizable=0;points=[];" vertex="1" connectable="0" parent="oB-aT5vTAcFPeE-sXGdO-89">
          <mxGeometry x="0.6052" y="-2" relative="1" as="geometry">
            <mxPoint x="19" as="offset" />
          </mxGeometry>
        </mxCell>
        <mxCell id="oB-aT5vTAcFPeE-sXGdO-23" value="RST (duda con las ANDs)" style="whiteSpace=wrap;html=1;" vertex="1" parent="1">
          <mxGeometry x="-110" y="810" width="160" height="130" as="geometry" />
        </mxCell>
        <mxCell id="oB-aT5vTAcFPeE-sXGdO-24" value="TAG FIFO" style="whiteSpace=wrap;html=1;" vertex="1" parent="1">
          <mxGeometry x="-110" y="1110" width="160" height="130" as="geometry" />
        </mxCell>
        <mxCell id="oB-aT5vTAcFPeE-sXGdO-42" style="edgeStyle=orthogonalEdgeStyle;rounded=0;orthogonalLoop=1;jettySize=auto;html=1;exitX=0.381;exitY=0.006;exitDx=0;exitDy=0;startArrow=classic;startFill=1;endArrow=none;endFill=0;exitPerimeter=0;entryX=1.041;entryY=0.976;entryDx=0;entryDy=0;entryPerimeter=0;" edge="1" parent="1" source="oB-aT5vTAcFPeE-sXGdO-41" target="cbFBZiRL0tx0ivI146Lf-2">
          <mxGeometry relative="1" as="geometry">
            <mxPoint x="40" y="540" as="targetPoint" />
            <Array as="points">
              <mxPoint x="389" y="603" />
              <mxPoint x="-46" y="603" />
              <mxPoint x="-46" y="549" />
            </Array>
          </mxGeometry>
        </mxCell>
        <mxCell id="oB-aT5vTAcFPeE-sXGdO-43" value="pc[31:0]" style="edgeLabel;html=1;align=center;verticalAlign=middle;resizable=0;points=[];" vertex="1" connectable="0" parent="oB-aT5vTAcFPeE-sXGdO-42">
          <mxGeometry x="-0.8186" y="-3" relative="1" as="geometry">
            <mxPoint as="offset" />
          </mxGeometry>
        </mxCell>
        <mxCell id="oB-aT5vTAcFPeE-sXGdO-55" style="edgeStyle=orthogonalEdgeStyle;rounded=0;orthogonalLoop=1;jettySize=auto;html=1;exitX=0.105;exitY=0.007;exitDx=0;exitDy=0;exitPerimeter=0;" edge="1" parent="1" source="oB-aT5vTAcFPeE-sXGdO-41">
          <mxGeometry relative="1" as="geometry">
            <mxPoint x="220" y="550" as="targetPoint" />
            <Array as="points">
              <mxPoint x="354" y="580" />
              <mxPoint x="220" y="580" />
            </Array>
          </mxGeometry>
        </mxCell>
        <mxCell id="oB-aT5vTAcFPeE-sXGdO-56" value="jmp_br_addr" style="edgeLabel;html=1;align=center;verticalAlign=middle;resizable=0;points=[];" vertex="1" connectable="0" parent="oB-aT5vTAcFPeE-sXGdO-55">
          <mxGeometry x="0.5358" y="-1" relative="1" as="geometry">
            <mxPoint as="offset" />
          </mxGeometry>
        </mxCell>
        <mxCell id="oB-aT5vTAcFPeE-sXGdO-41" value="br_jmp_addr_calc" style="whiteSpace=wrap;html=1;" vertex="1" parent="1">
          <mxGeometry x="340" y="705" width="130" height="115" as="geometry" />
        </mxCell>
        <mxCell id="oB-aT5vTAcFPeE-sXGdO-49" style="edgeStyle=orthogonalEdgeStyle;rounded=0;orthogonalLoop=1;jettySize=auto;html=1;exitX=0.25;exitY=1;exitDx=0;exitDy=0;" edge="1" parent="1" source="oB-aT5vTAcFPeE-sXGdO-44" target="oB-aT5vTAcFPeE-sXGdO-41">
          <mxGeometry relative="1" as="geometry" />
        </mxCell>
        <mxCell id="oB-aT5vTAcFPeE-sXGdO-50" value="immediate[31:0]" style="edgeLabel;html=1;align=center;verticalAlign=middle;resizable=0;points=[];" vertex="1" connectable="0" parent="oB-aT5vTAcFPeE-sXGdO-49">
          <mxGeometry x="-0.7182" relative="1" as="geometry">
            <mxPoint as="offset" />
          </mxGeometry>
        </mxCell>
        <mxCell id="oB-aT5vTAcFPeE-sXGdO-44" value="immediate gen" style="whiteSpace=wrap;html=1;" vertex="1" parent="1">
          <mxGeometry x="420" y="610" width="130" height="65" as="geometry" />
        </mxCell>
        <mxCell id="oB-aT5vTAcFPeE-sXGdO-46" value="" style="edgeStyle=orthogonalEdgeStyle;rounded=0;orthogonalLoop=1;jettySize=auto;html=1;exitX=0.25;exitY=0;exitDx=0;exitDy=0;startArrow=classic;startFill=1;endArrow=none;endFill=0;" edge="1" parent="1" source="oB-aT5vTAcFPeE-sXGdO-21" target="oB-aT5vTAcFPeE-sXGdO-45">
          <mxGeometry relative="1" as="geometry">
            <mxPoint x="80" y="540" as="targetPoint" />
            <mxPoint x="180" y="640" as="sourcePoint" />
          </mxGeometry>
        </mxCell>
        <mxCell id="oB-aT5vTAcFPeE-sXGdO-48" style="edgeStyle=orthogonalEdgeStyle;rounded=0;orthogonalLoop=1;jettySize=auto;html=1;entryX=0.5;entryY=0;entryDx=0;entryDy=0;" edge="1" parent="1" source="oB-aT5vTAcFPeE-sXGdO-45" target="oB-aT5vTAcFPeE-sXGdO-44">
          <mxGeometry relative="1" as="geometry">
            <mxPoint x="480" y="610" as="targetPoint" />
          </mxGeometry>
        </mxCell>
        <mxCell id="oB-aT5vTAcFPeE-sXGdO-45" value="" style="shape=waypoint;sketch=0;size=6;pointerEvents=1;points=[];fillColor=none;resizable=0;rotatable=0;perimeter=centerPerimeter;snapToPoint=1;" vertex="1" parent="1">
          <mxGeometry x="170" y="580" width="20" height="20" as="geometry" />
        </mxCell>
        <mxCell id="oB-aT5vTAcFPeE-sXGdO-52" value="" style="edgeStyle=orthogonalEdgeStyle;rounded=0;orthogonalLoop=1;jettySize=auto;html=1;exitX=0.938;exitY=1;exitDx=0;exitDy=0;endArrow=none;endFill=0;exitPerimeter=0;" edge="1" parent="1" source="oB-aT5vTAcFPeE-sXGdO-21" target="oB-aT5vTAcFPeE-sXGdO-51">
          <mxGeometry relative="1" as="geometry">
            <mxPoint x="220" y="860" as="targetPoint" />
            <mxPoint x="220" y="770" as="sourcePoint" />
            <Array as="points">
              <mxPoint x="290" y="840" />
            </Array>
          </mxGeometry>
        </mxCell>
        <mxCell id="oB-aT5vTAcFPeE-sXGdO-53" value="opcode[6:0]" style="edgeLabel;html=1;align=center;verticalAlign=middle;resizable=0;points=[];" vertex="1" connectable="0" parent="oB-aT5vTAcFPeE-sXGdO-52">
          <mxGeometry x="-0.432" y="-1" relative="1" as="geometry">
            <mxPoint x="11" y="12" as="offset" />
          </mxGeometry>
        </mxCell>
        <mxCell id="oB-aT5vTAcFPeE-sXGdO-54" style="edgeStyle=orthogonalEdgeStyle;rounded=0;orthogonalLoop=1;jettySize=auto;html=1;entryX=0.25;entryY=1;entryDx=0;entryDy=0;" edge="1" parent="1" source="oB-aT5vTAcFPeE-sXGdO-51" target="oB-aT5vTAcFPeE-sXGdO-41">
          <mxGeometry relative="1" as="geometry" />
        </mxCell>
        <mxCell id="oB-aT5vTAcFPeE-sXGdO-51" value="" style="shape=waypoint;sketch=0;size=6;pointerEvents=1;points=[];fillColor=none;resizable=0;rotatable=0;perimeter=centerPerimeter;snapToPoint=1;" vertex="1" parent="1">
          <mxGeometry x="310" y="830" width="20" height="20" as="geometry" />
        </mxCell>
        <mxCell id="oB-aT5vTAcFPeE-sXGdO-58" value="" style="edgeStyle=orthogonalEdgeStyle;rounded=0;orthogonalLoop=1;jettySize=auto;html=1;exitX=0.25;exitY=1;exitDx=0;exitDy=0;endArrow=none;endFill=0;" edge="1" parent="1" target="oB-aT5vTAcFPeE-sXGdO-57">
          <mxGeometry relative="1" as="geometry">
            <mxPoint x="150" y="840" as="targetPoint" />
            <mxPoint x="150" y="770" as="sourcePoint" />
          </mxGeometry>
        </mxCell>
        <mxCell id="oB-aT5vTAcFPeE-sXGdO-59" value="rs1[4:0]" style="edgeLabel;html=1;align=center;verticalAlign=middle;resizable=0;points=[];" vertex="1" connectable="0" parent="oB-aT5vTAcFPeE-sXGdO-58">
          <mxGeometry x="-0.4379" y="-3" relative="1" as="geometry">
            <mxPoint y="-6" as="offset" />
          </mxGeometry>
        </mxCell>
        <mxCell id="oB-aT5vTAcFPeE-sXGdO-92" style="edgeStyle=orthogonalEdgeStyle;rounded=0;orthogonalLoop=1;jettySize=auto;html=1;entryX=1;entryY=0.25;entryDx=0;entryDy=0;" edge="1" parent="1" source="oB-aT5vTAcFPeE-sXGdO-57" target="oB-aT5vTAcFPeE-sXGdO-22">
          <mxGeometry relative="1" as="geometry" />
        </mxCell>
        <mxCell id="oB-aT5vTAcFPeE-sXGdO-57" value="" style="shape=waypoint;sketch=0;size=6;pointerEvents=1;points=[];fillColor=none;resizable=0;rotatable=0;perimeter=centerPerimeter;snapToPoint=1;" vertex="1" parent="1">
          <mxGeometry x="140" y="810" width="20" height="20" as="geometry" />
        </mxCell>
        <mxCell id="oB-aT5vTAcFPeE-sXGdO-62" value="" style="edgeStyle=orthogonalEdgeStyle;rounded=0;orthogonalLoop=1;jettySize=auto;html=1;exitX=0.25;exitY=1;exitDx=0;exitDy=0;endArrow=none;endFill=0;" edge="1" parent="1" source="oB-aT5vTAcFPeE-sXGdO-21" target="oB-aT5vTAcFPeE-sXGdO-61">
          <mxGeometry relative="1" as="geometry">
            <mxPoint x="180" y="840" as="targetPoint" />
            <mxPoint x="180" y="770" as="sourcePoint" />
          </mxGeometry>
        </mxCell>
        <mxCell id="oB-aT5vTAcFPeE-sXGdO-63" value="rs2[4:0]" style="edgeLabel;html=1;align=center;verticalAlign=middle;resizable=0;points=[];" vertex="1" connectable="0" parent="oB-aT5vTAcFPeE-sXGdO-62">
          <mxGeometry x="-0.5487" y="2" relative="1" as="geometry">
            <mxPoint x="-2" y="61" as="offset" />
          </mxGeometry>
        </mxCell>
        <mxCell id="oB-aT5vTAcFPeE-sXGdO-93" style="edgeStyle=orthogonalEdgeStyle;rounded=0;orthogonalLoop=1;jettySize=auto;html=1;entryX=1;entryY=0.5;entryDx=0;entryDy=0;" edge="1" parent="1" source="oB-aT5vTAcFPeE-sXGdO-61" target="oB-aT5vTAcFPeE-sXGdO-22">
          <mxGeometry relative="1" as="geometry">
            <Array as="points">
              <mxPoint x="180" y="800" />
              <mxPoint x="110" y="800" />
              <mxPoint x="110" y="705" />
            </Array>
          </mxGeometry>
        </mxCell>
        <mxCell id="oB-aT5vTAcFPeE-sXGdO-61" value="" style="shape=waypoint;sketch=0;size=6;pointerEvents=1;points=[];fillColor=none;resizable=0;rotatable=0;perimeter=centerPerimeter;snapToPoint=1;" vertex="1" parent="1">
          <mxGeometry x="170" y="810" width="20" height="20" as="geometry" />
        </mxCell>
        <mxCell id="oB-aT5vTAcFPeE-sXGdO-91" value="" style="shape=image;verticalLabelPosition=bottom;labelBackgroundColor=default;verticalAlign=top;aspect=fixed;imageAspect=0;image=data:image/png,iVBORw0KGgoAAAANSUhEUgAAAeEAAAFhCAYAAABH+hLWAAAAAXNSR0IArs4c6QAAAARnQU1BAACxjwv8YQUAAAAJcEhZcwAADsMAAA7DAcdvqGQAAIl4SURBVHhe7d0FXFPrGwfw3+juFgQV7Fbs7u7u7vZa1+7uvOa1uxu7FbsbBQHpbsb2f9+zgwKiV/0Dm/B8P59Hd96zDRhsz3lbImdACCGEkCynJv5PCCGEkCxGSZgQQghREkrChBBCiJJQEiaEEEKUhJIwIYQQoiSUhAkhhBAloSRMCCGEKAklYUIIIURJKAkTQgghSqJyK2bFhAXBPyQCX74pDW3Y2dpAR1NdOJQnJSIwwB9RcUkws7SCsYEuZPEx8PbxQ5Jwj6/0Ta1gbWogHqXAfuTomGjo6hlATSKWpSST4rN/MMytrKClnt4dfk5iXBTioANDHQ3ER4fDNyAUhqYWMDNmX5d9t2Hh0TAxMRLv/dW9e/dw/oIb1NUUP3NOl5CQgA4dOiFfvnxiCSGEZA8ql4SPzxmMQZuuI5+DqXAslaghd8GqWLlkCkzVIrBg0iTcePEekTFSmJnYodOIv1HDJhh9+k9EGGR4++wJzPIWhbmeBqr1mIJpPWp9U92P8n2KcTN3YsaS2TDX/TbRJYV7ok7LEVi5dyeKWuqJpb9Kih2LFqFwpyFwlr7DyFHT8SYoDDq65hg0dQFalrPDmvnL0XDQSOQx1hIfo7Bz507kL2IDc3PFa5DTPX3yAmZGjqhatapYQggh2YNKNkc3H7gYly9fFuLK2eOwD3bHkTue8Lx9ArcC7LHn8ElcvuiGtXN6Y82cxdB2qYwjwv3PoUXlYpi77YTw2BnpJGBey71z2Q23bt/BheuPWaVYjrDPHji0dxcu3HvN0nhqssQYnHM7jU8hMawWHo+HV89i3+FT8A+PFc4Her3Aradvce/6ORw4fQlR8VKhPPTVZTxMyo9Sdvq4cHAPnBoPw+VLF7B8XCucOHwW8ayG3LBmfmzbee5rrZ8QQkiOopJJOCkxAXFxcUKEh3yGb3AszE30oW9qjgjvl3j6xguxCVJYFqiCI3sWQf8Xfgq5XAZ/Pz9ERoXB0zsAPk/d0LTLIFy//xjb5w3F0MWHviZieQJ2LJ6Efe5+MNWX4J/JgzBv6wncv3kW/bqOxIeQWLxzP4keXfpgx6HzOLt9CTqOXo0EltiP7TqLWk2qQiKPxeO7XihbphDUWa0+b5HSCP38SmhOty9aHp/dz+BTRKL4BQkhhOQkKpmE9y3tjxIliiOvgy2K1+mBqv2noUlJa1gVb4CFYxpi5YReKF+pNjr1HIm7H4N/6YeQqGuhQbNmKFigLHp1qIP9mzaj+6TVWLJgPv7dvRtBp7bgbRhLiiwBn1g9BZeji2HFhB5QC3yC/U81MXXcUPTuOxjtygJrj9xlzyhH3tptsXDxfKxauxRaD28iKDIYlx76oYiTCatKJyE6RgpdHU3xG5AgIOQTwhMSoalrilzqYXjuGaI4RwghJEdRySTccewWvH79Gu7n9qOUowNKli8JDZbsfDzewNq1GXYev4ib5w9iUGtXzB06Ad4xaYdk/SwZPgRFIW9uS8WhpgnMLOLwwT8KiPaC+5sg+Hh+hEwOBH54jXdPL2HYoEEYxGLL1XfQjY5hD1KHvZ0tNCU8wWtCS1sDSSwJvwyJgyYf1MWSrqaGGqTSrw3dRgZm0NNQh1yiDl1NNQQERIhnCCGE5CQqmYQVJLAvWQtj2xXE6LGLEM3y7NOz2zBvy3nhnIGpFao1bgZ73UgEx6Ttyf1ZanA008P7D/6Kw8RwhAbrwMnKADDIiylLVqGRqSf+dXsGQ3MrWBatgxNu53H+/HnsWrsQTRqUUjwuDTVtPVjoaIgHunAuZA4P70DhMDo0AOZ6uRUjpuPjcfatLwx+pT2dEEJItqHin/5qqNJ5BIqGX8bGk09Qo0NfRJxbji4DR2HGjGkY2K0X5K7NUcRCbOr9STpGFpDFfcSOQ1fQpkd3bJkzFBOmTEX/bp1hWKszXEz586lBQ0MH3UcNwaVNqxFlWxFd8gejfe9hmDZlAnoOmYF4iZho05DoWqCUgw58guPYkTrqNq2DLVNHYtLUqRgwahZKNKzLasISyKSJ0A56BzXPe4oHEkIIyVHUpzHibZWga2gCR2cXOFgr5s9K1HRQrlIphEUloFDhomjVrjUcDCWIkWqhVtteGNKxLjQkyXN5JTBhNdb8BQrBWOf7c2w19cxQoqADkjSMUL5yDbSqWwFR4eEo16IfhravAXU1DVha26JIQWeYWtiisL0xoG+DRq3awNkQiNexwODRf6FEblNo6xrC3sERjtamkLCkbG5tA+cCzrBK+ojzPoaoUtgWxrkKoFG1IggKj0eDtv3Qtk5J8JbqCL/nuDhnJUzevkeRjh2hpaWYqvT06VOYs9q4np6ucJzTBfgHQleb/V04OoolhBCSPajcPOGM5Pv+GZ6+8xGPkqnBuXh55LP9dpGMjCSL88fESZsxYe44GGmm3+BwcsM8vJy2FQ18X8F33z7Ua9tWKKd5wqnRPGFCSHaVjTsj5fB8cR8HDx5MHYeO4JVXmHifzKOmY42+HSvhvV+UWJKGLBoJpsVQitWmi7DDV7NnIynpdweYEUII+RMprSbME87xFSug5uEhluQ8UqkUxkeOoLafHz5KJHiydy+asdow1YRTo5owISS7UloS5usBX6xdGw2uXxdLyP7q1dH87FnsP3CAknAKlIQJIdkVzY1RIWVu38Y9NzfxiBBCSHZHSViFOMbHw3/FCsTFKtalJoQQkr1RElYhfFJV4cuX8eTCBUUBIYSQbI2SsIrJL5VC9+BBISETQgjJ3igJqxi+7IijTCb8TwghJHujJKxiQtTVcbdECdCMYUIIyf4oCauYu/nyoVjHjrTRPyGE5ACUhFVIsJoawjt1gqWNjVhCCCEkO6MkrEJuOjigUs+ekHzZkIIQQkh2ptQVs+bVrg3DHL5iVjUWZVjwmcH7pkxB9+nTadnKNGjFLEJIdpWtd1FSdbGxsbjDLkRq3LqFfaamqPv2LUzNzSkJp0FJmBCSXeXY5uikuAh4B0XA681T3Lhx40vcdn+E6AQp/Hx8IZVlzfVJKP9n0CAhARNCCMk5cmgSluHC3p146hmK224HsWrVKiEWzxyHtr0nIyg2CY8vHsX5577i/TPXXWtrVOvXTzwihBCSU+TIJBwT8BrnXktRtURutBsyDbt378bunZtRMbcjJi5dCEdjbdRqXAsHN+zI9Pm6kSzie/eGtYODooBkrNBPAPudYqEYq/8FvIPFk8yTy+wq6JXitjQOiJMqbv9ITBiwbwuwcjPwKUgsJISQX5cDk7AcT65cgU2RMjDQ+DoK+c2VfbggKYo+dQoKx5pmzsgb+xSXPHiazDyXc+VCyb59aUR0Zgn2ADYeBDR0AF1dINoTaNsRuM/+5zQ0WfBFQmXA+J7AxwhF+ffEBAKd2eNvsueNZQm+ZXvgsY94khBCfk3OS8JyKe7degCH/LnFAlaUFI1t28+iR88O0BDL+HYKZfKb4tqtt+JxxtPQ0EBDloDtHR3FEpIpbNiF1YDBwJAhwNipQA9X4Ji74pypLWBpzGq074FnLO7fByLjFefS8/gKoFMWWDSDPdcUYFB14CjtiU0I+T05LgnLpYl44e3HKkBft0iI9H2JRyH6qFHUXixRsMxlhYAP/uJRxtPU1ESdevWoFpyV4sKBp6wWnI8lX74u2cl1wN5LwJPbwFtv4NAhIDBGcd/0eLwBChZiV1D8d8aiaBHg+RMgiSYZEEJ+XY5LwhJ1DTiYmgifv8k8nz2ESeEKsDDQFEsUIoNDYeJgKR5lDy+O7UbtCo1RRYxKZeuhWudZiBPPfyXDyY0LUMG1oXjfRmjdaTRO3n4nvHTyuFCM6z8dL/yjIY0Nh9vZu/hB/VG5HhwA8jsBuXMDziyBPmAXYI1LiydFjTsDVYsBs2cDeb83NYz95PHslTI3EI8ZA0NAGkFJmBDyW3Jec7SaBkqXLYiP71mtRyDDh3cecCnokqIpmpPjxcdoVK3oLB5nD4WbdcSF2ydxncWVy7vQ2LUAenRpDR3xfErxsTFoPmGWcF8e62Z0xpYpy+AdKYVExxTz/5mKwtb6iPF7j/3bb6puHirdBnjzEfDyAj68B7qxhDx7C/sV/8Y3rMYSeEyCeMAkJQHq7OKNWjMIIb8hBw7MUkPZ6tXh8+wJEoR5wBKUrtsZPeqXUpwWyeP88TDMDNWdWa05W5LjwZnD+GBUEh3qKgaj/ZgElnnywUEjDqExUsgTIrFizgZ4hIRh86pNePzsIuYuPIg4qYrXCDV1gUaNWTK++xu1V5ZorWyBT4FCpVjg7wcY5mKJmJIwIeTX5cAkDJg5l0Fh3SA89wpnRxLYFywKR2tDxUnRk8vnUaZ1B+hn01coMSoQuw7eR9fuzaCXYpR4Wm/u3MSBfcdYHMWaBeuQUKwinC20WQJLwNP7LxARp4aGLRshX55S6NShGrRUPRklxQMnDgEWBdhff5rvVcpqtWHR4sF3FCsDPHUDPFgijgsDjlwG6lXOoe8kQsj/K0d+dEjUdNChZ1vExnxn+pE8EVKjfOhUp5hYkP28v3MZQYYF4ZrfQjiWy2Xs9YhBdBSL6LgvFb3IkCB4e/uy+IzQiFjIJAmIjZeJZzk12OayhYG+KRwdLL/Ja0rHm49fnQAKiH3CBUsAz1jZjEGKJKzJLii0eEcEeytUqwq0awRceq94bHrsiwN9a4P9cQBFKwEGpb/tXyaEkJ9Ea0eroExfO5ol3LVjRkOzVn/0aaRoio4N8cSYgRPxLigeWroFsOHAdNzYMBOvczXFhFZ8iwlOhl0zJyGkRHcMrmuBfl1mYfDKmcgb/wajJ1/D8u3DoZcJSTgnrB19/Phx+Pr++gptZmZmcHJyQp48eWBqagp19a+j/gkhqo8a0XIguSwaLz6Go3TJr3Oldc0csWrvDpy5sB/HTsyCtU762VRDXYK4hG9XlZLLZL81zkn1sFr+ltlAgwbfRqdRQFTmrKE2b9483L9/H58+ffql4BdsQ4cORb169dChQwccOXJE2BiEEPJnoJqwCsrsmnBS2Du0b/kP1p1dAAut71VdZTi0cgaOepmgUWnFYiLRgZ9w+OxHLNk6B8760V9qws5yT/TushgtxgxA6/quGdsvzP48fW64w1TLCkUbNwZ00hvHncECvIHgdLoqNHSBvOy1+JWfj7+9QkN5lVUsSF+tWrWwfPlyFCv2a10g/O3Lk66npycuXryIXbt2QU1NDePHj0f9+vWFBWEIIapLfRoj3iYq4unTpzC3MoCeHvvQzwxSKaQGZihV0inNtKzUJOzDPD48CjHRsULo2xbAiDHd4GiuKywwoqahxS4W8sHUzAJ5nfThHZKIIoXyQDODkrDOy7ewGTIRTuu2wurQIUg2bAD09YESJdhfbiY2u+obAZaW34a5iaIf+Vfw/bIrVAA+fAAKFQJM2HOkM51p69ataNiwIaytrcWSn8N/D3zRF0v2/ZUrVw5dunQRmqgnTZoEd3d39qUrwNAw9aBDQojqoJqwCqL9hAFtD0/YdhoINd80K5bxmt2CBcCIEekmM5Vz8iTQpIniNr+AYEkSgwcDRYqwhP61N+h3a8LfE8pq35MnT8bVq1eFv6eMel5CSMaiPmGikox2Hvw2AXOsFo81a4DgFDsh/Smio4F//gGqVVOsY81rx5l0DcwHaS1duhT9+/dHmzZthFoxIUT1UE1YBeX0mrBaYiLs2vaD1oMnYkkavCm6Y0fAykosUA5+GaDNIsUilt/y8ACOHBEPUuC1eFtbYPRooVZfq06dDK0JJ5PJZFi/fj27blmDQ4cOwdk5e60AR8ifTuVqwnFhPlg8eThcSxRC/mLlMGDiEgTHstpPXBC6VSoBOwcH5M6dGwWKuGLIxOUIiEpgnzSxmNu5Nqxtcwnn8roURd9xSxHIz6VLjtsn1mHhwTvi8bcOLx+NwavPi0e/Jz7MC0sWbob3q8twLeosfG+5czvA3MQEPacfhPeT81i//8aXOblEQc4SlFzzB73VmpqAhYXSItbAAL22bYPdkiVwZLHh6lXIzM3TvS+MjcVvOg3eFM0fw3fQysRmdT5Iq2/fvmjWrBmrfA9BVFSUeIYQogpUqiYsl0ZiWr/eMKzTD4Pa1ISWLAaHVk7E4bCy2DG5Ibq0HIa/t21EMUt9SOMjcGDJFLjFlsGmaW0wq0NH5BmwCF1qOUMmjcU/k0cgtmJ/jGr27UIKiTFhWDy+F56a1ceS0T1gqacG7w/vEBgLFCrgAj0tDRxYPBxumo2xflg9hAZ8QlC8NpwdrJAQE4737z9A3cgGLrmtIZElwsPLFxYm+vDw9IGNowtsTfXZV5Hj9Lp5iHXtgVZl+I49ChE+TzFw1Ar8vWwJCluoYenMRag/+C8UseaPUfh+TViO2MgIeH3yQ5KGDpwc7aCnnXrTCVXFpzDJIIH6Tw5sMl+7FcbzVrIHpvPnWbIkcPny9xNcJtu/fz86deoEKW8aZ0zYRdWrV6/SH1SVsk84WdGiwKhRQLt2in5iJqP7hNPiybd9+/aoWbMm/vrrL7GUEKJsKlUTDnl7B49RFEM71GaJUB0aOoZoO2QKBrUoJ97jKw1tI7Qb/heCLx6Gb1yaD2pWs1DX1oG+tpZYkFqk31tcvvIQd47vwK23Pti0cBwGjByP6VMmoPvA8fCO+FqDDv30BCPYuYdeIaxm64nBffpg0rQZGDdiMJbvu4HEKD8M69sFw4aNxYypE9Gu8wA8+cxqG4nBOHQrGLVL2IjPxMgSsHvtGpRq1ROFbQ0h0dRHxeLm2H/i1n/WhuXyJNw6tg/jRs9iH9YbsXzRKgwbMht33waK91Bh8kSc2LIXj73+Y8P8FMLbNEFC8ULiUQra2sCYMUpLwFxQUNCXBMyFhYUhLu7bfai+kS8fsGgRcOEC0LPnlwScFQxY7X327NlYsWLFby0KQgjJHCqVhH1ev4SRaW5opqgtSXQtUNW1INKbkKKmZ4HcZrH4FMKTZghGda6JvHnzss+6AvjnXiKaVnJR3DENs7xl0aljXTQdOgPVjLxx+G4ituzZj6MH9qG5YzS2HX8g3C8h4hOmT1qMFkOnoU2lgrizbwMs6gzFvv0HsW/7SjzasRHeMTLEyjXR9e+5OHT4MNqxz9krdzwQ8uY2oswKwjjFusxRfi9w6lECOjZ25VsBCFyKFsY7d3fE/sdmAp8fXsTaA+8xfMYkrFq3EOvWzsHA1oWxeO5GBPHmelUmk+LVrSeIiv/5hS6klubw37gEUb07QeZor0hY9esrapasRqdMvNaastab9jgV3m/Np1QtXgzcvKmoASupL7sE+z74NCg+YIsQohpUKgkbmJpAXZJyXWJOhvCwcAgbHqUllyIhXg+m+rz/0AyLtp3Hmzdv8IYl86mNzLFy24X/rGEGeL2FXsGSsNbXgkRdCyUrFMftp4+Ex7ltXYXrHv6wtLKAGvu+rrjfwYa/OyKvkyOcC1fA5ecP8No3CiZWueFsYwqJmgYsLUyQlJgEr6dPoMVquild378duWu1QC5x3+LIyEi89fyM8MjPiE9I+3OnJMPh3cdRu1cX5LMxFqaqStQ1Ubp2M8ya2An6LNEnJcTg8LpVaNegDSrX6IDJi3cjmO92FO6JJu3GYuc/a9C0dgu07joNd93vYkyfgaherS3mb76IRPalve6eRcchCzCH1TJrVGqOoX9vxOdwxQ7BXk9uYVT/4ahVoRFq1emCFVuvgm+WdH3nWvw1bTnaNmmPiavPIDbMFyunzUZz9n1VrtwCA8athn9kAu4c3oodV69idKfBuOMRgTCfN5j11zjUqdoUzVsMw55TT4UNjV4f24TBY1eiW5MOGDzvMGKsLBEwdTROrJyD6zz5nj4N1K6duXOEf0KBAgVYZZbVZplSpUph37590PneIiKursADdlGXnHyVOK2Kzynm84f5gh5UGyZENahUErZlyTDgzTX4RnzdHj7W7wk6dPwL4elskRf24TF8TV2Qx1jxoazGPpz5CkGa2nooWaY4Pj54KSSYHzEwNkWcvx+Sc2CofzAcrXMJNdW6/adj6+SOWLd0C6LZ1zc2MMSoNWfg5eXF4iMunzqIynnSXwhBS1dH+ND7KglX7r9HgwaVxGMgPDwcs+auZV9LE2o/6iuVx+DDu2iULpyiaZuRaOrAOZ8jdDXV8eIsq53fj8fyvTtw+fQG2AffxYKtl/kijEh6/wxy53o44rYPDZ1jMGf5FYxduhzHd0zFlWPH8Dk6Qeh7fX/rPsp1HoYLl3ejnLEPlm6+wJJjAk4fvIjGg8bjwu1TOLRxJNzWbYdPdJKwWtPDR2HYcHAXpvatjSfXLiHRqRIOnDuGy+c2weKzO8489kX5lt3RpVo1LN61GuWctLF+3grolm6OU5ePYtOyfjixZjmuvQoSnu/pC08s3LMNS0c2gab4ksjZayPnA5mUmMDSyseblhk+FcicD7D6kRTzgZXNwcEBZcuWhZubm1hCCFEmlUrCutaFMaqFMwb0GogtO/Zg17YN6NlvDOr06wdT/okcF4Jzxw/jwIED2Ll1HYYOnYuWPTtD0fMbD/erZ4Rz+/fuwqK1e1GmXkVopvsTSmBhbI6Pd68g3KwEcoXcxNQl67B72z+Yt/0m2jVWJEptLR0UqtESBaRPcPSWB9r36oezy6di/bbd2LhsJvrN2oSE71S1HYqWZDV4HyEJCmRh+OAhQyGH1PsTP/Y3g5qRLXS1fvCrkLCLC201JKXbHKBw/foj1GrTArbGOtDUNUTLzi3w/tIDsFwJ6OVDner5WAVSC3kc7OBcugwsDbVgaG4JU6kEcVLFd+lStR6qlnCAupYeGrWsj9B7DxGdqIE+E0ZAP/wd9m3fjS3bTyIsIRaJ4kVRodJlYaytDi0tTZRnNdiWpUxx5vBRbFy/F488/RAVnyjcL1lSbCBev5ajbdNy0FJXg4VTYbSoYItHTzyF8/mLlYa1gRa0/pABZ3+idu3a4cSJE8L0JUKIcqlUEgbUUavHOCya0BMBHk/wyCMQQ2etxYgWrsK6vY2aVofP84e4desW3nglYNjCVeheryhLUhqo0KQRNCM/COfuPHqBur0mYkjrCl/6XtOq3rovqpolIEhqjIXr16KgdhgefYrC/LUbUSW/OVzK1ETdUo5Q0zJC/7+GQubnC4ui9fDvyr8Q+P4xgtXzYfOKyTDVN0LTRg1gpMNr4xIUqFgTpfNbwTCPK6xjPBAYLyZOVtWu0q4j7AxSN6XGx4QCkTGQJP2oX1cbjo76ePI6zeIVSXE4unEv3vhGsmSbCG09PmtVQVNbGxpxUkUzvrqGsPFCMnVWc06PBnt8coVcIlGDhD1YLovHqnETsfXwVURpmKB6o7rIneKCQevL15Tj1pFtGLNwJ157RaJ4pYqoVNxBPPeVnP2cSYma0NRIfg4JdPW1kCAOdNLVyqSlOskXfHnLt2/fCgPKCCHKpWJJmH0kq2mgYJmqGDdlDhZM+xuVizsr1svXMEDXUX9j8eLFQkyfPAyuhZ3YOXZSoom63YZ+Obdo7iw0rVYKOupyBPh8EpuPv4aPbwC0LfJg1Mw5qO5iASOL3Og+dDzmTxyNovnshMRdokYLtK1aQPierPKVQZe21aGhpoa8xSth4vR5GDe0CxzM9KGuY4qeXTvCTJf3S0tQql4rVCuRi72yhujXqhiOXHwhPAd0LDFkWEek2pxInshqoXnxIrw6Hjx8KRamRw3N2jXCqbVb4BEQIczakbGk+/jKGey6/BJGhjqoWMQZt85dQ0xiEjsnxe3zl2Hg6gKhu/wn+T58Au/gGJZ4pXh27zEMixSBbqwPzjxMwsTZ49CrfT1YIBLecexrpK2Uy+Nx4/httBs4BH+N7IySec3x6WMgq22Jd5QlISEhCep6lrBzjMGN+x/Zc8gRFxGIc7c8kT8fe81IlrC1tYW+vr6wCxMhRLlULglnqKQwzBnUS5jTmTIGjJwDf6GdNnOVaNgOxgGvEfOdkc8xfs9h6twAhjZVsGqru9An+j12pWthYEsnzB07DUMHjsWgfuOxfOdDjJw0EDaGmijbqj0cwx5gWD92bvB4HHgcj7/6NvrhBg1pyWICsXTabAxhz731aiD69KoDLWN7NK2oi/ED/sKoUTOx/uhL5Gb50pcl61Qk2qjeogr2LZuHoYMmYdai3dC1toGvZyD7K9OAo7M+1s2cC3fPePQZ3B6n1y/F4AFjMGLEbBiVa4Z6ZSkJZxVtbW0hCfv5+YklhBBlUdpiHXye5eLVJ+EZkHP7/vgWdO4fnaBrUQZxQbexZYIOXF1Lfn+xDvarigoPgdcnfyRJdJDH2QEGOl9fv6SEOHh5eCEKmnDO4wBdbZaCk+Lx+q0/8hXMLSTkiEA/hMv04WBtyLJuIt6/+4xcee0R8MAN4zd5Yun0pggMiEFuF0cY6SqeW5oQiw/vPSHTNISTkw1CfD5B08wO2glhCE3UQW4bI+F+kCfhs9cnBEdKYc++vlZCBAKjWQK2N0VCdATeffCFtVNemBtoIjosBB8/+UHPxBoOuSzAW6fjQgPhH8Punyv1z62Km/rzecG6urrC9KTkkdL/j8xerCMl/pZv1aoVnj9nF4GmOWNp1MqVK2PJkiXiESGqQ2lJOCEhAV1Gn8f7uHpiSc4kkSj6knkCK6q7BZuX9cLu3buzfO1oL/czLAl7YfO6fqmbzFUAJeGM17p1axw9elRY1jK74wPQ+O+KTwkkRNUo9x3IB/9INHJ0CAlYeC3U8Sy4Am7efqQ4zmKmjoXRo0PlL9OCSPa3fft24WI4u8emTZvEn5gQ1ZP9L4P/IHLdAth61JN9cKSe1pMVDK1zo17NIumuTJbj8UHE11n87jgmpbQ1fV9SUpJQk+f9woQQ5aIkrEIkapp44JUH9x+9FkuI0kWzGMViHYsBLN6z+BV8RdVVLFRoSm58fDxCQkJgZmYmlhBClIWSsKrRL4rjVyOEpnqSAfj0Y95lywfD8whlwd1iwWu4/H++lLI3C37f4yxOs+BJl+838YZFfhbbWYxgcZFFWnyBt1MsdrDga47wxy9g8ZkFX4b8XxbpPU5JIiIihETM11knhCgXfdKrGD5PWmJYEpLkvmLy/+Hd7nyZZB8Wj1msZcGTMW9evsZiDQu+5NpEFnxDKn7MEzNvep7GgidSSxb812HBIs16KQKehKew4Fv1urPgCZt/XZ6I+TuMr2eix0JFPH36FHp6ev+93CYhJNNRElYxSfEhMEy4DLmclhTMMBVY8BrtUxaOLHiiLMjiGAteA+a1WF5jvc/CjsU4FnzL3Y8seDJNOaWcH6fHngVvrnZlwRM2f86iLPhGXnzNl/IsVMSRI0fQoEEDYb4wIUS5KAmrGJ34O2jTqAi7pWKjeVQVf5nushjJoiyL/izOskiZOPleC29Z8BkqfItiXlPlSdGJRTsWc1kMZZGHBX9HpHxX8PvwBM7HyvHnUOzb8H38+xnLgteCz7PgzdD3WJxjkfJ7UpLo6Ghh84YmTZqIJYQQZaIkrEKSEsNRr2QE8uXNLZaQ/7SfRV0Wy1jwmux6Fs1Y8Obl5OW4+V85n35bhwWvmdZiwZuY+7K4wYLnIz4Wji/albwjIa/N8mWsebcp/5/XZpO/VlrJ9+V45XIqizYseK2be8aiBYsOLPgFw4+WCc9kmzdvRqFChbJsPjIh5McoCasQvcQn6N6+IlJvgUi+iw+yGswiXDj6io9Ins+CJ7xkVVjwJmi+8yRPkPwl5nvr88FUXiwWs+AbXK1kwRMqv72TBW9+nsnCgwVPwrz/mC8HnrzUNx89zQd47RKOFM3ZR1jw+89jkZzUeb/xARb8++jI4g6LLJ6JFhAQgNWrV2PEiBFQV/KezIQQBaUmYbksETJpdA6OGMjlijZKuSwBdYr5IW8eqgX/NL4lbpDiZrr41KAzGRx84FYJFqVZcDyZ8houHxGd3v157TwlfoHAk3FtFt1YpLxQyER8bvCCBQtQpkwZ1KxZUywlhCib0pat5B8KB47egF9w1i9MoSr4VJFdl02gb1sTSUHncXJVMdjZWX9/7egc6rvLVvLaKx9A9T18J0Ve+80EcbI46F7QRS2zWrhQ5gfLVvIR1z9aBI3X5JcDtepm7rKVJ0+exPDhw3H69Gm4uPA2+Zxj69atGDJkCC1bSVSS0pIwAby9vVG9xy0YOzZB84KnMXVMK6GcknBq303CfMATH2D1vYHkLLlhkOLmL+ODsfiIZ95QsZcFr8HyGi/v8/VhSTg3S8KGLAnXZEnY7QdJmI+Sbq64+QVv4uaDyHi/NV86XStz145++PAhOnfujFmzZgkbN+Q0lISJKqM+YRWgFX0TPTtWEo/ITyvFooHi5jd4ZY8nTZ7wfjV4wuWjmnn/8QYWfG4w37lxNgu+YRQfzJX8ec77ltN7juRI2fXKN6Xi1xH7WPA5ynxAGO9jzkSPHz9G165dhSTUogUfHUYIUSWUhJVMlhiJxuVjYW/HRwmRX8ITHE+SvHKXPOWVl9VgwQdc/e5LyqcWlWTBk/EHFnz6E592FMuC957w5M+T6M/gg7x4Mq7Ggg/s4tOnWoplmYjvHHTq1Cm0b98egwcPRv/+/XPEjkmE/GnoXalketLH6NisOH1A/i4+GpmPTOYDoPhAqNssTrAox+J3vWLB+5P5VCLeHM1rq7zGy5MyD17L5on6Z1RkwZvN+cAt3iydPJUpE4WGhmLChAlC8p05c6aQgGk0NCGqiT75lYhPRapfQQ/O+WhE9P+F14L5+ib1WfC+1v93cyA+mIpPLeLvDh7J83p5Ga/B8kSavAb1f+H35aOpM3nZysTERHh5eWHRokWoWLEiPnz4gIsXL6Jt27Z0gUeICqN3pxJZWlpiwvjR4hFRGXwhD94HzJMuv32UBW9GNhDL+LkMXnaZzxZ48eIF7t+//1Nx7949XLp0SViCcv78+WjatClq166NBw8eYM2aNdizZw/y5OFLgBFCVBmNjlZBNDo6te+Ojs4svOmYNz/zQV98V6Q5LPgIbN4vzJui7wBxPnHQba0rjGq+cOEHo6N/0tChQ3H37q9PGjYyMkLp0qXh6uoq/O/o6Eg13zRodDRRZZSEVRAl4dSyPAnHsdjEgs/hTYu/WzawuzRnSdgm45JwQkICpNJfX89SS0sLGhqZPMrrD0dJmKgyumQmJC3e5MxrwbzZOS2eoHnfs7FwlGF4MuXbC/5qUAIm5M9GSZiQ9PDdktIbTMUHWiVvzEAIIf8nSsKEEEKIklASJoQQQpSEkjAhhBCiJJSECSGEECWhJEwIIYQoCSVhQgghREkoCRNCCCFKQitmqSC+YlZUrD+MjPmGtsTj/UdUq9wg61bM+glxcXHQ1c24FbNI5qEVs4gqoySsgkJCQuDpyRctJslcXFxgYMB3UFANlIT/HJSEiSqjJEzIb6Ak/OegJExUGfUJE0IIIUpCSZgQQghREkrChBBCiJJQEiaEEEKUhJIwIYQQoiSUhAkhhBAloSRMCCGEKAklYUIIIURJKAkTQgghSqLkFbPkeP/8Hl5+8BePAW0jK1QoVxqGOhrCcXxMOB7cvYOQeHUUL1kW9lbGiAz4gKvuz4XzX0ngUrICCtibi8ci9uO9eXALbz6HiAUiLSNUqVYJJuLX+UqG9w8fQDNXQeS2+j+WSZTH4937z3B2dhILZHjx6j3yF3QB/4o+bz1gkicP9DUkitMp+Pj44OHDh+IR4SpVqgQzMzPxSPloxaw/B62YRVSZkpOwDAtGtMThd/oo7WgqlMSF+8FHWhj7dsyAetAL9BwwBia2eaAhkcHT+zPaj56HWhZ+mLtmP3t4DE7vOYsKrZvDVFsTDboPQ9NyzsLzfCFPwqlNy3Hy4XtE+7/B2WfhaFnbFRKDXBg7YRQcTXTEO4pY8lzYrRNMO81Cn4aFxMJf9/LsTlySFsGgxiXZkQxPz2xDj4U3cPn8BhiyvOt7/xh2v7TA6C6VFA9IgW/goGuYBBNTY7EkZ3vz6h2KFCxHGziQ30JJmKgylUjCsvrzMF5MeHJ5HPq2qIuW849C59oyHIhxxZphTSFhiSvkzVX0WnQZB9dPgTq/c6I/WhRti7l3LqGQiVDyQ753dqHN6je4sW0aqzdzcgR7v8GOPfsRr+6A9l1awdFC60sS7l3fGW47t0GzcG3UKGGNe5dO4vDV56jSsA3qVSgMRHpj077bKOoggduN92jSpTNcC9iz6nsQRo5dgSkLp8JMLR7bF07D/gfv8cbHEHdv/CskYSABk4b9hR7TF8HZVEv4bpLxJJy/iA3MzRUXJjnd0ycvYGbkSEmY/BZKwkSVqUSfsM/b57h//74QF4/vw7twa+S3NkDeoiXx+sxe7DnhhhfvPaHjWBFHkhNwBogLfIlubYchQc8WRjIPtO86An4xSYqTskSc2Tgfe+9GoHRRO5xaPxfzDj1EkfyOOLd5Af49/QiJkZ+xdMokHH3ogzx2Egxu1wce4VL4Pr2OJNuiMNFi36maOso06oN962awhJzy5dZCrRLm2MeehxBCSM6kEkn40t5/MHvmDHRv3wozt9zBnJXL4MJqh3kqNMeKqT3wxG0fxowYjCatO+Dw9dfio/5/D4/vQe42IzFmUG8MGD0FXfJH4fA9b3ZGhmsHV2HF5VgsXTgMxrJQ7Dp+H7UrFoe+gTFKlciDw7uOIi5JDnP78hg3eih6DhyFykWAt/5ReHz3AazzOiheXDVtFC6RH9rq377Ujvmd8eDRffbVCCGE5EQqkYS7TFqBQ4ePwO3ov9AI+wgdUyNWmoS7585DP19FzF25AYf27cGaKb2waMochIuV1f9X4OcgmNpZiUfqyGVujI/vA9jtOAQn6ELt0xO8C41HfGQQXgf64MHta7h8+TIevAtFWdd8vC0fmuam0NXkL6ME6hp8yFUSfHy8oCbc/jEDI1NE+/gjUTwmhBCSs6hEEhZIJLArUgMTu7li1F+LEcsS7ftHZ7FyzwXEJcqgraMPOzs7aMtlyKhO7AKlCuPlzduIl8qQlBCJ22/8UME1LzujhxadB2D13A6YMWkVZPoWKGhmj/aD/say5csweWQvFHJ0gmY6tVuezK1scrHK9H/Xb6OjwxH69iKkMTFiCSGEkJxEdZKwQILqnYYib/AFbDn3Es17D0Xc7W3o3LkTOnToiB4D56DNoMH4iTFYP8WldkfkD7mMdh07olPH7vhoVQsNCn2dBuNUuS0qqD/G3rthmPh3Fyz5awDat2ffx8jZkFtYQu3b2UWMBMVLFIPPyw9I+o+rhc8fPsLsnQ9eXrsmlhBCCMlJlDw6GvD9+ApyE0fkMtEVS4CQT+8QkGSAAk42rIYaiw9v3yAoMgEOeV2Qy9JEGCktkCfi1aPXcCxWBLrpzLdNKyEqCG/8YlHU2UEsAZLio/Hi5UvItMxQML8TtDXY9/T2LTQsc8OKfU9Rwb74HKsFF3tzhPp54dVHf9g5usDB1pQ/IV6+D0ShQnnY1YwcH9+9hkkuFxjK/DFs3D+Ys2QKjPngLE4ai2evfFGoaD5xYFkSpg8ZBKcrD2DEfs7GBw5AS1tbOEOjo1Oj0dHk/0Gjo4kqU3oSzjgy3Dl3CDeeeonHInUN1G/fC0Vs/o+FN36ZHLd2r8Eb+4boXpU3b38r4v1lzDwQhEZHl8DiwQMknTmDkjVqCOcoCadGSZj8PygJE1WmYs3R/x+JmhrU0oS6ujqrOf93LTljSVCxfU8U1okSj7/1OdgIowY0EuYrF42Px91ZsyD7iX5kQggh2UeW1YQf3biBOFqKMZXExEQkrFyJ2h8+4KGGBuLd3FChZk2qCadBNWHy/6CaMFFlWZaEFw8ciF7r1olHJBlfNJP3hvM68L+NG6PbkSPYu3cvJeEUKAmT/wclYaLKsqw5mn8hnlIoUkfycDT++pS5fBl3r15VFBBCCMn2slWf8J+ucHQ0Pixdivj4eLGEEEJIdkZJWIVosih06RLe3L2rKCCEEJKtZVmf8NKBAzGS+oT/E1/CcqSxMXpePghT6hMWqHKfcOHChTF+/HixlKiia9euYfv27Vi/fr1Y8t+6dOmihFkVJCeiJKyCNrMo+fA8TCgJC1Q1CZubm4tHRJVJpVIkJCRAT09PLPm+pKQkoTuIz1zQ+In13wn5f1ESVjGR7Op7kIsLhu1dQ6OjRaqYhMmf41dGRx89ehQtWrSgJEyyDPUJq5iH9vYo3LmzeEQIISQ7oySsQqJYLTiMJWCHvOkvdUkIISR7oSSsQh7Y2qJU3740IIQQQnKILOsTXvnXX6i7YYN4RDj+0pvExMA2KQkJ7PjYhAloM2cOLVuZBvUJk/8H9QkTVZZlSTjIzw8hLMhXfBSmT79+aPDkCc6ZmqL4s2ewtrOjJJwGJWHy/6AkTFRZliVhVfH5zRMkmVjhzvnTCI7is3IVbPKVQ8OK9nj+Lg4li9uLpZkrNjYWd2rXRoVbt7CXfUh0X7lSKKcknBolYfL/oCRMVFmO6hOWRfti2ZaL0NcCQoIDERAQgAB/XxzZsg5udz0g0THClYOb8DGcNw5nncvm5qg+fLh4RAghJKfIUUn4yu5tyN+wOUxNbNB36FhMmjQJfVpVhZZTDUwa0hQaalpoVKcANu64gKxqHuDzgkO7dUNuGhGdOeKjgCePgcdiPH8NxKRYmzvYFwgMU9yWy4CkX9jTOTwYiKJ1vgkhvy/nJGFpBA7d+IQ6pVI2NSdgw5LVaDVwEGwM+MrNgEMRV/jcdkNQXNZssH/dwgJl+/SBmhoNVM8Un+4DjZoCf08CJk8Gxo8Buo8CfMLZSXapdd8NuPFUcXvzPMAzQnjYf4r4zJ6nK3DHWywghJBfl2M++RNCPuFtvCYsddXFElaJ8XTH+c82aFkpn1gCaOubQ03ug49B0WJJ5lFXV0eNvn2Rr2BBsYRkigK1gANHgWPHgCMHgFISYPc1doL9X68H0IL3NbMkfO0K+0P5r4svdr+Xt4B23QD3N2IZIYT8nhyThKPCAhAZn8g/dr+4cfAASjdqC0ONr6USdU2YJKkhJDJOLMk8WlpaaNikCdWCs5KEvdZamuwvn//OWULd8jewbD+wbgZL1FeBBg2Axz8axZ8IuF0Epi4HqhcSywgh5PfkmE9/A1MbGGlr8o9dUQKu3P+IBvVKiccKMmkiorW1YWemL5ZkL563LmHcsEkYmSLGLtwjzFNOTY67bgdT3W/+yt1491nRfypPiMLGZTvgGRoHeVICPnj4QCqcUUHvWK23Z1eALwfariVLtj5A28qKc0nsu+b9wAOmAG2qAWfOACVsFOfSpQUMnwiUL8ASespLOkII+XU5JglrmTmggCQanyLFaUkJ4XjnKYGzbepkGx8dCOg7IreZrliSvZg7F0K7Lq3RiUenptAN90WShgm+nYwhx6fXTyFzKKq4b5dWKGoWiwl/rUBovAwSDW1Ur18J5vqaiPZ9jUVzjyLh6xWOarHOD/TpxxLtAGDQUJZATViyvSNUhAkhRJlyTjuougHa1suP8/c+Ko41TbHywHo4iQOyknk+c4d9udow1syetRwDSxuUKVcKriysNCPxXuaIMX1qf/cPwSafi3Bf13Kl0bhjWziFfsDHYFZvliXBy8MbsYnxuOp2Ee/fPcGps/eRmDXj2X6NoTVQuSrA5xnXqgcM6wac3v9rI6EJISQT5JwkzFTq0AO+F48jnGcKiQasbSyhniLXymWxOHneA73bVBFLsi9ZQhR2bDqJ1v27wcYw9YVISjHhYfD3C2QRgCfXb8DXyAm5zbUgT4zGns2H4RMez/KxDHK5DEnSPyCp8WlIH96yizLDb5uTZaxqHP91ARdCCMlsOSoJS7QtMaJ/UyR+p7omT4xDoy79YKv/dQR1dvX5xR08DzdD7TKOYkn6zm9Zh0EDxrAYi0kztyJv5TLQT3nlAk1Uq1sdue2LoGljV2iq4l/U2ytA145A+/ZAxw7AsqPAiEEsEaf8OdhtOxtWPgx45CuWEUJI5spxy1b+CTJ/2Uo59s2ejPe5m2BC1wpCSWzYJ0wbPQvvgxOgreOMpVvH4/r6mXidqykmtCoj3CchJgxL/p6OfO1Go00pXfTrMguDV85E3vg3GD35GpZvHw69NJXLjPB/LVsZFwE8fs5queKxBqv15ysImBkojgM8ASm7bWcORIUAz9+DvfiAqZ7i/Hext83b14CVE2CsI5b9vrNnz8LTk30vv8DAwABOTk7IkycPrK2taZT9d9CylUSVURJWQZmdhOXyOIzpMRhNJy9BdWdjRZlMipCgUCQmySFR04SFlTGOrpqRKglzZ1fOxX3jhpjQ1uHPSMK/jL0drp9Mfw6wvh3Qox2gnfHJrnLlykIiNTX9ud85f9uGh4cjLCwMz58/F5Jx/fr10bVrV+TLlw+0HeZXlISJKqNL5xxIHhMAv496yJ/LUCxhV2NqGjC3soSNrRVLBqZfWmqjQoPh4/NZiDePbmP72TeoVInV/lKQsBpYbMhnfPINFbpVM5JEJoNOTCy0oqL4tlNiaSbjNUp19XTiN94u/Bo3+r8XftHW1sb06dOxadOmn4rNmzfj4MGDuHDhAjw8PDB37lwEBwejVq1aaNu2LR48eICkpCTx2QkhqoqScA4ki5fC2rUkjHR+/Os3t8uNd6f2YtSwSUIs3ngBncdPQPV8JuwvRwMuhfJCX0sdejZ5UbOqPpat3IvohIz74Nfy/gyrv+eg1tiZKMunFzVsCJw+zX6AzBwAxq4+KjUC+IYaaaPPb9SCnzwB6tQB+A5ZgYFiYcbS09NDzZo1sWrVKty7dw+lS5dGx44dMXnyZISGhor3IoSoImqOVkG0lSGg+TkANj2GQfPlW7FEZMhq7xs2KAZZ/QlOngSaNGHvNJbc+fKk/foB3bsDaZqdeQ12+fLlKFasmFjy+/hb+vXr1xg7dqywZ/XGjRvh4OAgns15qDmaqDKqCROVZLzrMDRfvROPUuAfpHPmAOF8A4Y/CL/WffkSGD0aKFsWrNqq+FkyAe8PLsgS/p49e1CmTBm0bt0aXl5e4llCiCpRoZqwHDGRYfAPDIG2vhmsLU2griaBLCEaHz59XctXx8AUNpZmQvecPCken7x8kCh2RGrpGMLGxhKaqaaepBYfEwFoG0I73fvIEfDZF4YWttD9P+bayBLjEB4vh1ZCJPxCU3zQStRgncsestho6BsbQ/07g2dyek1YIpXCrl1/aN97JJakoa0NTJoE2KfcEStr8b84vt8Sryv9cIFTvn3ismXiQRpOTooLig4dUKt27QyrCac1b948nDhxAnv37kWuXLnE0pyDasJElalEEuYjc68e3IyNe8+xpBXMkqkxSlRtjYmjOyHx7UnkrTsCJfLnFu6rp2+EQhXaYcb4TtAMfoxCZZrD1iWv8GGoraWHInV7YMFfbaEu3DsNeTQmde+Hlgs2o4wN+yD/Riy6NaiL3mtPo3qer4OWfo0MNw5shZ9NZVi/O4jJW92EUnliFB69DcP+6zeRcOMA9Mq3RM1C6a9RTEmYJeG2/aB9nyWw9GhpAZ06ARYWYkHW4h/Qs/fvx0FfX5ioq2N8uXJoVKlS+iOSPTyAQ4fEgzR4E/GECUD//qhVp06mJWHeJD1y5EgEBARg+/bt0NXNnkuyfg8lYaLKVCIJ+z89iz5TTmDxqulwsTNDXIQfZg8bBvuOk9AhtyeaLn6Kq5v+FnZAio8Kxqzhg5Gr3WT0LpmIos3m4s7tvTBhJxNj/NCjWX9M3n8QBU2/fQO9e+iGbm2HosWkZRjYqT60peG4eOYsYgxzo3718tDXSviahJ20cO2MG+zK1EI+Sx18fH4PNx99QOma9VEwlykiP7/Bo09ymMl98PJzEmrVrQ4zfS3Eh37AtAWHMXbaCJh+GcQjg9vGGTgeVAzLxrVGYsBTjFp0ASsXjkj3YoH6hAHLOcthuG6beJRGgQLArVvf9KtmFV6rbNWqlfBBzfGpRXyakLm5uXCcSnKfcErs/hg0COjZU1GbZ8k7I/uE0xMUFCQ0S3fp0gV9+/YVS3MGSsJElalEn/CVgwdRu89A5M9lJoxf0TW2wd/L16FzjW+3itM2MEefvq1x+vApvqkcq2ImITYmBjEswgJ8kGCYC1YG6aU2OcKDAxARFwufT96I9H+DDu064Pj1B7i0bzU6DZ6O0DjFyF7ezH103TxsuvQR1qZauLJ7GYZOW41nLx9jar++OPngE/yfXULfLr2xap8bLh35B+0Hz0Nckgyvb1+DQb6SKRIwEOX9CEv2eWHisObC1B8d64KwDX2Am16/tmdxkOcrLJ08DfWqN0ON+j0wb9kBBEZ9u/+RypHL8OSmO975R4kF/y28a1sk5VG0fqSiowOMGaO0BMzxRTWSEzDn7++PiAjeOP0fLC2BadOAR4+AyZMVNeHvdElkNAsLC8yfPx8LFy4UEjIhRDWoQBKW4bGXFyxsUn+o6pmYwVAn/TWNja1soennz5IekPTpOqqXKS1My6hUpz1sq9SEYbr9vRKUqd0Exe0d0a1vV7y+sA+5ag/GqiULsPKfjSiL97j41Jd9O1Kc37ECB9+bYuWsQdBNDMOOI+7oP2oUunfrgSF96+LfdTsRL2OVmAoNsXrxPKxcuRhJH57BPzYet6/cQp4izuLX5JJwcscOuLbrBhu95CtrTVQoaIzz139+U/gI7+cYM3w1nBt0wMmLR3H+yArkSnqDKXP2IEYld01IQRaPs5sPwzfs5y8YEhzs4Ld1BWKb1kOipTmSeNMz+x1j82agVy/xXspRrlw5Iakl44OfrKysxKM0+P1cXIDp0xUDs6ZOBWxssiz5plS+fHmhxr3se33UhJAspwJJWA15LCwRG516IYaYEH988AoUBsCkFRcZAYmNNbT5+gm5q8P95Su8evUKL57eg/HjA3B7HSLe83vk+OQXCPu89opN/tW0kSu3Hl54+SMpNhT3nr1EqK8X4qRyxEUF4NUTdyyYNAZDhw7FzDUHYaSjjfgkOWzN7YUXUKKuAV01daFv+7mnLzS1vzZjJbHHH7ruieZp9i22zGWF90/f4e3bNFNw0iXHme27UbRTHzStXFAYeKaha4QOrFZeq7QFYhOTIJcn4dWdq5j519/oPWgajl1+LAxYk0cHYMq8rbh/7Tz+GjwGc1ceQkCgH/5dugQDB0/D2dsewgIbgW/uY9Gmkzi+bRP69x6LrYdvI1bckCE6yAe71v2Dgd2HYeio+bj2wFP4vTy/dBI7j57H1DETsWb/LSQlxuDayeMYN2gUevcdj80HrwkXCM8uncCpBw+wdOI8PPOJRmJMGM7s3cUuaEZi4tQNeOYRLHwd79tnsWnPBSwYNwULtl5CtKMDPq+ag+srZuHJxo3AjRtAx45KSWApubq6CoOcOD4K+cCBA9DX/87wLD4S+t49YMoUIL3m6izE+6xHsYvJXbt2ITCT5iwTQn6NSjRHV61bHW47DyImeRceuRQnN87HP6cepJOE5bhwyg2lq1fn26unoqlrDDszCd76/NcCBRLYW1vA67UimfCamu+nWBTKbQV1PQuMmbMaLQrEYuOxuyyhGsIyX3Es3XYIbm5uOLp3M7p0qA39dLY6lEjUYGUorkksCvV9DRjkR35bI7FEITYiClINOWbMYrXo/1zZKA4Pn/qhaqX84rGCpqEl2rZpBHM9Tfg+uoxJ8w6hfMsOGNGnCS5uXI4tZ54D0ljcPXoA555L0XNQD8Q8c8OoMZvgVLEeejQrgaVL1iMwVorYsEDsW7MRXhqOGD6sE16d2oH1R/jrn4D1Mxfis64Lhv89DB1qOmDG6OUIiJMhxMcTG9YeR4POXdGgkgvuHt+Nbec80WXoIIzo3wzXNq/BOfZ95ylVERXy50fbvp2Rx1wTB1Yux9GnMeg7fCDqljbC5FGz8dI/BlH+n/Dvxv0o07o9WlYvqli1iyWOCPaaRpmZKZqiVUSlSpWE/+3s7IQlI7+Lr7RllPp3r0wurFbO15rmf8uEEOVTiSTsUqMDqhi9QvsOfTB16jT2Ad4TW29LMaB9deEb9H50UVjSb/r0aRg1oAt2PtZHr2alhcfKQt5ivnBuOiZPGIkjz3XRuvx3dgaS6MEilwZ2bt6NArXbwfvSGgwfNxGjhvTHHakjaha1Ez70NTR10WXIcNz4dwV8YYXB7StgzOC+mDJ1Cvr0HICXwdL0Xzg1DZQqVQDeHz6LBYC/xzuoO+WDXqqkLcebjxEoX9EFN17o4sGjF2L5d7BabmKMHHopathpXT58AVU69ka9ysVRrHRZjBraGqf2XUCMcF1ji47d66FIkSKoXq4ALPK7okaFoihXpRLMYuIRHi8VnsOxRA10b1cbhUuUxPChbfH05BVESzUwYPZs9GtdHkY6GtA2NIZWbCAiWRLm8peqhgolCyJvLguUadwZS2b2hIOFodC6oG8kg3doNPRNzGFmYAB7JwfoSMJw5YY3hg/vghJF86NGs9Zo6qKGKzffC8/nWLwcapUrAhcnS0UrBclQvDbMV9M6duyYsKgHIUS5VCIJq2kaYNi8NVg+tR+c2Qd1nXZDsX/vMjiZ6kDPrgSmDO4EB3t72Ns7oF63sTi4Yxas9TWgbuSAOVNHwNmBn7NH8QpNsOvwOjgYfi9ZaWHy4uUo62IDQ+sC2H9gL+qVKYiqrQZg77oZMNfVQ++R41HAQgfa5vmxbOYAhIbFonbXsdg0YxjyOeXByIUbMKBpaVgXro4+HRS1IYmWKYaP6QdzbU241qwB7+ePkSB+vpk6u2Jo9/rCFKpk8oQQ3PbXQ70iFpAblMamfU+QmKhIhOmS6MIqtzY8fNMsUCGX4uW9pwiOiodXZAQsHL82dxpb2sAgMBKJvJKtrQ99cYlK/iGsY/C1Rpky0enZWUJHQ1Gipa8HtbhoSKVJuLp7K7q074uJ8zbj5mNPqKf47DYwV2wAwS8sfF+4Y0TPoejebyZOXbwL9tBvyGIjER1uDDMjcYqYRB258lggjK8NzZgamlLyzWS8Fs+7b/gGEIQQ5VKJJMxJ1DWRt1gFdO3ZG03qlPuyWIaWSW707NULvXv3FqJBpRLQFROFmq452nbp9uVc2+Z1YG6gjahgb5w9fRqn08T9F59g4VQcndo2hJG2Gks0ZmjSrita1qkEPS0+olod1es3+bLJvbNrdZRyNBUSRZ4SldC9Z0+WwG2FF80oV0FUL+8i3A8aLKE2qgkDDTVYuJSFi2YAXnkrPuDsnEugYqHUSwa+uX0JBRu2gbG6BGrqOnD/4IxnLzzEs+lRR/1arji+/SSiUwzCCv7wHLPnbEJApBRF7Kzx9uG7Lzv2eb16gYR81iypigU/IfyjD6ISFM8Q7O0Ldatc0I71wZpdz7B4x2ZsWTsDfdtVZRcMwl1SkyfgyPq9qDxgHI4eXoWxwzvDWjfFKHVW65LJ5FDTM4OpZRg8vBWjiflI9CePPsHWSrn9pTkJX7CDzxX29aV9kwlRNpVJwhkpMsATx44cwZE0cZvV4jK7BU6irocOnZshKEgx2Ogb8kQEJ5qiS6OyYgF7jHFZ/LP7oXiUvqIsaZfSfIPhw+Zg27aD2PrPRgz/aw1q9+iO/Db6qNa2OT6e3IKFK7Zj6/pNmPHPRfTo2Qjav1Ct9H9+C3PnrceOzdswffU5NO9WH7oGJnA0DMeuf/dhx5YdmDZnJxL14hEekyYTSzSQ28UKFw4fwe4dB7Bg5go88olGUDCr4UrUoKcTh1P7j+NThCZatyqLhVPnYMvW/Vg2cy7uJTiiXqU84hOpMP4rqs6iFosHvOAXfWChArODeALmA8k+f/7abfInWbJkibD/MiHZQZYt1nHW7Qoev6Lmr5QiI6Nx0D039KwrIzH0PjaOU4dr2ZLfXaxDlhiPD69f4sqNh0hQM0W9JtXhZGMKNTHRRgd/xrmTl+EPPTSqXwP21saQxIdj9z53NO9al5UCHx+5wyPRBrVccwOJ0Thy6CaqNa+JqCfnMW7De4ztWRTujwJQs3kduORSNA1HBfni5InzkOo7oE7dcnh/+yqMilaBUegbvI42Q90KigQqS4jB9XMX8NI7DlXZ1zeO8cKzQAPUr14Aod7vcOTULZRr3AKFbXXh9fIpzl99CIu8JVCrWgkY6mog+M0j3PusK9w/pQzbTziOBW/k4BV0XuHnl6C8yZz3BPAWA145563k/IWKZcHP86ncfKwdf9xAFiNYsOeJWxUH3U26wpQfvp3gF/xx/B3Fg48c5K3sfIEqfnsmizoseC9GmoujzF6sIyX+lm/ZsqWQyNT5wLE/TFxcnDBTYenSpWLJj9FiHUSVZVkSHjl+Ka6FjBSPyLfkKKK9GZuWdhemv2T1ille7mcwfpMXNq/rB51fqD1nhQxLwrzyxJMpr83yxbi6srjHwpvFSxbHWPDribks+Hk+jZsHHwO4nMUAFv+yYK9PXFeWhHemk4SnsOCPcWURwOISCzsW81k0ZFGcxU4WaWY0ZWUS5vjqWXylrwoVKoglf47Zs2ejUaNGlIQzhRxRIQH4+MkftvkKwtwg7RyU/yZPSkBYeDxMzX536d+chZKwKol8gKWDpfDyfJvlSTjwzQNsPReIYYPqQyu7JmFeq93NgtdG17PgNduTLPhg+i0sOrPgg7R57ZXXkEuyaMqiC4sFLCax2MqCiWvLkvDBdJLwEBY8uZdg0Y0F/5YtWTRg8Y/4Pz+XhjKScJs2bYSR0n8a/ndQtmxZSsKZQBoTiJG9uuN1uAEmr1iLqi6/Plbj8bH12PTQFCumthVLyI9kyz7hP5Vcvwg2H3wjfABkNcv8pfHXYNVLwL+Mb7h1mgWfBpu2/5XXPvmeGVdZdGexRyzjn7W81sofw5MwT5q8uZqPu+PneBM1v1Tlrw1f9Iuf+971EX9H8efkA9DnseA9MDzx81o2zwEqsMoon5ceGxsLA4PUc9qJ6pEnhuP0ySuKJXoZj49ewvUh9/ruVbz6HInEuHCcP7QT/+49ifAYxSyL1w+u4d6rDzjJyveeuYY4YZpE+j48v4u7T55j38b1WLV6NW68Ckat9p1QJk86f+RJ8bh6/iKeP7qJzfvOIDo+BjfPHcaaNdvw9nMoEqICcfzUady+fgrXn/6ZYw6yGiVhFSJR08YD7wK4eeeJWEJ+Gk9uU1nw5ab5fgm86ZcPSl/CIuU1Da9o8s2Z+Mqi/DOiGovyLPjjePLkn1UmLNK+M3gCLsKCN0nz/Q9Sr5vyLd7/zJMwT7z8s4x3vR5n0ZzFQhZ83F6WtEF9KyEhQagVmipx/W3yk9S1cfPgdjz344MN4rF2yhS8CGJ/7EkR2PjPbshlkZjQpxsO3nqFT88uoXvXMQiITcQdt13o03MI3J974vT6WRi84MCX5J2aHE+vHcbgodPx2j8QEeFRSJLJhIu0dNtIpTHYuWgqZq7dj7CISGybPRILd19FZNhHDO8zGC8CYxAfn4DEhFjEJ/xg2iX5gpKwitEwLonTN2PAV98iv2ANi9kseMLlNVUePBFOYLGPRTKemP9mwZPiWBa8KZovaMUfz/txe7Box6I1i+Ttinni5a1yQ1m0YcHP92ORHt4EzR/Ha8KzWPDnHMyCJ1/+mcQTP/+6ZVgsFo+zGE/AvLXlhyt9EZUgUdNB4yZlcevee8T7v4LcxAAn3J4g1OMxYmzKQM/3Jp5K86NH++Zo2LwDypp8wN6rvDlHhio9hmP65L8xf8YoRDx4hNjE7131SVGoSXtMnDgRY0b2R6ECxdG/a1vof2dP9aQEE/QaOh6jejbF5w9+cMpfHE3a9cShI9tRMo8j6lUpjyLlm6J2mdRTM0n66JNexUjUNKFlWRtx8VnfJP3H4n29vK82vUt9XkPezCJ5aXL+F5/czZVyO2feMsu7sPg4JZ6g+QAqXiPmKrLgtWQ+yrkxC96vm7wdNZ+qxGvTPFqy4Ek9+XF8TweetHkiTtvM78liDIsqLFgN3ik26xIiX69cKpWm2oSCqK4i5Ssj4OVD3Ll4F3W69oD/PTdcu+6OstUrwP/1M7x+fAXz58zBHBYPQrVgnMj/2LXgYKP4/aprakFD40cf9ZqwszL7+WRgaAAjY3aVqa6DgVOnQOf9OQzp3Ql12/bBw080A+ZXURJWMXwTiFj/C9DWTn8HKZIO3vfrr7iZrussePMxH/mcUVGQBRfG4poYvLmZj6RO7/6FWaS3Vwdfo2UGqxQ/Wwyr6O/sxJTBTp48iQYNGkBHhdbiJt9naOsCJ/WP2P/IH2UKFYZTkg+O3QxG7XL5YWGfG3kqNMfug4dw6NAhzB3XD8WLp7MFaCbgC+08feeHUUu24PixIxhQQR//HuRvtm/x8b9377qLRyQlSsIqRhb5CM2q6vFsLJaQ/8RrqXxu7/fwacdHWZz5jeCDvFI+9hCLEyx4wuV4zfmVGM9ZnGeR8vHJwZ8jvSXN+bVWOWCD/QYE6WX+Sh68P5h/WPMpPuQPoaaDssXtES6zgom+HqpUz49Y6/zIZawFp8ptUVXzLrr0GICRw1nM2QNTkx+9GTKORE0Dsa9voFuXPpg6cw4OnPNCveqlYJfXCV7u+3HsOl+dRoEn4ZUrl8PHx0csIckoCasQuSwBJe1eo1zZomIJ+Sm8eflHs5eSpwXxZPyrwRfw4H3L/DYfx8T7cXniFFcsFZJ/2sekF/z+Kadc8iZv3hS9i8VVlqdtz0AmyfwLr8OHD8PGxkbYjpH8OQpWaYVZY9uC7wNTuHoHzOrbTPgTUtM0xJSVO/BX9+ao2qAtduxcDUcjbVRr0QvNy/ImGFaTtiuC4SM6QOc7+6yXrdsBnarzUYfsT9TQFsNHDoCpDn/2dGjqo/+Y4XAxZ3/4EnU0HTINi6b0R/ly1bBwxzY0LmWHvFXbYu6kvshtnXr0femyxXDW7ZSQkMlXlIRViCTmJbq1cIa2dnKHI/kp/LOFj4xOm1d4OV+Yg69yld7nz3/hXWt3WPAEznfH5AtupN2Gl3+e/OpnCq89H2DBFw/hfcZZ9OuOiYnB4sWLMW7cOGhqUnfHn0Rdxxi5LRWDDfTMrZHH0Uy4zWloG6B8rYZo1bA2zAwUf0xOBUuhYC7F6HdtQytUqJAfd92OYd++fani8LHz0LcvgmJOiq4QdS0DVKzkCkmkDw4fPPDN/c/ff4uyVSoI26dyaupaKFKmCtq1aw5nW8X3J9HQReU6jVHShc/1+8rUzBSJsmh8+vRJLCFcFifh5E8siq+RTM5qwa9QrQrVUH4LH9fEm335KOf2LDqw2MSCNwPzFat+B/+s4ImYf67xEdQzWORlkRLvi+b9wv+Ff2Z1YnGYBV/bowWLrGk1/GL9+vXCutH16tUTS0iOIU/E2ycP4O7uniruP3iW7qjpxOgQ3L+X+r48nnv4pPrU+lVlyhTDhYtuVBtOIctWzDpy7CzuvaYXPqWoqGiceWQLA+tKkIY/wubxGihdquh3147OqTJsxaxfxZecfMeCzwvmeGsxn240EojLHScktFr6tXDBnWVVPvDq/5DZK2bdvHkTXbt2xcGDB1GyJF8K7M9FK2b9eWQyGbbv2oCq1V1x5tQltGreCTY2tuLZnC3LkjD5lre3N6r3uAUTpxYorr8dW5b3EsopCaemtCR8g8VTFnyeMJdeEjZlSfgOS8LJfcS/KTOT8IcPH9CpUyd06dIFgwYNAt9T+k9GSfjPkzIJR0ZE4e7tV+jT+3uT7XMW6hNWAQkhtzGoG1+2iagUPtMjRHHzu/jYFxW+oOejUXv27Inq1aujT58+f3wCJn8+QyMDxMSGIDSUD7QgVBNWIl4Trtb1MmqXlmPNvI7Q1FRceVNNODWl1YT54h8rWPRmwfuEOT5aWp/VhBPFmnDaDRx+U0bXhPnb+unTp+jbt6+QgGfNmgUtrV/fEUcV/ck1Yb4N44cPfEWrnEXG/h5v3LqIOvX4lAAgOjoGL596o11bPngjZ6MkrERCc3Srxdizthdcy3z98KUknJrSkjDH+4T5Os9pGir4h6mqJuGIiAhs27YNixYtwujRozF48GCoqWWfRq8/OQm/e/cWt+9dhL19zusPNTI2hImJsXgEXL92Fw3rtoSlZdYsUqOqKAkrEU/C4/+egX83r0n1hqcknJpSk/B3qFoS5m/jwMBAuLm5YeXKlcIOSXzf3fLly2e7Jug/PQl7+jxHnrxZs6qVKgsLDYenRzBaNG+do7tJKAkrEZ+36ev7Gc7O+cQSBUrCqeWEJFyzZk1MmDABBQsmr4f53/j6z58/f8ajR4++TCFxcHDAwIEDhWlI+vp8KbHsJyuS8ObNm6Gu/p0FK/4PUVERyF84F/LmS2/5tJzn1o37qFOrGaytrMWSnIeSsAqiJJxaTkjCjRs3xt27d3+p2Zi/dfPnzw8XFxdUqlRJ6PvlOyNl94U4MjMJnzhxAu3b84nmmSNXLhusWrcAzi6K1axyurDQMHh9CEXzZq1ybG2YkrAKoiScWk5IwuTnZWYSzmzUHP2t827X0KZlV5iZfV0FLCehKUqEEEKUpnSZojh3nq/hmjNREiaEEKI0ZuamCAz2QXhEztyLmJqjVRA1R6emys3RefLkQffu3cVSkhX4oCk7OzthT+SfwQeunTp1Cn///bdYojxSaQKq1y5LA7PSCAsLx+vnvujYobNYknNQElZBlIRTU8UknJSUhG7duuHJkydiCckqHh4ewgWQre3PzbUNCwuDr68vChf+Pxf4zgBmZsaYNG0U8jnzHUdIsoSERNy+/hQ9uvcRS3IOSsIqiJJwaqqYhIny0MCs7Ofxo+conL8cChTgm2/nLNQnTAghRGn45g7BAVHCdLuciJIwIYQQpXlw/wlq12qQY+cJUxImhBCiFAkJCUiIlSB37pzbPE9JmBBCiFK8fvkOrq6VMmWJ0D8FDcxSQTQwKzVVHR29bt068YhkJT4gi9ecWrduLZb82J07d7Bv3z4sXrxYLFGeuLgYlCjjTFOUmIT4BNxzf4mO7btREhZvExXx4sULnDlzRjwi/E+Ur+drb28vlihf8jxhvkevqSldLGWlkJAQYX1sQ0NDseTHYmNjhZHRVlbK3zLP2toCcxZMQr58OW+KkrqGeqpk+/zpa+RzKo7ChYuIJTkTJWFCfgOtHa08f/IUpaCgQFy9dhHa2lpiSc7A00xoeCAqV3UVjvkOYNevPETP7v1y9DaGHCVhQn4DJWHl+ZOTcE7FpyFt37UBVasrkvCjB89QtFCFHDstKSUamEUIISTLJCXJEBwUTQlYREmYEEJIlrl1wx3VqtYSjwglYUIIIVkiPj4BEeEJyJc3n1hCKAkTQgjJEk+fvESlClWhoaEhlhBKwoQQQjIdnxfs/zkMxYuXEEsIR0mYEEJIpuM7JZV3rUy14DQoCRNCCMl0hQsVE6aWkdQoCZMfio+Ph7+/v3hECCG/Tk1NDQMGDBT+J6nRK0J+qHfv3ihTpgyuXr0qlhBCyK+jBJw+elXID+no6EBbW5v6cQghJBNQEiY/tHr1aty+fRuVKlUSSwghfwx5ErzfeyFB9v+tThwTFoDQ2ETxiGQkSsLkh3gt2NLSUjwihPxJXt88jL4DZiE0/v9IwvJYLBs5FLc/hIsFJCNREib/iS++TgjJXDGB73Dk7APxKBHvn71HEs+d8kRcPXUCnqGxCPP/iE2rF2Ht7pMIi0mAXJaA44f34cmT+1i6eD5O3HqheAwScGzdNAyfuhkRUbG84LuiA97j+KlrOLRzI05ceYUQ71dYu2wRVm05gMDwWHx4dAOnb97Hvs3/4nOUVHwUySiUhMkP/fvvv+jZsye8vb3FEkJIZtDR08PebdsQzrKoNNwH0+cug39UIuJCP2H3ydtA2Gt07D4UQVJdRL66iCHjlyMyNha71s7D9MXboa2rixWjemDnDU/2bBLkLdsMu3cvRW5DTcUX+I4o/zeYOfFvPPKNhWa8NwZ2HY4QuS4Sfe/j7znbAF096GppwtjEFBpqOXvbwcxASZj8EO8T3rlzJ+7duyeWEEIyg5q+LVoW1MVdzyh4vnwLK00p7rz6jI9P7sCqSGW8P3cQxkWqo3Th/ChVuRakzy/A3SscEn0z9JswCYMGDcO4zjXw7P579myaKFq2NHQ0fi5pWuQpgzHDB6NSUUtExMbD1MIBzbqNwrr5/ZGnQAkUzZ0LdVs2h6Xe1035ScagJEx+aM2aNULUq1dPLCGEZA4J6nWsgxsnr+PR01do2acpLrjdxI1L91G9jitefniHN09uYO/evdi77zAM8uSFFmTQ1jGChaGu8Aya2lrC/7/KWM8cGuoSGNgUwdz5I3H/7HZ0alkP3YYuQ0Ri5nZH8Q3++XoEORUlYfJDrq6u6NevH/T09MQSQkhmMclXBXKvU7gZrIvS5SpBw/sM3KMtUMnFHPkdnVCkYjv8s34D1v+zCm3q14aTpaH4yIwR5f8BL4KNsfrf3bhw7gTw8STcPVltW5J5zdC+vr5YuHCBeJTzUBImhBBVIdFGrSK20DXNA10tE1TPrQu70vWgw5JgzS5Dof18L7r07ImeXbtj0+0PMNHL2Pn7OkbGeHp8Fbp3641hoydAza4ySjtYI19xe6ydPRcfwzN+mpJcLkdMXBg8PXlfds4jYS/A/zeBjGRr/I3h4eGBKlWqQFPzxwM8cpK4uDjo6uqiVq1auHDhglhKskLVqlWFNYiXLl0qlvzY1q1bMWTIEERGRoolqi0hJhzhCVqwNNFFpL8n4gzsYKmveO8lxEbg0cMHSNS0QKmShaDLcvCLZ8/gkL8ojLTVEerzDkFJZnDJbSbcX5YYg+dPP6BAycLQ+s6gqoSoILz+GIEiRfKC3yUhJgxP7j9GlJYhypUsDj1tDcSG+eHOIw+UrliBfZ2Mrbvxz5gnz2/C/3MEevfql6m1blVESZj8UM2aNXHz5k0cPnwYjRo1EksJJWHlye5JOLM8v30O1x97iEciiRYq1WuOYk6KpK0MPAm/8XiAAP8glC9bE87OzuKZnIGao8kPtWjRAnXq1EHhwoXFEkLInyguKhJBQUFpIhix8UniPZSrWPECuHHzitA8nZNQTZiQ30A1YeWhmnD2klwTzufsiJvX76FS+TrImzeveDb7o5owIYQQlVC8ZCFcu345R9WGKQkTQghRCQYG+pDKovDZ77NYkv1RczT5oaFDh2Lfvn04d+4cihcvLpYSao5Wnsxujj5y9DASEn683jLJOFFRUcjrYoPcjvbCcXx8Aq5efID+/QYJx9kdJWHyQ02bNhWSzMmTJ4WR0kSBkrDyZHYS3rl7CypULp7jpsqokmtX7qB6lYZwcnISS7Ivao4mP7Rx40ZcvXoV1atXF0sIISRzlXEtjgsX3XJE3zDVhAn5DVQTVp7fqQn3798f8+fPF0t+LDTcH117tKaasJLdunEfFVxrIl++7D1vmJIwIb+BkrDy/GoS3r9/Pzp06PDT+2Lr6urg0fOr0NCgHYOUKSoyGg/vv0XXzj2gppZ9G20pCZMf4gnG3d0dgwYNgrGxsVhKKAkrz68mYe7IkSNITPy5dY89Pr5Cm/aNqCasAm5cu4sqFeshT548Ykn2Q0mY/FDFihVx9+5dHDhwQFg9iyhQElae30nCv4IGZqmOqChWG777Bt269sq2vw8amEV+aMaMGZgyZQqNjCYqhdcdkpKSMiWoXqI6+LzhhKQo+Pn5iSXZDyVh8kN169YVkjA1RRNVsnz5cmhoaGRKXL16RfwqRBVUrVYBJ04eFY+yH2qOJuQ3UHO08vApc8HBweJRxvPyfocmzWtRc7SK4K0Tl87dRb++2XPxDkrC5If4h92nT59QokQJ+lBKgZJw9kV9wqrF/c4DFC9cEYULFxFLshdqjiY/1K1bN1SrVg1ubm5iCSGEZA0+oj00KAYFCxYSS7IfSsLkh/iycbly5YKlpaVYQgghWePRw+eoXq02zRMmORfvj4mOjoaRkZFYQjhqjlaeBw8eIDw8XDzKeC9ePUKDxtWoOVrJ4uLicfPaY/To1kcYMJddURIm5DdQElYePk/4+vXr4lHG69u/G8b9PYySsJI9ZrVgp9xFUKpkabEke6LmaPJD/BpNKpWKR4SohgEDBgiDBjMjKlWqLH4VoiwJCYn47BuKEsVLiCXZFyVh8kNr1qxBq1at4OHhIZYQonw6OjowMzPLlNDU1BS/ClGW509foXLFalBTy/7rd1NzNPkhPjKarx196NAhNGrUSCwl1BytPJm9bOX2nVtgZKwrHpHMlpiQAMc8djC3MBOOpdIknDl5DUMHj8wRXQKUhMkPffz4UagFV65cGdra2mIpoSSsPJmdhGNiYqgLJgvxdQh8/F/D2UWxgf+d2w9QvEhFFMmm84LToiRMyG+gJKw8mZ2ESdby9PTEG48HyOfsKPQFXz7vjr59BkFdPWdsJUl9woQQQlTCk8cvULVKjRyTgDlKwuSHnj17hl27dglNdIQQkln4vODw0DgUKJB9V8dKDyVh8kO9evVC9+7dadlKQkimev3qPcqULp+tF+ZIDyVh8kNDhgxBz549UaFCBbGEEEIyljQxEb7ewShZoqRYknNQEiY/xDdwWL9+PWxsbMQSQgjJWI8fv0CVSjWy9RrR30NJmBBCiFIF+oWjePHi4lHOQkmY/BDfwCE2NlY8IoSQjMV3aBs16q8cu1Y3JWHyQ127dkWePHlw+/ZtsYQQQjKOnp6esF1qTkVJmPwQH6nI5+zRCkKEEJLxKAmTH1q9erWwbRxftpIQQkjGoiRMfsjQ0FBojqa9VQkhJONREiaEEEKUhJIwIYQQoiSUhAkhhBAloSRMCCGEKAklYUIIIURJKAkTQgghSiKRM+LtzCNPwo0LJ/HRP1IskMDSsRCqlS8BHU1+HSBHmL8Xrt64jVhNU9SuVhUWxjp4/+wObj9+r3hIMokmqjVuAQdjLbFAJI3FlTNn4R0eLRYoaJrkRsvGVaEpHieTx4fj1OXHqF23KnTUfn/6TVSgL4Li9eBkb4Igr5e4cOMZCrpWRrF8dkj5tJ5PnsMofyGY6qghwu8jwtTNkNvSSDxL/jRxcXHQ1dVFrVq1cOHCBbGUZIWqVauibNmyWLp0qVhCyJ8rS2rCclkC1iyeiqNX7gqbxD979gQ7l03GwMmbECeTw9P9KJp3GYCrdx7i4dUzaNuxEy69CkRYgI9w//s33TB17Fy4P3rKjp8jIu7b1Zvkcim83r4W7n9i52os3HRAuP38nReS0rnMSIr0xYRpyxEulYklv06eFI8dm/5FtKYmPj8+ha7dJ+Heo7uYMqovNl96zi4thHvB9/kVdO0wCB8jEoUSHR051qzbhcTMv/whhBCiynhNOLPJpDHyLq2qy0++DBJL5PKYwNfyek1byd8GxcqXDWkrX33xnXhGLn97dbd86II9cpl4HO55W96oQme5f0ySWPIjMvm5DRPkvRfsF49ZSVKC/MVtN/mYUcPl85btkvuERssTA1/Ii1VoJfeLl8rDP7+Wz1+2Vv4pNFYeHfpZvnPdQvmg0RPlF+69lfOv6PP4qvyfHUflO1cukI+eMF/+yMNP+N78np6Wj5l3QPgar9wvyu9/DBZuv7v4r7zzoNVyqSxJfufwOnmrlh3krvkqyR/4xwnnuROLJ8i33/okHpE/TWxsLL+EkrOasFhCskqVKlXkI0aMEI8I+bNlWZ+wPDEej+9cw8WLF1lcwPbNW6BrXgyWBlooX7UiDq2chx0Hj+HpW0/YV2iHFWPaI6PWaHp74zBGT9uBEhVrwCjuEfqOWoDwBEUNODbUC1MmzoJpflfYGath2cTReBBhhPqVimH3osk4/ywQwR+fY9G8pQgzyo3ClpEYNWwWQuKScP7AaZRvWE14ngKuNVHKwQhP3C9h58l7qF6/PNQkEjiVqo2N21ejTG4z4X7JqjevjQNb9uH36+GEEEL+dFmXhBOiceHIXmzbsgF9u/fE/fDcWDZvNIy11VC+9SAsGN4Czy4fx7Sxg1GjWUfcfOkvPvL/JJfi/KEzaDFqAjq3aYH+IychX9xz3PcMA2ThmDW4P0yr9UavBmUgD32Dw7f8kN9CG6GRcXDOpYF/d50XnqZoxZbo07U9uvTqBxO9EITGRODmPR8UcjAVznPypDhcOHkELz8GISDAHzK5BFaOzjDVS9N/zRjkyoeEJ3cRKqU2aUIIyamyLAmr6Zth1NxV+HfbLpzZvQAv7l2HTFODnYnHsR1H4FihIeatXI89ew5g7aiGmD1rFYQGv/+XXI7g8FgYmxoKh2rqWjBmdezAkGgg0h92pavjrtspRCQkIcrfE54xUfjo8Q7v3r1DlK4Tape3F/p29cyNoc6q5hKJGiRq7GVLjIDP+yCoi6OvEuLjIFfXx8jpy7Fj60Lc3fYvvGMUfcDp0jKEoTwGkXFUFyaEkJwqS0ZHy5Ni0a1dQ3ScfRCNCpqzGmgi/pnYF3e0auGfqZ0wf2B7GDQYj4FNS4NVjPHyyl78vfU9dm+ZDB2W4yK87qBj+5XYcnEbrHT/67pBjvMbJ2JPaGlsHNOGHctwZPFY3NCojjlDmiAu+B369J+Ev2ePQ9fes3Hu0k4cn/0Xwop2xogGFqhTZyRWHtuFYjb6eHH9OJ7FF0ShmMuYf0sXW+d2hyzCBx37j8e81SuwpGtfDNmxB4VN1bCR/TxhZQZhVKsyiAt4jrbdF2DzoU2w1mUXGvIoDKzdEf3YBUYpK23FtxnniSYNp2Dnha0wTvMj3blzBxcvnoO6hrpYkrPFx8WjQ4fOcHFxEUuUj0ZHKw+NjibZiXKSMBPh8wQdOo7GiNVbUcbQD6PGzERQTAJkMnUY6Fth8NQZqFHMTnHf/ysJs8f7vsSEUVPwLiIaWuracG05EGObOqBcs0k4d2UfdAOeof/ItZi5djG83NZj3tZzUFNTh5qxNeYvWwa470gnCW/AzWUjoNZsGrqUtUH4p4cYPWoW/KPioGNgjoZdh6JnU1dWc+bf0rdJONrjIgaseo9tS/p+0/e9c+dO5C9iA3Pzr03dOdnTJy9gZuQofPiqCkrCykNJmGQnWTRPWAYfby8YWznAQDu5didDgJcnYGQNKxM9JMZF4dMnH8RK1eHg5AAjXbHGyMgSY+H9KRh2TvbQ+K8czESH+iM8SRd2Fl/n4SbERuCDpw90ja1gb2MOiSweHp4BcMzDnlMiR4C3L3QtbNj3J0Gwnw/8Q+OQyzE3TPR1EBcZwi4Q1JDL2kSoxXv7BsDa1g4hL05j8YkYLJjQRkikcVFh8PT0hYGlLWwtTVPME5bh80dvmNo7QEdDUXh62WSEVR6Ejq62wnFKlIRToyRMUqIkTLKTrEnCGUmeiL0bluGlb+pFOdRZrbVPn16wNfyavDMbH4i1Zv4i1Oo7CoUs9cTS/5YY4YnJS05i5tRB0ExbDWYoCadGSZikREmYZCc/Ua9UMRIJLG3t4ejomCpy57KDlnrW/jgSdR10690DWrHxYsnPiY1KwoCBXdJNwIQQQnKOP68mnI3wlz4uNha6eqlr0VQTTo1qwiQlqgmT7OTPqwlnI/Hx8Vi6YIGQiAkhhOQ8lISViNeEdS9exH03N7GEEEJITkJJWMmKS6X4sGQJYmNixBJCCCE5BSVhJeMTtsrduIHH1K9ICCE5DiVhFeCSlIT3c+dCJqMlLAkhJCfJ0NHR18+dg/v58xm2+1F2J5VKkXfPHrT29cUniQTvjx5FjaZNaXR0GjQ6mqREo6NJdpKhSdht/HhUmz8fOuIx+TWby5RBh6tXcfjwYUrCKVASJilREibZCTVHq5Cqjx/jCkvAhBBCcgZKwiokr1QKvxUrEB0VJZYQQgjJzigJqxBhpLS7O24cO6YoIIQQkq1RElYxhVmYnzoFCY2UJoSQbI+SsIrhI8srsZBJpcIxIYSQ7IuSsIrh62YdtLKCmpaWooAQQki2RUlYxdwyN0f+Xr1AW1sRQkj2R0lYhURJJPBv2xb5ChUSSwghhGRnlIRVyF1WCy4zeDDU1fk4aUIIIdldhq6YdXjiRBguWgTqzfx5uRMT4cR+BYns9rYBA9BrzRrs2rWLVsxKgVbMIinRilkkO8nQJBwbGytsVE9+Dv8gf968OWq7u+OcsTHy378Px3z5aO3oNCgJk5QoCZPsJEOTMPk1/KLlTu3aKH/rFk6NHo3WixYJ5ZSEU6MkTFKiJEyyE+oTVgE3LSxQYdAg8YgQQkhOQUlYycJY+HTqBFsnJ0UB+f8lSYHoKICvwc0jJhaQpWjwYbVYJCWvSMbKf6YtSJakeM64hPTvz88n0AIrhJBfQ0lYyc5bWaHS4MFQU6NfRYa5cwBwZBc1ruWAciyq1QHGLQNiWZKUswQ8fjjw0IclzkTgwBYgkC+R8gORfuwxA4DyrkD9psD+S+x5UmRi/jzrpwELj4sFhBDyc+iTX4k0NDTQZsgQ5HNxEUtIhqneG3j6HHjxArh2kiXai8AZdluiAyz7ByjrAEhZQj58BIhntdjvYsn2ALt/YnGWuNnzbZ0NLFoA+IuJOyYCWDwJmLtRcUwIIb+AkrASaWpqokadOpBI+IrRJNPoGrOasTkQyhKnPB4YyWq19z4BS6YAJy8DTTsBPpHindNiv5vGfYBpLDTZ28UqF4Q5eIli4n7vBSSwi6jerIZMCCG/KNsn4cToQNx0f4p7F/Zj6tSpX2PmCnwIjsaTazcRHPejmlD28uLYbtSu0BhVhGiE8qVqo1L7GWB1wjRkOPbPXLiWqf/lvi07jMCRa6+ELlF5XCjG9Z+OF/7RkMaE4eTJ24j/mb7VrPLmOjB9GtgvW5F0L0mBJqw2y34ufGKJMyYBGPw3UK8KsIfVYm0NFI9LD0+8xqwGfWQr0J09Vz2WtO0MFeeKFgH+ZrVuYz3FMSGE/IJsnoTlOLVlMyIMrGFoYgknJych9KRBOHX+PquBqsPMMBybd11MNW4nOyvcrCMu3D6J6yyuXNqJxuUKoX/v9mAp5hvShHi0mjhHuC+PjXN7YOfMlfgUmQiJjinm/zMVha31EePvgSO770ClLmV47dfJkYUTkJ8lShv2C37tLZ4UabOfWlMD0GcJVO2/WiPYeVNLoE5twP0I8PyzWMzKqSWDEPKbsnUSTgx5g2Ov1FCnsBUKlKmBnj17onvn1oj2C8fI2ZPgaKYDu8KVEP74DF4HxYqPyinkuHvqMLzNyqJtrfxi2Y9IYO7ghFzq8QiPSYI8PgJLpq/F++AwbFj2Dx49OYcZc/ciTqoiVzMOxVittSfYLx0YOAz4qxnwD6vJ/j+qNwL6s+dqw557+3mxkBBCfl+2TsLPL56AbfkqYHWdLzxuHsYzzWJoVdFZ2LtXTcsQZfLp4eKtt4o75BCJkQHYffghunVvAj2N79fkXt64gl07DrI4gGWzVyGpVBU4W2gLI4JfPnmDyHg1tOjYCvldyqNPj7rQUlfRWiGfqiT8xtPgTSCy5OlK6ZECs4cCJ5+Ix+y+AUGAkZF4TAghvy8bJ2EZbt1/jrx57MRjLgHbNh5Auz5dofMlWajBwcECd5894x+vOcbbWxcRZlIEpZ3NhWO5LAkRYWEIDWERGvWleT4+JhphYeEsIpAolyBRGoWoVH3oarC0toSerhHsbM3+u1U3q7y+CkyeCExkMW4UMJXVggf1Ek+K1NTZn0k8MGMx4MeTdHrYJVyr1sDK8ex5/gZGsZrwdZaYB9QVzxNCyO/L1kk4OCgwVeUnKew9rn0wQt3itmKJgp6eIeJDo3NOEpbLcOmsO6o1rvmlFhwX7oOpQ0eie5fB6Nt7MQITFFm4ZN1GGDSklxBjpk1AdaPP2HP+nXBOZblUAP4eBBQuBBQsCJSrDhw4DlTKy/4etIChfwEFrFh+1QOWrAJqlVCMfP6eQjUUg7dKsuer2x7YtxKw1BdPiup3AZqVFQ9+3dWrV7Fv375fjnPnzuHVq1eIiIgArUBLyJ8nG68dLceOGYMRVW00BtTIJ5T43NqBwTvDcWTVYOE42c39y3AkuCAWDGgglihXZq8dLU+KwNB2w9F75RqUstMVS9OS4dDKGXidqykmtCrzpWzPrEnwLtgFoxtbo1+XWRi8cibyxr/BqIlXsHzHSOhnwmVd5q8dnQhcuQSEpTMuwNoFqFBYPPgqo9eOrly5MrS1tWH0C83c/K0bFRUlBP9+qlSpgtatWwuvE5/+ll3R2tEkO8nGNWEJKlcvj2e3X4rHgMfjF3B0SbthvhQfPvijQpki4nH2J4vwx+cQCzhYpjcmOrUX1y5h2797hVi7aAm234pHy5qsRpmCmpY2In0f4+DxW0hIyvhrOv1EKQxiWYLMrOtFuRS4cw04f/7beMBq/el82QcPHgj/+/v7w9s7zajrtJL+e9w4T8DLly/HkSNHfjqOHj2K06dP4+zZs9i0aROsrKwwdOhQ1K1bF5cvX6aaMSF/gGychAGnCg0Br1uISFR8GFXpNxNLhtYUbidLjArC4yB9VCuWsu84e5NomaDD4OYw0vxRB64ERSvXRdUClkIti4e5c3ls2zsH+cx1INHUQ+uuTWFnpAV92wKYOLs7JNJ4JGXgXC8tXz/YDJ6A2l0Go2SjRkDJkmCZ56eS2i+R6AJjZwIrV34bg5rxlyKVJ0+eoGFD9rfFPH/+HC1atEBMzHeWvrx9WzFNis9X/vw5wy8ktLS0YGJiItQM+fz3u3fvon379hgwYAAGDx6MoKAg8Z6EEFWUrZOwRNsKvRvmx6GritqwRE0d6mlGDj2/eg4l6rWGhY66WJL9qelbom2bKsLCT98nQf7SldFvQPcv0a5FVZgbaCtOa+iiQYtasDLQYq+rBopXromurWtA90d9q79A09cfNj1HQO+4GyTRMZDwxMuSH9q1A7ZvF++lHLz/lvfBJrt//z78/PzEozSCg8GqysCMGbzNGeDbVfr6iicznp6eHgYOHCjUkMPCwtCmTRu8efNGPEsIUTXZOglzJRu2R91CFuLRt2yL1UKbWmmbqImyGR06AY2X6UwbS0gAli0DwsPFgqxna2srrPudzMzMDIaG4gpaP/LhA6txjwWqVFEk48BA8UTGy5Mnj9BEXaNGDTRu3FiovRNCVA9t6q+Ccvqm/hKpFHadBkH79n2xJA1dXaBXL7AXSCzIWgnx8ZjCauMrWY2WX94trlQJrWvXTn8N8LfsQmL3bvEgBX5f3kw9YQLQpw9qscfzPuFixYqJd8gYSUlJmDNnjjCSmteO7e3txTN/LhqYRbKTbF8TJn+oH10b8towS4TCfZQQvB92Xu/eCJk8GR4s2vAEzL+vdO4rxPfwn4Hvbfyj+/yf1NXVMX78eGGwFh+0FR0dLZ4hhKgCqgmroJxeE+YslqyD0bIN4lEaRYvyjlnA9A94fU6eBJo0EQ9EuXIpavJ9+wIODkIRn+qUGTXhZKGhoWjatKnQRzxixAix9M9ENWGSnVBN+A8SHeKLvevWoWu73mjfbSx2HLiKqASV2jbhO+T4+PI1fEJ/fn3u8A4tIC2Yzj7LfP7r8OF/RgJOy9YWYDVnXLumGKglJuCsYMper0WLFmHx4sXwzcSBYYSQX0NJ+A8RH/oJE/rPRJhpQcxdNhdLpveDr/tJzFl5GomqvgVUUjwOrdiB9wE/n4QT7Wzgt2UpYpvUhVxPl/2lsj/V0qUV/as9eoj3+gOYmSlqvjz5ursD06bxUVPiyaxVvnx5NGjQAAsXLhRLCCHKRs3RKujb5mg5Ti6bhYfG9TCpZ3mxjCdmb/yz4zza9egEGwNNBHi+xZkTF/AxWgtNWzRA8fy5oBYXgnV7bqJhZSccP3oR5gVc0ax2Ubi7nYH72wg0bNUMxZ0tEeb5EieehKGwfjjO3niDCg0ao1qZvNBQkyAhJgJ3r17HtVvPoWFuh+YtG8HZwRQed6/BQ2qETw9uwSB/JbSpXQgez57B7cxlBCVqoVKdOqjumh9ed89h9Oi1sC5dFWMnDUQeUwme33XHmUv3YGxXGE2bVYOtuR78n97C3UBdRL9yR5xDaXRpUhZ8iW+Ph09hrmuHUnWz73rNmd0cnezjx4/C6lx8PrGd3Z85N56ao0l2otSacGJ8NF48uovrN+4hKDK5liTH2+f3hbmYQrBzwVFfa1A+7198PXf1NnyDI8Uz6ZMnxsEvKEQ8+lZk0Ce8+PidOZ4/TQ4fH2/ExUfh/vXk700Rj954ITE2HJ8C/58pNfG4+cATNWqmXtVL29Qew4b2gI2hFgLf3MXIYYuRYJobpV3MsGziJBy66QEkROLYli3YcuAB8hXJjxu7N2Dc2DXwSTBAXtMETJiyCiFxSYj098S6eUtx8mEgSpXIgz2LF2DneT6/Wood8+fhyP0glKpUFnbq/hjSfxFCEuTwff0U86b/A71cznCyNcaLi4cxY/FR5C5WEqULWGLtpGm4/DIQJta5YMdqhIVKFoGxrgRn/12LeduuoUDJEtCJeomhQxfCMzQeoR7PsXjeWsRa5Ea+XOZftumNVldHlM5/r+5F/hvfT5snsDNnzoglhBBlUloSDnx/D4M69cTcJSvxz+pl6N2hF9wefWJnZFg2ZTBmLFmN9evXY/2aZejatgfcHvKlAeU4tGoyhkxeqDj3z2r06dobtz5+P8E9ObEOszd9f23f11d2YsqGk+LR74n2e47NOy8iITYEB7aw74t/byxG9+2KuXsus+86Hv+u/hfhib+5RYRcirgwOUyTF8pIx7WDp1CkZU/07twYTVq1xISBDbF3x1nE8S+ZYITOgzuhUaMGaFqzMOSWhdG1fUO06dgCRpERLAknCs9h4VAKQ9j9GjZrir9HtMC1QxcRI5Wgbrd+mD62C6pUKIlK1StAJ8QLoTGKvujcRauhfYs6KFfUEXbFqmDBsrFoWLsCSpdzRX4HdbzxC4e5Q17ksbJC6cquMNWOwcnTzzH67+Fo1rg2ug4ajGqmwbhwi10wMJYFSqFbuwaoUjoP9ZVkko4dO+LEiROQ/XALR0JIVlDK55wsMQoLJ89HraHTseXfrdi+cxsWT2yH1QtWCLUyDR1zTFi8ATt27GCxDatndcOKeUsQLGQUoOXweYpz7HGzepbG5h2XhPK0ZFGfsWPfKdw6dwxXH3tBLkvAg4tHMHfxctx6+enLdn3JfJ5ew46j18H3pY8I8sT2VUuwed8ZRMRK2Vk5rpzcj4cvX2Pj2uXYe+4OEpL495OEE3tOoHTdWjAyyY25m/j3vAPr5o+CjUsdLBzeAVq6VmhSFNh88pnwdX6ZRAcmuTRYrT/t0ogyBPj4ITZRipeBgXAs4vhlhUXbvM7Q9QyGsOugjgnMjBSLS2hqaMDIzFi4LZGoQZ39rMkdEqYujjASVw4ztrKEWngQ+xklCHx5D52btkXXAdOweQ+72Ejxwplap5iryy5CFg4bhroN+2PZmt3wDPh2OowsOgRhQaawt1bsQiRR10TBorngHxwmHFuZWVHyzWSurq549+4dQkK+30JECMkaSvm8iwt4iZdxudG8WiGhzxEsGeSr0Az7t82FWdrlI9m5PMWrI7+mDx58VHxohHz2xNu3b/H29Qtccf+ASpWLC+XfUNOAvq42NHX0oKMlx7bZwzFp+1UYaSVh8aie2HLuqXhHObwen8fQaZtQ3LU4Yrwfo1/vYfgYqw6/J24YNnoxwuOlOL1vHf4avwBRiRIcnD8S8/bdR2KkH269ioJrgRTbI8risXbGIjQdOha5jRWLQ5ao1xCXtm9GTJrE/3M0UKdSMZzYfylVAozy88D4obPwyjcG+c3N4f3Kh/0kCoGfPiLa3hTav7AaZ/RnlrT5FQgTGRQMiZEVNGO9MXupG2b+uw2Hdi/H5FHtoJmU4s8muc1YHo9dS9fDqd0wXLywDfPnjEAxu9SrSPFkr6ZvCmOzUHwOUlxQyGWJePfSF5Ym4oVB2oWaSYaztraGgYEBPn3iLU+EEGVSShKODPRGsJEBtFJ+lqupQyvFUoCpaGjCTk8b4RGKvuGT/8wQFqgfMGgI9j8IQGH79Ld/U9OzRP2qJVGwbE2UsknErjtR2LJ6PgYPHYUVs4fi6L7j4JXZoDd3MGzyJoyeuwDFWeK4e+E4NPNVRqUyxVC+eh3IPK/h9ttAlm8kaPvXFIxgtb0ZIzrizZ3nCP30EoFyQxjrfs12YR/u4byvKdrVdBZL2PdilAuWcR/gGapo+v1Vrq06wOLTVcyYvxVXrt7B5bNnMfnvFSjUqDWKOhiiWsv6eHhoM/YcvYzLbm5YsPoEWneqC91f+A173b+MDVuP49rFi1i07hRqdqwLPR1dmGrGwv2mO65duoLlS3YgRCMOUXG8dSAFiTpMzfXx9vEj3Lx+G7vWb8W1l4EIC2e/M/a6aanH4e41d4TE6aFenfxYuvAfXLxyG4e2bsEFPwPU5Hv9kizBd2ziy2zSVCVClE8pSdjQIhfMIqMhbm6kkBSPhzfvIzK9ea9SKQJZ7dPK3EA47MpqrHwPVx4HF/bErLmb+I6wP5QQHYY4QzNWCxabWy1s8DnYCwlyGbw/foSJNvv6b/iHUhK8Xr/CqwdXsWP7duzYtR/qVnlgIJGzXKILOwtFwtfQ1hKScsjnTwiQqX+pEHI3z5+Gc836MBa/loI2dA3ZzxERJx5D2ATg4cNH4tGPaehbYOzCiahTzBwXT7vh7NU3aDFwCIb1rAFNNQmsC1fEwjn9EPDYHW6336LnhEloXz0/oGWAug3KIXlYk61LYZQpZK040NBFtTrlvrwmTiUqw8UgCqfPPkJL9txtqjlDomOJactGI+jJLVy754k6Xfvhr4GNII1LgHW+gnAtmjzCVgOthg5HOdMonDh5E+ZFqmLu7BHIw7e1VdNGy8HtEfXhET4ExaFJ38Ho18AFl0+dhU+iDRYtHy/szGScOz/Kl8yteDqSafhew/r6+qk2oSCEKIdSkrCOdUG4qH/AmTsekPE2Sha+L29g4vx1LAmnGSzCzvm8voXXsTYolttELEymBn1Wow4N9sf3trFNXs9Xx8QaxoGf4BXKkyB7To/XyJOrELQkaihRtz1WLp2ME2uXwz8GsMubF0XrdMT6TZuxeeNadGlVG7lsFc2laRmaWsA0Za6Vx+L+zY9oUKNMmoZVKRJjtGBh9HWUL/8QnD1/DRITf652rG1kjhpNmmL63MkswQ0Vpv9o8zk8HPs5HAqXxPApYzFnymBULJkXGuyURNcco8Z3ZBcRirsVrloPbesWEG5LtI3Qn9XobfQVG8CraxugTrtOmDN/FGq6uii6Chj7giUxdtrf+HtMN5QsYI8WPXqgrJMR8leshY4NCn/5OXVNbdBl8CDMmTsKDaoWRYlq9dGpKe8qkCB38QqYNmc8yuU1ZV9HH5UaNGW1+qkY1q858tgqmq1tS1VDl5ZlhNskc/H3Bd+eMioq6o8Lvh42IdmFUpKwmqYRxk4fiV3ThqFnrz7o26cX+g5fgV5jRsPWQJPVskKwZOIw9OvXD3369kGfsesxYMwgmIr7355YO004J5wftgR9B/eFTnImSMOmQCE8PrcTJx5FYXjPchjQqzv69u2NEQsPoVff1lBnrwD/QDK0L4kxLewwY/VpVGvTB7qv96F7917o2bMndl56C1P99EcmmzkWhFFiECLEQWOymAi8jJbBKVfqCwZ5XBBi9BzhaKJIeMkeeObCjdvK3+FGU9eAXWiYUo9sDtKrVy+hWfpPi1u3bok/ASF/PqUu1hEXHYpnDx4hJE4NxcqWha0pHzErx4sHN+EVIM7/1TGGa+kSMDfSEw49Xz3Ey4/+wm2WOuBcrAScc31/q0K5NA737tyFqWMRONubwOftMzz3CkHhEmWQy8IQEf4e+BChhZIu9pAnROD2Qy+4li/KkmkYHt29j1g9C5QrURS6Wmp48/QhTPIUgxW7UIgJ/oR3gWoont8Ca2bMRPHOI1DFxQKyxFg8evEOhYsUgY7G12scr6vb8c9LB8zuX0Ms4dvMeqNa92soX1CKLYvbQkecC0trR6f29MkLmBk5Cos0KBVvsLjHgv9aS7NIfT3135Lfaelc6WTVYh0cn5rUsmVL+Pj4wMLi++8dVTZz5kxhlDchf7pssWKWXBqPi6eP4YN/mvnCGmZo3aEZTHW+M+Arg3x+dhH/XonC2EHNhBWeviGLxZLJi9B63Dg4Gn3dSp8n4eo9bsHAzBlLBiWgdg3FaliUhFNTmSS8hsVVFjwZ12ExkMWvOMSiMIuCwlEqWZmE4+PjUb9+fUydOhU1a9YUSwkhypChzdE8n/Or7CyPpEQE+38Wklqq8PFDvDQp/cdkYFgVqoJqJS0QnZCY7vmY0ACUbdsJ9voa35zjNE1KYvX2J1+OSSZxZ5G8j34AC375GcTiIQsfFnNYnGbBfw186vkNFrNZ8G2NeRl//GYW21l8rwfhGgu+9gt/nlcs+HNeZMHHQPFNofawiGehRLxfNSYmBrlz0yA4QpQtQ2vCew5ewcV7YexZM7fmmV3Excbj/idn6JoVR0LYcyzoE4IG9apSTTiNDKsJf2Bxk0VLFqNZLGZxjgVvnNjGojaLtyyqsODNzvx2NRYHWexiwR+zlQXXlQVPxmlbPkax0GXBdy/k+yTwx/NkzHcPnM6CP3c/FmmasrOyJuzu7o7+/fvjxo0b0NNTdPMQQpQjQ5PwzKVuOPysGtTUaZ3fXyeHo/xf7F7dGfv376cknEKGJWE+qJYnW94czNepsGTBl8fmFcKxLPhsK15L5Tso5mLRikUpFt1Z8AQ6hcW/LHji7c1ik3g7pWEseJLlX2MWC14z5tPF+WN3sGjAogSLNLIyCY8bN05okl62bJlYQghRFqWMjibpkcAjqhwuXuFVMPJb+CqZa1n0YtGHBW86/jotG+BTyQqx4DXbeiwOs+C7CvJtfSuxWMmCJ87mLHhyTVlb5ce8xsyTN59OzqeLp03AKfFLW97dupFFURa8Bs1XLX3MQokzbKRSKU6ePInGjRuLJYQQZaIkrELUDApi67EAxMamzBzkp/AB83yw1GAWW1jwWmpfFjzXBLNIxgdGVWbBZ5DxKck8UfIkycfENWMxjwWfRs0H6if3qvBpzDyBd2PBE3RTFh1ZpIevJ8Mfx99ZvA+5Pgu+YVELFg9Y8AsE/jXPs1BC3zBvZTE2Nka1arydnBCibJSEVYhEoo5XwYVx+Ubymtbkp/BaJx9AdVu8nYwPpuKDolawSC7nNVjeJ8zxZmbec8ITLE/YvA+YD6jiTcnjxP+5VSzsWfC8xRc448m0HAve18tvJwf/tfFma/44/pxjWLxhwQdqObLgeC2YN1HzZmneb3yKxdedOjNVZGQkFixYIDRH86UrCSHKR0lYxajrO+PaMz6y50dtnSQVvgHTWcXNdPFmZ54kn2dg8IQ7nEX7FMGbwPk6Eundn/c9p6z58mTMa8P8goDVrGsG1IS6POXSaxmLD/1Yu3YtrKys0KhRI7GUEKJsNDBLBYV9OIR/ZxnAzu7PXEgho/3nwCzeT1uRBZ9mlB7eRMwX18i8HPffeNLlU52+3d1REKkXiahLUbAtl2I3rgzEV5nq3r079u7di1Kl+GgzQogqoJqwipEnxUMSehra2jTN66eZseAjnb+HJ2DezMxrnj8bfCAVn4LEF9jgo6R58NvJ5/lI57/F23yQccpz6cUJFslN0sn4u4+PzJ4NdCvVDUG6fNJyxuN7B/ME/Ndff6FkyZJiKSFEFVASVjEasY/Rqi6fH5NhDRTZHx9ExZuC06vp8hHOvL+XT4flf+0/E/yl5yOoeUPEOha8z5aPlVvCgp/n/bx8KhIfeMWP+a+L3z/lc6QXKeVjwUdi8+dgyTxcK81qbxmEJ+AePXqgQ4cOwlrRyRuaEEJUQ9qPBqJEsqQYVHL2RJFCtLfuL+PzdvlcX56Qk/FBWNNYtBOOfh5fDYsnVp7A27Lgj+dN2k4seILm/ct8hHQycxZ+LL7T1PwFf7fx2jAfRMYHZ01gIe4qmdF4L9P169eF/t+6deti4sSJ0Pjeft2EEKWhJKxC1CLvoVurIlBXV2bn5R+KD0PgNUs+epkPxDrKgs/JHc/i63LdP4fXTvncYf7u4DXWzyz44Co+DYon4U4seJJOiSdXvvzl9/CxdryJmw/c4sk3c7p+BbGxsZg7d65QA+ZN0JMmTaLR0ISoqAxNwhIkQSINZxFG8VMRzqq/ir2E5ez/innfolRJPpGV/Bb+18xXp+JzcvmcX15z/Z2/cL6+NE+aPOGGsODTkfg0Jy/xOD28NuyhuJku/n3wvmmefDOhRZjvsevv74/169cL/b5Xr17F4cOHhe0+6aKOENWVoaOjHz1+CY+P/pBIMjS3Z1shoaFYsE8XhrnqITHwPPbMdUKhgs60dnQaWb6LEl/og6+sxXfK44Ov+GpavGl7Pws+Z5i36vLBVmJ/roDXcvljeML+DTVq1MCECRNQoABfKeTn8Hm/AQEB+PjxIy5cuIDnz5/D3t5eWBe6YcOG0NT81b0WCSFZLUOTMPk1yVsZmjg2QxXrXVg+p6dQTkk4tSxPwnxO72UWfKtC3hTNa8FSFkNZJG88xOcJv2fBa90cbwr/i8Vvzs7r1q2bkEx/pd+WJ2G+B7WdnZ2QdCtUqIB8+fJR8iXkD0JJWImSk7ChkSl2z1HUgjlKwqlleRLmK23xxDuExc/kRJ6oL7DoIhz9Ft6Pm5io6Jr4FVpaWkJ/L416JuTPRO3GSiaTRqNpuQjkd+E7CRCVwN8VfJ3o7/X/phXDoo3i5u/S1dWFkZHRLwevCVMCJuTPRUlYyXQTH6Nr69I0eEbV8AVArBQ3/xMfQU2LxBFCfgMlYSWrV14HzvmSOxoJIYTkJJSElYgvpj9p4l9QU6NfAyGE5ET06a9EfFCNhTmfYEoIISQnoiRMCCGEKAklYUIIIURJKAkTQgghSkJJmBBCCFESSsKEEEKIktCylSrozp07uHDxHDRoAQ9BXHw8OnboDBcXF7GEEEKyB0rChBBCiJJQczQhhBCiJJSECSGEECWhJEwIIYQoCSVhQgghREkoCRNCCCFKQkmYEEIIURJKwoQQQoiSUBImhBBClISSMCGEEKIklIQJIYQQJaEkTAghhCgF8D9XnWns+qsE8wAAAABJRU5ErkJggg==;" vertex="1" parent="1">
          <mxGeometry x="-710" y="698.5" width="481" height="353" as="geometry" />
        </mxCell>
        <mxCell id="oB-aT5vTAcFPeE-sXGdO-103" value="" style="shape=image;verticalLabelPosition=bottom;labelBackgroundColor=default;verticalAlign=top;aspect=fixed;imageAspect=0;image=data:image/png,iVBORw0KGgoAAAANSUhEUgAAAd4AAAEoCAYAAAD2VZDHAAAAAXNSR0IArs4c6QAAAARnQU1BAACxjwv8YQUAAAAJcEhZcwAADsMAAA7DAcdvqGQAAH8JSURBVHhe7d0FeBRHA4fx9+LugiTBEiS4uxYoXtxKgSKljrTFCpS2UKGlQHF3d3d3h+ASJAmBuPvl7pu9XCBIv9I2hMj89jlyK7cJye7+Z3ZnZ1VaAUmSJEmSsoSB/qskSZIkSVlABq8kSZIkZSEZvJIkSZKUhWTwSpIkSVIWksErSZIkSVlIBq8kSZIkZSEZvJIkSZKUhWTwSpIkSVIWksErSZIkSVlIBq8kSZIkZSEZvJIkSZKUhWTwSpIkSVIWksErSZIkSVlIBq8kSZIkZSEZvJIkSZKUhWTwSpIkSVIWksErSZIkSVlIBq8kSZIkZSEZvFlAo9Ho30lS3qPVanUvSZLSyOB9w5KTkxk2bBgrVqwgLCxMP1WS8o5Lly7xxRdf6L6mpKTop0pS3qUSJVFZFH2DkpKSmDdvHiVKlOD48eMUL16cd999FwcHB/0SkpS7nTx5koiICB4+fEhkZCTvvPMOlSpVwsjISL+EJOUtMnjfMCV4FyxYQPv27UlNTdWV+i9evEiRIkVo3rw59vb2+iUlKXdSglfZD0qVKkVUVBRHjhzhyZMnugCuXr06BgbyxJuUt8jgfcMyBq9COfWsHGhu3brFiRMncHNzo2PHjlhZWenmS1JukzF400VHR3Pw4EEePXpEq1atqFKlCiqVSj9XknK37Be8Wg3Jag0mxpl7GkqdkoLK0AhtqhoDI2MMXrWPi++dKn4bhmJmighIDQbi5zAWBwRlnpak5CTxGzPExERMQ0uq+DkNjQzTPvsXXhW8JiYmuvdKDdjX15edO3fqDkrKMpaWlrp5kpRbvCp4Fcq+oLz27dunOw3drVs3SpcuLWvAUq6X7bbw2Icn6dDne9T68YwSwx6w9bCPCMR/SsPs7way9owfs78fw/XQZP30jLTcObGXA5f9uX92O81r16BKvRbM3XYGjQjk7bPGU7tGZao0aMmSXRfFtCRWzllKRPK/b7FsaGiou+Y7cOBAChYsyPjx41m9ejXh4eH6JSQpd1PO9LRt25YBAwZw4MABfvzxRy5fviwbYUm5WtYFrzqe+/cCuH39GmExCQQ9uMOZ05eIjE8LwZSEKC6du0hodKJuXBEfFcy5s2e4dtsPtagdXj+6jSXrdvBELJOSGMPVy+e5cPkmccmp+k+8SEtwwF0uXb9Hikap2Kto27c/ReyMSIoN58K5s9zyCxZLidpnfDB7LjymWun87N/jw5RtRzm4eBTH9xwnMTmSqyFW7D15iWMrxrFn1Xpik42pVcmOTXuu6b7Tf+Xt7c3nn3+OtbU1U6dO1QWw0iBFyr3iwoIJz7C9K24eXM+yA1d12+SLYsICCY//54GkTgzhz1/mEBX9hFlz1hKf8qq1a7l04jChiWr8rh1jUK8PGPHbQoLiUtCmJnN6xwo+eL8ro/5cQaj4GWIf+3Lqou8rf85/w8zMjK5du9K9e3eOHTvG77//ztmzZ1GrX1UEl6SczXCsoH//RmkibtCj3RAu+N7F3DCOib/9yaGjR9l35gEN63nz5+ihLNm0lyvXrvJEbUfHuu6MGTqarXsPsG/nDpKcy/D40CrW7D1LpXeasPvP71i6ZS+H9u7AJ9yed6oVf+n08aOLu/h00DiOn7nI9cu3qdCsLQdn/IRtuWosGTeCldv3snfbTuzLv4N5wBkuRdvRqHJxKtWrS+y1HXT/bAINun5A7XIlqFu/BuZGhiSEB3AjUEWjeuWxsbVg6/YD1KpTBaO/uDylnE5WGlOln2ZTxpWa7qso17hcXV2pXLmyrhHK5s2bCQgIwMPDQ3dgknITDdvnT+O+UWG83e300+DWoQ0ci3SgccUiopj4vA2/jSGycG2KOf6zbUGdGMqMSWtp0u09Cjo54Ohg+9K+khhyjbXHIqlT0pxfxs2lVqeu2AQdZ/tNSyraBfLbouN079UNza3dbLtpQosG3uzdtBnXEmWwMf3/l4WUbVjZ7p2dnfVT0rxqX1AuwyiFUKXx4enTp9m9e7du28+fP7+8BizlGll6qjnByZ2Zc/+kUj5jotQmlK9WnS7tmxHre4YA66qs2bCa7wd/gJXYj42tnESgVcPLsxiJwaJ0fc6XZl060qLXQN4t50HlunUp6VUMS1U8Rw8cI0W5OPuCnau20nfCfFYvm06z6sWfHci0GsKi48hXpBRtO3fFO58FfvcDsLZ11S8ABcs0YPbMX3i0fzN3Q+N10xLC7jNj+R469miJqaEKI1NrYh74Ehz3VzXuf0c5GFWsWJHevXvj4uLC5MmTWbx4MQkJCfolpJxq5x+/MnrkEBp36sUvs6fz+Zdf8zAyjBmjBlCp8jtsOH5Tt1yk/0X6tG+KV8nyDPx5MVH+ZxkzbRHD+w/DPziAn7/ug3fJ4rzX+1seRr/q0omGS4fW0LRqOXp+P4d4sXto4kJYtHiz2I4i+H1wD7y8y/HlT4uJSdawV0yv0rQ2xhbODB3/PaUdRcE11ohKFQtj61GBCRNG0aRBPTp0aINBbAIqQ0uqFzbjyBV//ffLXHZ2drRu3ZpOnTrp7gRQ6gfKV9kWVMoNsjR4DUVp1kgUtd2qtGLquC8wTwln5o/D2XvtidiRDTEUJVpzKxtMREI+PLuP3Rej6NC5O0M+645G8yzcNLF+TJ+9h8ZtOjN48Mc42aY1VnqeluSUtEZaKgNjrGwsngavgZkDo375lcblCnB+73K++3OTrvQtitRibhKbl60n0cSWkmXKYW+eQnRiCn4+Bxn78zLa9vmCCoXS7sFVSuAqEeK6s9hvgHKfY5kyZejXr5+uBvD999+zcuVKYmNj9UtIOU1s2E2Si7dny5JZfNK9J7/8Oo7EM2u5YNaIvXtXUdROo2vf4H/Ln/afjWbO5NFc3rmWOyovBnfvwNg/v8co7DFetTszZ95cCsadZtPRe2krz0Ad5cdMUUv9be0+vu9YheBYsVZNCsEh4cT6X2BXQH6WL1tC41I2hMfHceRBJF4FLDAwMsXZyZaIsCBiomO4fu4yKjMr7MT+k5oQxtyle+jco5Hue3iULMSBPed0798UJYDbtGlDz549dffBjxo1ips3b8re4KQc7a00rvI7u5uxv8zhwZMo7BzzU7bGOzgEHaV/v08ZM34GISlgYmFF2MOLLJg3m5+nLCdVnYyplS2+h9dz4m4UJqkhLF0wl/E/TyMoLPYV4aei9fstmTa4P59+8TXr9lx42ihLOYBM/OEHdp+8ilplhodHQQoVdiMm7ImIaxNM46/z2YBP+PTTL3li5UVJ62j6devLraCHTBs3goE/TCEiUY06OQ5zjyK4WD47XRYWGqp/l3kyNsJydHTkl19+Yd26dfIacI6kpWBRDyzMzXUt5pXTqI9u3KRCvRo4OjhTr3Z1LMTmFHjnIvNnLWbP0YuYJKeSJPYJU2V5czNiQx+yfN5i1m/aRSrGJMY+f51YER8VgsqhGF7uLhQrV5vS7tb6OWBRqCZ961szuP8HTJi1Dv8nQYRFxOnO4qSmJIhwjqJms26M/20cj0/vJ0KtIcTvBtN++5PaH35NJbe0dZmaWxMX8vi567xKK+WY2Bj9WOZRGmF16NBBVwhV7gOeNGkSV65ckdeApRwpy67xYmSGZ7FieLi54uDuRcXi7lg7FaRr/wGUcXelVv26OFva0rRjZ2qUK0npSlUpL0rUdvm8+GLIF5QQBxBP73J4F3HGzs2b95rVwMzGha4ffkzDKp64ueXX3QaUkW1+L+pWL4Vz4XJ07twcryIeeHkVxaOIJw3rVsPS0opKddryfqsq2NhbcvzAWcpWr0TpKrUp7mSDm3ct+rzfCgsDDY6FS1K2pBfFxP+hmJcXJcTBM+T6cUKNS1K9dAHd91NOg/3600+U9vbG0jrt4PRPrvEqlHX81e0UGa8BKy2fN27cqPuqXP+S14BzhusHNhHr2ZDqhWy4cfoQdxOsaVA5P3MXbsfJRsWudauIc6tKyNnDVO3Yg9LOGrZsP0PLD94n8vwegqyKkXDnFEluVWhdtyQHtm7BrXpb6pTJp/8OaYxESB/evIIwjRl+Vw+z+cBDunSuy8GDV6hX2YV9PnH079sdHl8j0bUiGv9blH+nMabRDxg17De01hY89DnGrVh7GnubiULoaDzrtyC/SSIRSeDqaEvck+ucDrKkRe2S+u+adj138rzJvFP3Hf2Uf3aN90UvXtc1Fv+vkiVLUrRoUU6dOqULYWVavnz5XlpWkrKr3NGBRkooA9t35mxYxpK/Gwu2LqWko6l+/O9ouLxvO9EFKlPXOy1I/78U1s5fRr1uH+Bqkda4RPlVzvjwQ1xLlKDjiBG6af/vPt6M0v8Myim09IPR3/1plAOXj48PFy5cwNPTU9cTlo2NjX6ulB2dXDGNiApdaeHtxKNrR/hu2l6++2UYd/auYPWOm9St6QnF6tLAJULUOGdg6FaeotaG1OncD+eQE0xafomBgzuxYtpErsdZ8m7lYqjc6tKreXn9d0inJfD2eab+OQP7au9iGBBJ38/fY9Wqo/Ts1ZJ9y6axZOdFKjdqz0e923Jj5ST8K/aiWyUXHviIGuXvczEuVpsvB/Ym5fZ+xvy2iCT95likfid++aIL59bMJ6hYE9pU9kibISj349ZfW58j3Y7gUTBt+v+7j/fFfSHjNq+8VwqhL+4HSsAq+4nyNSYmRtf6OTAwkJo1a+p6wpJdUUrZXe4IXm0qT/z9SXiugZUxBTwK6k6fvS6NOon4FBVW5q+6ZvwiDbGxCVhZPevwQvlVbu7VC40oidc+eBDXggXfaPAqlIOPcs+jct1LKf17idp4586dMTV93QKHlNPFBd9n/YadxGa47GnjVIIO7Rth/lfN7V+gjvFjyrLzDP6k3Wtdf9ImRzJ3wSY69uqBg/mzoFOCt1x4OT66/RG/dflNN+1NBm86pd2D8n1u376t6wmrWrVqz82XpOzkrVzjzXQqQ/J5FNY1QHr2cvtHoatQGpa8XugqDJ4L3XTKd6zh68vJpUuVI0faxDdMOdVWtmxZ3fUvd3d3xowZw5o1a2QjrDxCo04mMjxM9/Sr9FdkZOzTNg2vw8janU71ixKZ+Hot9BNi4ninVcvnQjed1kTLsvzLuPPgjn7Km6fc/960aVP69u2ru/Y7YsQIXUcc8hqwlB1lSo1XKX2e3LyZhEeP9FPyJuVX+UQE7gdnz7KuWDHqHT2KrYPDG6/xplNqvsppNuVzykFHaQWq3JakdEZva2urX0p6E4JCglh/cT0ag7zd2jY8LJyfyv5EcqFkhuwZwm9tf9Ndi33TNd4Xa7dKoXPv3r2EhobqngZWvnz5V+53kvQ2ZErwqsUOtLtRI+qLA31eZyxeyknex+KAcer332n+yScsXLgwS4M3fZpyDVi5/nv+/HldjVgG8Jtz5PQRGjs3JsVFdnWIuXiJTbjg0YLsd99P+OPwLA/e9HUrAXzo0CGCg4OpX7++7hS0vAYsvW2ZFrwHRPA2lcH7nOVFi9JY/E42bNz4VoI3nXK6Tel8QAlgpUVoixYt5NOQMpkueAuJ4M0ngzedKkbFNwe+oY1TG922+TaCN53yNCTlaWB+fn40btxYF8Dp+5kkZbXccY03m2p2/z67lWu9b5kSxsotSEonBMrzf3/99VddRxzKwUmS3hSttZaFZguz9FrvX1Fa+zdr1owuXbroHsn53Xff6QqikvQ2yOB9gxxFST110iTdabbsQGmEVa5cOT799FPdPZVKL0AbNmyQjbCkNyakbgjzzs97rbM3WSE9gD/88EPOnTun2weUW/JkIywpK8ngfcOaP3nCkztvv8SfkXL6TumKctCgQbrTcUoNWHkgg3JPpCRlKgs4V/4cCUnZq59xc3Nz3eMIlTsBjh49qtsHlCBWTolL0psmg/cN87Gywi7f870KZRdKAFepUkX3LFTlGpnyMIZNmzbprodJUqZIhUJ+hTA1yZ73lSs9vildUSr3vivtIJTHESpPRZI1YOlNksH7Bill59vvvYetk1PahGxKuQasNDZRnoakvJ8yZYruPuD4+LSnMknSv2V+zZzezr0xNMjeDZmU+4CVjjeUEL527ZquP/QzZ87oGnFJUmaTwfsGHVWuJ40cqR/L/pRrwEoNWAlg5akw48ePZ+3atbIRlvTviEpjkztNqFmqpn5C9qdcA1Za/SuPI1Q64lAaYSnXgCUpM2Va8CpNJ5Q+b/L6K718nKBSEdm3L25Fiuin5BzpjbA+++wz3YFo9OjRumvAshHW33jVBpEXX/p2VJY+lgwqOijbnmb+f5T73Vu2bKnrCUu5Bqw8S0Y+DUnKLJlyH2+q2Bi3jBmD0Y0b+il5l/r8edr5+3PYxYUix47h6uGR5T1XvXhPo0JZl9KhhjI/ffx1KOtSPqd0RK/0hPXFF1/ouqWUnnfz7k1GXx6N2iRvH5jjY+M5UO0Aajc1bVa1YW33tZw/d/6tdaDxovR1pe9nr7sfKJdddu3aRUJCAp9//rnsC136T3LHQxKyCeVXuaVXL95Ztoz9AwfS+vffSRGFkpwevOmUa16FCxfW9YIlSa+iPCShbGxZNEkaNiVvonGNxlnykIQXt/nMDt709W/fvl13Glq5JixJ/5a8xvsGXMmXjzL9+mEge8aR8iIN1D9fnwZVGugnSJKUkQzeTBYvSsaPOnSg6Aule0nKK0wvmfJN2W+enl2RJOl5Mngz2Tl7eyp8+ikqA/mrlfKmBicb0KCGrO1K0l+R6ZCJlOtA/fv1w1PWdqU8SmkNPG7IOP2YJEmvIoM3k5UsU0b/TpLyHuX+7xKeJfRjkiS9igxeSZIkScpCMnglSZIkKQvJ4JUkSZKkLCSDV5IkSZKykAxeSZIkScpCMnglSZIkKQvJ4JUkSZKkLCSDV5IkSZKykAxeSZIkScpCMnglSZIkKQvJ4JUyld/JdYyetgef3YuYs+OGfuo/F/bgLg8Do/Rjz2hjHvDhx2NJ0Y9nvlR+/WYQV4KT9OMZaFO5df0y0Ymp+gkv0KjZu3ULYYkpnNu9hIYVy9P+o1H4hieiTYll5R/fUr5cGTp/MZ6HkUlE+11lx+GrylP0pNxEm8ikb0Zy+XEMs8aO5nposn7GP6NNTeLG+askql9+ZvDRhb8wa9/r71/P1qWf8BeSwnwZMvI3ol61jWuSOHfJRz/ystT4YDbsOEKKOpHlvw+nUvmqfDVhCTHJqSRF+jN6QFdKVajG8CmriE/RcGrXZm6LfSMvksH7NogD+MOrp5g5eRYnfR6Q+sJ+pTzQ/nUf0P3gykndQTyj0IeXmbN4I5HpO49Ww5kd69h95hbJUY/Yc+Qq6WtXx4Wy58AFkuNCWL9hL8n6GcpyW/eeSxt5DVqN2LmSkkiKi+BJaAyl6nfi/UaeYoaWlGQxPVn8n5TlxM+Sok5FnZJMcsqzo0CqOoXExETUqSKGxDL7N6zg0LXHysefrls3T5OMf0AQarG8bp1/8WvSqNWkpqpJTlbrvmey+LzuvX7+y7RPf6bgx4/SDna6nz2ZxKRkNOK9NjGCBVMW8SQ67WCRKv5OiYn6n0sI9z3Onfh8WMTeY+lmX2Zv28fndS2Zs/wkj68c4XxsEXYfPELfChr+mLcba3cvAi8eICDqFSGfy2lT4jm6ZQ2z5q7BPyxWPzWNbhvJsG38P6kJYRw/cv2Fv6uWk3vXs+XQs5DQJoWzfNY87okD/YMr57j6IFw/B57cuczZm0/w9znBER8//VQt9y6d5JJviH789aRtQ8mEBD4mQYTLB0O+wcvBGE1qhm1YSNVtn2nTUjX6n/7p9pak296SxD44ZfYaIpPSfhfKupP022JceDBhMYlim362zldRi++jfC4m5IFuXVH6db1ErFNZV0pyAoGPQ3THpPT9Jn0/U4ff5vfJm0gR3+/ZvGTdPOX3dXTnblyKliDs6l6Oh3qya99W7PxOcuxGKOc2L8em4Rcc27cJi+u72H4xgDLlvdi2dmeeLHjK4H0LQm4fY+zElRhYqpg7YTQ7Lgfo54jNNymEn3+eRpzYaf8frSaFa8e38cnAMdwPf/7AHXLPhxnzlnHpYYRuXJ0UxpI5M9l98oYI1AC2H7gsdl7dLFLigtm+5wypZo6YhZ5j8dYLIlBiWDBtFmYFCqYt9DfUIpB+/qo3lStXY/zK/aSIdV/cNps/N10Rgb+IxrWrUKV2YxZuu0zozQN0//AjOrRqSO0GXTh8I4jgWyfp2645pUuWpEW3Yfg+vCkKDnP5+quh+IYF89PgnlT2LkOL7oPxDY0nJeI+X/doSbmKDVm81+eFg26aTT+O5KOP+tP+85/YOP9X6lQoT616rdh6IVC/REZa7p7YTptGtajXoj83A0UQiMLRkY1zaFqvGiVLV+Gbqeu4enwrC1cuYOio+fj57KdDi0aU9C5Hp8/GERKfwqZFe6nbuCLmTiWYMmMsj09vYunBezR5pwwFKrXg9zH9yOfogGcJb9zs7VCpTGlYxo7d5x7of468QsPGGRPYIQpWJNznm5E/8Sjm2TmMx5f3M23NYf3YX4sN82fW+BHM3HBSf/BPp4TAduau2Ua8fjfyP3eAmfMXcTcskXuXT3H5XljaDCHw1nlOXXtCgWJF2TF7KjeC4ojw82HuhmPkc7XVL/X3Hp7fQcv6NajfsR8XHqXte5OHfcXF+wGMG9iT8mXK0ur9oQTGJbL458H0H/wFFctWYcCo2cSLwujxLfNpVq+62N6qMviPlZzYvoQVq6YycsZW7p3fRpuGtSlfoQ4/Ld6DUi68tHUu9WpUomX3YfhHv6JWrY3mq0968XH7xtR+t33aumZu4+W6rIa9CyZQo2oleg6aTEScCGdNIrPHDaFmxTJUqtaExQd9WD59MtvWT2fCgoOsm/Y9dSqWp0zV2sxYcxqNqO0eOxdK6SLO5KvQmmk/dGXLwun4GuWjTBE7avcazjdda+Po6Kp7iIaTlRlWLkWwDrnLw+g3d/4qu5LB+xaY2Bdi9ISfGNB/AF93q4tfYPpBQIvP0d3s3LqBBWtPEeZ/ncljh/H1iN+4cC9Iv0yauCe3OXk7ieplCumnZGRM9dKluX4hrWYbevMc9mXqY5g28y+oaNrtQx7sX8q06TOI8WhII+/8+nn/36OLe3lo9S7nL56jZz1v8d9IPwqmcu3CZWq0+5gJ477F3T7tJ0hNtWP2+oNsmtWf+bOWEptqRKMu/fjhx1FwexsXoh0Z0PsjJv85CfPbu7hAPS7cusHUYR9gqhIr0FgybNZmds0byP4th0h6VfISjluzL9k28ytunL9Dm09HMP6HL7BXveIUmjqONav2MGzuDo5smoCjsleIEr2xWT4+GjiM0Z+3Zevi9eSr2YY+3fox6dcBouJtSMfenzN2+KcEnj3I9cBgLoUlUMDOOG2dgnOhEtSt6Mn+TXt0hRFFdOA1Fu6+QeeO1XXjLkXdObn/vO59XlKySRfGDvuSjz//kgaFzQmNTSs8atWJbFizmg0LF3LubjCXj23nm08+YdLcDYTol9HRpnB27zFcylTCwvTlLVulcqZWPi0X/WLEWCrHfMKpXsEzbeZfMLTMx8D+Dfn9l8lMn7OG5t16ks/KRD/376SycMZaRi7bx6GlE3G2fPa5xJgn3A0xYcRPv/F5xzqiFiq2QVFzLVH3A65cO0ullLNs9XmMkakr/QZ+w+gv2rFj2UaKN+9F924D+e3LFsyesIjBC3fhc3YHjUsV1O1iLmWacfTsORo7h3Py+vPHh3TxD2L4ZO4uzh3aJtY1iN++eO+l44Am5gEL9wax7+RFpn/bFTNl5anJuHpUYejo7+hQx5X1ohDS9YshtOrwJcN7VceiQBkGjxrDJy3KsWTjZqLDHxFiboOFiT5SDAwpUaka3mbR7Dl2M22a2Keun9jKHVMPqhd3Er9wY2wso7h495+dVcgNZPC+BbYuhSnqbClqmyHsuRrHO1WK6eeo8CjujVeJCtSrkp+pf0zDoVITWtUvzB+/TiU86VloWBUoTb8P22Nn/uxAn5Fb6bLEPrylO7V05KQ/zRv9/aPajK1d6dDEizXbbtKlTR0MlZB7DTGRYTi6F8HU2JgSJYtjZpy+WRnR8aMv8DR6zMwpU5i3fCPRoqjuXMgLB3FgcnIvimF8FJfP7OPwlbskq6xFabggiSnP/p/RIUHkd/fExMhI7MhVcHO0wNjRhXx25lja2mGUqpxK1i/8AjsnO+VoSv+hgzENvsyUP6exfP0uXjzZplWnEJ1sREEXO0wsXfAsmg9NShy7Nu3g3uMIrN2L42GgznBJQMvZfTs5e+MRRlaOlHC2Q52SSFxCCkbiv54UHcxFn/uUrFSPHn0+IPyuD7GaVK6e2MW0+bvo9eVgCtma6tZkbGxGUszL17JzNwO8vUthKn5XgbcvE2XjhafYHxQqcTCuWKECFWrWxS76En+sPiVqiR/glHydP5fve/Y3UBnTsGs3GpYvhsErt1MVletV4uyRiyRHPiDRqpAo+Jnp5/21/BWaUCLhDAEW5ald0lU/9XWkEp5gSKF8tpjaulCikIt+uthXXUrxzRcduLRzFdNnz2DnyXui9G0ttjMPkT1mlCicj+DgUPZs3s7dwEisCnrhYZiKOv2klzaZ8EhDirnZY2LlRI3qZVB2sQLi88aGRtjbWIrt7xUFSoXY/u2s07a1v6KJj0ZjnQ87i7R90tlBHJuiAli5ai8RCakUFjVUS+Xyl3755NggNuzYQVB0PO7e5cSERJIS43T7lUr8LSL8b3EzIJG6jVvTs3MdLly+KwrbiexetYC91xL5pF9nLJQdRfyNlP06NjbvXedNP0JKWSwh8hHzFq2mQvMOlHCx0k9VwsIVZ+cCFHbREqItQNc2jWnQrD1V7NT4Rb5+Iw0jK1dxcE/m+k0fHiQ5kM8s7U9taGSCVpRm02lE6BiIjV/ZYVJig9l2LIDWtfOz49CrT+G+SuGKdbi1bTKTpk5lwtzVxCWlHzHU7Nu0Cn+NE82a1iEuJEJ3Pef++d1MmTaDsSN+xKtOU+KDw8QBxJCYJzfYf+aa7pOmJhqOHTmMU8UGXNs5iSmiFj7o44/ZdPa+bv5rS41n8+JVqB2L0qxuRYKDQvUznlGZWlPT25qfv/uRKX/8wd4zvuL3kkRIdAyGhlquH93F9YgUsbcYoIp/zOGT1/AXNVxTS0Oe3L3E0WsPxUoscbM2IypRg0qbyMI/fmLS9JlM+X0idmWqk3jzEJ9+PYFUMyMObFjGJhEIyu8iLjoMt7KldNe38xr/GydYtOsmPd5/D0sjfXqqDClYsCAFChUhzvcqlVt0on6dWnTq3IlY33uvbGj0V/J5liXe/wpnjl0ifwkv0r+FiYmRCKpnpzdTUpLFtLQC7JNrh/CzrYl1wCmuPlZqy6/LhOZ1XBgx7Hv+nDKRbafv6KeLWmeoL0vWH8CzWn0qFLYjXLmmnxzJusWzmP7n70zZ+ZiWFV0JjozGSGxvN07s4VpYktjcjEgIu8OJq0E0bujMtyPHMX3ST/T96lci/qqB319Q1hUfepsTV+6/tF8bOXlRPPE8YyZMYeLv07kjwj8lMZIosYFqkmI4vH8fYco+LY4dsQ8ucuqyLzEx4rihSebo1i0oxUZLh/yYJSSh5L8m4Qljh41g1uxZ/D57K3XqlOP8+j/5ds4u8cuOYN3SBZz2VWroGpKSVHgWckq7Fi1eeYUM3rcgLugWo7+dSPl33qOap5PY8V/YiUTtSG1gjUnCY3zuBRH26DZXQ5JwtX517fbVjKhVqTArZs+maJ1qomyZxszJDeOAc5y/E0hcbDQnDx/CpmghTFRaNs2fhluD7gz5+jNubZ3DqfvPGqD8P1b5yjD19+FiY1LR9cMv6PSONwW9a1CnjBvNuvXD2wFRiHBk+oyx2ImjX9Eq9XG31VKm7Zd8/UEd2n80mBrORmBTivkL5lLIxICGHbpT3FpDin05ls38jtTwMOp16EuLmpX4oFtL3ekyS+eivNeyxtMDakalGrSmhjjIYWhBl0/74qyOI8WuDLN+HyJ+My9QGdHyo2/o3NATc/fKDPv2MzzyFWDkmC8wiA2jRPNPmT6+u6h5WNH7456ow0PpO3oshY1jMC9ah7mzxuBoZkyb+u4cuPgIE1sPxv06AsvYCPKVb893X7YlSW1Ek6Z1UceGExgYSGiU0qBI1JyP3adlgzJMGjs2D4Wvlss7FvDnxht82LMD9qaqZw2MFOLvmSrC0LFwEXxOnRRBFcv1i2fAwUnUkF7xx/4LxlbOlHKKYtnx23gXT2+voKJQsUL4HNpHYHg00aGP2HPyBl4l8pEc9ZDxk3by1YjBfPphQ6ZOnPmPAq5p/2/p37AoFu4VGTV0AG62ptRt2ZpiRUrxca/3iAkNolTbwQzpKGqJ5vY0aliDWLFNTZj9O0Vd8zH8u4EYxYfh1eQjZv3SE2NTZz75qC0RgRG0F2Hbt3oBolPt+WbIR1Rp2Jy6JfOJ72pApUbNKOshtvWXmNL6ffH7NVZhbJM/bV2Pw3QFvueIWvHIPydTxFpF6Xc68FmfNuJ3X5Ofv2lJSEQcHwz/nb5ty6GyKMzg/s2IMczPd593IzooilZDfuWHtnVR2RTE0z6Wh2FxOBavy4RvexAp5rfoP4JOdTxJNHGhZb3ShAc/0W3/0QkpqOMj8U1xppybtW7axD8n6n+g3E+lfd3ms9K/orRaXLBgAe3bt9eNJycnc2nTVL6YuEY3rmja5xd++KiB7r1GBMSisd9ww+FdPmtowegxEwnWuvDxtyNpW7Pk0wBNo2XRhO/w7j6M6u5WutbQRqL2eu/0dvYEFGBAywIMHTadr34eTcrNvSy5aMCofs0JuHSAH3+ewqWASGq825lhA/ti4H+MabtC+O6rrrpgCr97gp+WXeeX7/uTHvdnzpyhcOHClC1bVj/lnwu5sY/vVj9kyti+T9f7n2himf/TeM4/d+uRPZ+PGo53AWv9+DPqhHCm/fYzt5/E6acoB+h8fDl8KMUc/v5U5P+jjgti/sqj9O7TAdNXn/98TkrMIxauP0WP7u8xo2VzyvftS5OuXfVzc4+TJ0/q9oNSpUqlTdDEiO29F9t8AlApp1qMC/Db3NnUK+WCcjiKfXydIR+Ppf13P5Pis57Js7bgUaMFI0d+iZeLle4zGo1G9zXC9xgT1wfx49COGU45a5g+9ieafTUCo1u7mH8kjtGDO7FqwmgKdR5KHXdj9qyczfT5Gwg3deLDTwbSs1UNts+ZjGHVzrSuUljsWmr2LpnBk4IN6dG4rFh32sq3b99Op06dsLZ+edt6fSksGP8tjq2H8F45JTz/u8c+h5g4Z83TxmSKQqWbMfiT1phk2Baj/S/yw8QFxCc/K1DYedZgzJc9MNOd/v33gq4cZ3+QJd0aV3jhOPVqvuI4dS25BG3qevLw4UMazW7EiUEncHX5J6f4cyYZvG/Yq4LXxOTlBhvpfwblgGJomNb84XX+NLoDl1568Gaclk5Zl3L7gjI/ffx1ZFxXZgRvUkwwNwLiKVeqcOacbtEmcebAAR7pb/FJY06tdxriavPytS1NSjzHDx8gNEMrWkMTK2o3bIijxUt14X9IS9gjf8xc3LB8ep37ryVGhRGjNcPR2owd77xDlFrNezt3YvWfDurZz0vBq/eqfSHjdqm8NzAweGlbzRi86V7c5l93P/un+0HmBK+Gh7euY5LPk/y2/62wly76sS9HTvs8bcSnsHctQZ2a3s+dEUqMDGTfkTOkZLiH0czRgyZ1KmH0GoXF/0sUVvz9n1DQ3e0vrrs/78nDABw83DARyyrBW+5JOQbdHMT3vb7XL5F7yeB9w2TwSn9HucdzjwhedxFQoUuXUr9zZ/2c3EEGr/R3lOAtG1sWB18HjlQ6goebh35O7iSD9w3LVcF7/DjxwcF4iPCVMo8SvH4jRtD5yhXW1atHa3Fwt7B61uAup8tNwbt47WI8vT2xMLfQjUuZI+hJEJ8U+4QktyRG7xnN2K5j9XNyJxm8b9h/C141D2/exqlYCdRhvqxeuR33Gk15p3opjEnh+qkD7D7jS70W7ahcvKCu9ydd8IrPnT54lCLV6+JilXYlVTnFenD/Kao2bICZNhkDU9O/ua83zXPBu3s3Nv37U1IEhZS5zMXf3UZsA3eNjQlZvZqa7drp5+R8/yV40SRw804QJYu7ce34fvb6BNKq7Xt4FnAgKS6cfVs34ZdoQ6cObXDJcNo2KTqQvcf9aNm8xtPrjeH3L3Al2pW6ZVxITE4V4Wn2j4N34OaBrGu8DtLufpIyUaqdOK6YQpGtRThQ4QCF3XNvAd9wrKB/L70BSi3z4sWLTw86ynh6sL6KciBQSvmKSP+r7L0SRdlCBnw/cjL2xYrgs28D4ValMLm3m983++Bd2JFNC5ZhW7aW7j5F5bMqTRIbFy3FpWLtp8Gr1aYSFhqJa0EHfvtxEt51amFp+PfXITMG7yNfX/Jv2kRR8X+wEj+nfGXeK/1qtIMI4JP+/ni+//7TsxM5XUBAgG67d3Z21k9J83f7guLc1g0kuJcn+cY+pm04i6ebBfNnr6fWu/VYN/lHbiXZ4qB9zPQFx2jepr7ueqFCHXWfaQuPPRe8KQlRxGFNiu8hVp8JpVrp1z+wp+8HO+/t5GrVq2gdtGit5CszX+m3G0Q7RmN3zI763vWfO/7kJpnSvkV6A7TiALzrKGWrlxcHDjN6fT2clvWr4lmiGNZWZtgVrcWv34+kV+8+dG9bhUdPXuiEQZPCuV3L+eyr4Ry5/BBtagp3bt3lzql97Nu9iT/mbXnpfj4pe6h6+jSHN2/Wj+Vd2sQgDt1RU7WQNVYFvRk54ksqiAJsYS8PXccL9Tt8yshBH9P3s8GUdEggNmPLIiElLpRFE8cwYsJsAsLiiA/z5879QNasXMOqWfO4eD+tW0cpe9E4aVhksgj/QH/9lNxHBm82pdUkcvpBNB5OFrreakp7unL6wGZO+/iRmhCLS+GiOFmZkBAewMXbydSt4K7/ZJr4yBAiNC70bN+IRZNnEpaUzO0bt7Es7E3xEuV4r8mze3ul7KWIqAkGTJiQJzvVyCja/xpxdm4Yii3VtZAnzsYxrFm7jpiYeKITtBQvVRSlh8L7ojBpUaoezrr+RNNpeeJ7j4JVmlHTOY45qw8RHeLH3SeJVK9ahRqNGlPUNfdcR89t/Gr7seTEkte+FJDTyODNpjSpsYTFJmP69F4AAzr0H8nvYwdwdPte4lO1xIXcY9af62n8QQ/crRL4uX8nqlatxsRVFzG3z8c7zRtTvXYTKjin4B+e1luVuZ0T9g7OFCuUOfcPSm9GAx8ftuXxWm9YgB/GNs8aMRnbFWL8xCn0e8eZdXtuimxN5crhnWw6E88nPZsQcfs479WqQpU6XbkRHEfBMpVpUr8Wzdu0JCbgQdotNAaG5MvnSn4PD2wtMuVOcukNUGq9UyOmEhWdO7tTlcGbTakMLbG1MiVFoyXS9wQDh88gJCKSR/d9MXVyJvruMQaNXkDTPt3xsDMiMdWSb2Ys59ixowzsVJ7kqAiuX/MlOPAON0O05MvQeb9KHLDiE/Leo+hykjtWVlSsWFE/ljfZueYjNUEpMGrYv3gyszeeIjIqkjs3/PEoYs/uJX+y9lIs3d9vjDYpAdtiNVl76DjHDyyhpLMloXfvcPdRMDcunsPEwRUjfefjynXD5MQE1Bl7y5Kyl1SoZFgJS4vc2YpNBm82ZWBgRllHuB+cgF2xanSpaUKfdu2YtPkWfXq14MyBPdy6dpgB3TvQsmU7lu6+jJGxCaamprpGOa5FCxN8YT09Px1F4179yGdmjJOzozj4WFC/nCVjf1+qbNtSNqQUiQK7d6dY8eJpE/Iou0LepDy8JbZTA+q270bS+eW0a9sTv3x1aFnChJ37D3Fw3VQ6tm1Du84fczdSjYmJKaYmJqiMTClexo0VPw3mp3U36Pd+U8wt7XC0McOleCnu7RSF1FuvfqKP9PaZXTTjq3JfYWycO89KyNuJ3rD/cjvRk9un2HvXhPebV/zL67EZW/298ft4d++mcJ8+lBXrkd6cvfb2lL5wgQK55H7pf387kYY9y5bg1rwrpZ2e3SqkbJNv6z7eL3d8yZqOa0D2n/HmpEDL1S1Z02FNrr1fWtZ4szGXYhUp5agm/oXWmlLuFS9eMR9+qLsGKalo3L45UQEB+nEpLzC/bs5nRT/L1Z2UyBrvG/bfOtD4+z9NxpL+G6/x7t/Pkz//xM3cXD9FyhTib2F++TINIiM54OSE54kTeHh56WfmfLmp56qxq8ZyzeMahmav0/2M9LoSExI5W+UsqQVSeXflu2zqtAkzs8zpxzo7ksH7hr3J4I2Pi8Pc0upph+QpyUkkJKVgY/3ybRJKr1bJanGAN0v73v/0gKNQ+mouJGpisq/mzKV0Gbm3SROqHz7Mpi+/pNekSU87UckN3lTwKvemJ6rBQmzT6dup0mhKayjGtakvrVv5GdKn/dvg3bZ9Gx07dpR9NWcypa/m8nHlUWvVbArfRNN6TfVzcid5qjnHSmHRlJkEJWd4DlicH30HjOFVj8tPCHvI5l0nxIatn/AvqZSeseQr01+Ko87O1P7kk1wVum9S8PUjLNp2KsPzZbXsWjyZZQdv6scz0nJq5wZuhybox/8dlRgMVAby9QZeSmvPuqfq0rBmQ/1vO/eSe3i2piX0sT/h8WmPsEvQd6igSY7j3qMImnV4T/eQ61QxfuX8efyCop72RpUYE8a506e4FxgmSvXKQ+MLYRV7jysB0folpOwkXLxCunTBq0SJtAmSjjY1gXv3H6W9T0kWNVylYZ+WiKAADFxL07yWt67hYXjgPU5fuCHmp8ewlhD/O5w8fYGIOKUoqqJGvUrs2rT/6T4iZS/G14z5psQ3ubYlc0YyeLM1FRH3rnDwzB3xPpmFU2YRnqLlyY2zHL9ylyXTZhOUkMDKqT/zx6z5zJ63hJDEZJIiA/hx1EgWLFnGhO9/4NjdELEqI0oVdeXqpRvywJMNHbO3p/7nnz93al9SaNm2fgtRai3+F/ey8uBVNKnJ7Fy3nfvXjrJk+2kifU8yZMj3LFk0n217Luo+FXBuG4NG/8ayJfMZ//scQkTh1cSuCIbBdwhOkK3ys6Oax2rSsFbur+0qZPBmc0UrViHu0QNiHt8g1caK89cDuXjpATWrlNaV9BMj/bgYbMW0WdP4bujH5Lcy5u7ZvVwPN6dMmTKUdDdh5coDunVZO1px85bvcw/Llt4+JWx7DR6c5+/bfRWVoTlNqufnim8wdwMjSQ68S9ST20TbFie/ZVpDwSObd/Le8F+ZNuVX2jWuKA5qalYu3Yh7ydKULVOapPuXOHElUPyeDbFVP+Z2UJzuc1L2YWtry7iPxz1t35LbyeDN5gwtnCnlZsDKDWdp3rEVtw6vIcyuMEWcnrUs1mpS0WjEH1NstIa6GlNasmrEdAOr/FQoLbuHzM6Ua7zV69WTtd1XUlG0fHUendvJI1UhqtilsnrDKeo0r6UreCq04p1Gd4pZhZGxEsbatEZTWg2pYsco5F0KZ9uXGzRK2YednR0VylbQj+V+MnizPRVlvQvhH2JAYUdnChklUbhU2afP0jWzK0Q192QGfTaQcRPmEhCbQrEq71DaIZFbt25x86YvZlZOumVjwuMoWaIYxvL4LuUgptYuWCRE4ly4GGVrl+FeqAnejukPUoSGndqwfeIIBn41kg37L6LBmC7dW/Pk3h1uin3gbkAM9jZWIoxTiTbMj5erfJiu9HbJ24nesMy5nSiVqPAEbB2sSIyJRGVhi6mhFt+bd3ErURxjdQI3L1/HxNmFuOh4ypUrSVJ0KD5Xb2DqVJiyXm4YaNVsX7GUAvU7UsndJsO6/7+MtTDldqLChcX65O1E0j+QGbcTJcbHoDWyxNxEQ1REEjZ2FmIbD+FRjKgRuzkTFfSAmwFxFHQyx9DaFWdrYyKfPOC6XxieJcuK6dYkh99m5vpbfNmvlagM/7vbibZv306nTp3k7UTSfyJrvDmCoS50FWbWdiJ0lYOAAcVKFsfMQIWhiQWlq1ahcMH8lC9bQvdHNbdxonqtulQo7q47/RwfHkCCVRHKutno1iNJOYmZhbUIXWXLNsIufV+wdaGYCF1lb7DPV4SaVcrgIWrFBR2V+SpcPErQoE4t3EToqtBy9vhlmr33jm55SXqbZPDmEWZ2brR8t5Y8zSzlUSqqNG1DCWfZ65r09sngzSMMDI0wMZbd3El5l5nps+vCkvQ2yeCVJEmSpCwkg1eSJEmSspAMXkmSJEnKQjJ4JUmSJCkLZbPg1RAeEk6qJpXIiGg0r3eLnU58VDhxyX/dB+v/W5VGnUJiklrXA1R4yBNCwp59b406ieDAQELDY3TTlEeRxSW+6vk/kvTfpSbHExEVj1p8jYxJeyjGa9GmEhYW8df7zN/crxofH6/bR9RJ8TwOfExMfFLaDDE1MTaawIDHxCakbfcpSQkkPX0YgSRJ/1T2Cl5tFAO7fo5/2CNGDPud8KTX37nXjx/E8vNP9GMZaTi5dzvXHsfox1+k4cy+jVzxi+DYhjl079SBrl0/YP6eK2hTopn703A6tWtHp04fsPjgdVKTwlm3Zisx/yfkJenfCji7iW9+Xof/uc2Mnn5IP/XvaeMD+ajf14QpD6h9gSYlhhWrtpH4F9mbFPmAFesOk5IYwZRvv6RD+0507fsNt0NF+PtfYdCHPWj/Xgc69R3K/chEQu5dZMvBSxkexydJ0j/xVoJXnRTD2UN7OXHutq7Dfo06gUvHD3LZ93GGmqmWJ3eucPTkZVG6/osjhlaD/63LHD5+mWR9UV+jTuaWzxm2b9/Dw5BokmOCWLtwHruOXSA5Vc2Da+fZvmMPt/3D0kr4sQEcup5CBQ9jbgWbMG/TfpZN6CfC+jSJ0SFoCjVk+7GTrJ3zFXtWr0Nj4YK3TTQHr6Y9qkyS/jmtrlelfTv34vsoXLcdxkUEcmj/AYKin9VytepELh87yvV7T/6yJqtJiefs0cNc833ydN9Jig3n2KF9HDhylhgRxI9vnmLBwmVi/woU4Rotlt/Prn0niNTVYLUc2LKbcvVqEPfkPmblOnL42AE6eMDlh5E8CfCjyZe/ceLsUT6vqmLN8fvk9ypH5LXjBETLMz+S9G8YjhX077OEVpS+J4wcyMYjPpwVNc3HZiW4v2s6Mzce4dqVi5y/FUm3D5qzedlCrty5x/kj2zj62IJm1V9+Tuntk6J28MN07t65ybnz5yjxblfiTizj90Vb8b17jRVrj1GnbklWzZ5HqGlBisRdZczsDTy4c5WN2w9TuX4jos6t5YZdLep7u1GpaiVurp9E+2FzeP/zL6lSujhVK5TAxFBFuN81HiY58061kjjbwZI1V2lcz1v/k6Q5ceIEjo6Ozz1PMjU1lYsXLz7tLk8Z/39P4EjvJu91ZezSUeluUvnsX3W2/0/Xrci4rkePHuk6M3d1ddVPkf6N6IBL9P1Y1Cjv32fV6p1UrVOeMV9+zsXb9zghtuNEK28al1Lxx4LNBPnfYMP6jTiWrYOny4vdFGpY+stQ5u84JQqbF7nkH8MH3d7lz2GDOXjpJpdP7uOYvwWe2rssWH9A96Srk8tnsvXEBa5dOMG+69E0r1WY5SsP0/q9xtg5FaRaaRd+6tOZpX7mDO7bHk8vb7wLOYntQMPpQycoVb8pRZxsiXt4lXuJTpT0sNf/LGkOHz5MoUKFnttuAgICdNu9s7Ozfkqav9sXFK/alpVpyraccd6Ly72p/ezOnTuULl0aU3lPsPQfZHmNNzrwOjfD3Jm5YAFL16yjV217jt00YubCRcyaOI6y+dMOLtZOxRj1yx/MWzKXqJO7CH/xzK42hSN7jtD7h6nMnv0nXeor/QcbUKJKLUp5OKBKieXy0YNEmBWmcbOm9O33PqVq1KGym734aDwXj5/k3pNobp+7i1cRl7R1ChU7fMahzfM5uWoOAbH6h24/PM+vy6/zce8Wuu7mjG0c8btxmhd/pCNHjrByzXb9mCS9ms+B7ZRsJQJzwXw2rZ6Bqd9xTCt/wvx5c/nx025YmyiBoaJs7TZMnT2bP795jx17zj+t0abTpgSz57qaRUsXMGnCaEq52qAyMOedZo2wNjUkPMif08dPU7JxG2rVeZcerepSr0E9nCyMiY94xLG9ZwkLfUxoih2mRvpDgaE1Q6YvZ8GXNZgwO21b1op97eDaRQQWbEi9omlB6yR208s3buveZ/Tzr5MJCg7Rj0mS9CpZHrwqlYH+MXbKo7tSiUtI0oVoUooyLVXMSz+8pHWOrklNEeV61Sv7VzUUNdEk3ee1pCqfS01g6ZQ5FKnXmZE//Ezzam7KLD0NC36eiEPtznz73Vi61vbWzTMQ61C+quNDWbZ8PfGY4pjPDQvxfZPVKZzavIQfl59i7PeDdM+6Taf8P16kVRmxfI+ayKgo/RRJeplSE1OnpOiCVJ2UQLIGkhPjddu70rBQ+arQatNqdiliWQPDV+yqohZmoFH2HY1YTuw/yrKRt5ky9ygffv4V4777CkebZw8hSI64x++z99O+/0B++HE0JazEOsV2nL7moDtnWLX7PBbWtnh4FCQuPI6UuDDm/foj101K8lWPRui6CVco+84raoxxhmVZuGyvfkySpFd5xd78ZlkXKEUljzD6d+9C9249WHjkCS2q2/JFr+4MGP4jd0PSHlIdF36Pn4cNpHuX/ng0aYf9i2eNVMY0btOcdT8P5oOen7H97F0xzYgCBW1YOWsCI78ZxqkbwSQka3WnhufMWIijhwtb5//K8JGj2HH5HknJaopXKc7Nm48wMrPBOPwqH3/4Pr37foFVpSbYhF3gi69/4MbpA3zSuzufDZ9JTKqWpMgQPMrUePpovmdURBo3YPuec/pxSXpZmUatCNg/mW6du9DlwyFE5q+F7f3VdOvRg18WbiZBBKmSbLfO7uCTnj0ZOEWEZYuqLxU+VUYudKjrSp+u7zN4+G/cC4tDZWKDjcEjfhj9LaN+mkl4ZKxIegsMQs+zaKcPrhYh/Pb9aEZ8N4GHiSmorF1wMAzT3RFg55yPCxv/pHvX7nwxbi1dRNCeWD2ZH+Zu5uByZXoX5my+LL6zluAYLeW9X35wv6GJLRuOmRAcEqqfIknSi97KYwHVyXHc8rlCkpkTZUsVw1CbjO/Na2jt8qMJj6JwqSIEPHiMpXEKj0XlsWxZL4xfWUTQEOJ3D/9wDa7WGgyci+JoFM/lKzcwscmPg3EiJq5FsU6N4OqDEMqUKMztKz6kWjrjammAoU0+nE0jGTd5G6O+HYCBOonb13xIMHSgjHcxUmOCxbpuIbJbx9TKlYoVvDi3YSERnk1pUd4tbYbez79OZP3dwRQ02M7iCfWxs7XJpMcC/rWM17aUmpGRkdFz09Ip61Kueynz08dfR8Z1yccCZp6Y0ECu33yAa7GSFMrvQFJMGNdu3yd//nzEJhnj4WggtmtR+40IxNi1EIULOL7yrI9yu9vdq9cxtHclMS6W4iW9iAl6wDXfIAoVLUx0RDQlS3kS8uAmYSo73K1SuXbrAS5FSqCJjcS9WDGOLpqJSd0uNCjhTEJUMFeu+4r54ufKZ0ew73VuB4brvxvkK1IGT1dD5k5bQsv+AyiY4SyQokGHiUTb9KdLuS0MG9xDNy0zHguYkbJNKvtJxm3zxW3+dfezf7ofyMcCSpkh04JXuQ9QOfC/CVp1PD8N7svm0776KYKJNcMmL6FDlYL6Cf+Whgv7N6Mq2oCKRZ5vKPIqqQmhrN1yitbtW4iCwfOlgT8mT2P7o29JjX/I8PYP6dK+ngzePEL53cbGitrlG5ISdJl3235EbGqGv1uBmuzfOAXrl//c/0hKTAArt9ykx/uNX+sUmHJK+nSgOa3rl32pMNCq12wSXIZiFr2R1X/UoGCB/DJ4JekFmRK8KSlq+g1Zhl9UIf2UzJeUkEBK6vN3DpqaW2D89KLTv6c8FDtVq8LoNdal1WpQ+g4wfsU1t7iEVDT2jcU7LQXYwtLfG2FmaiKDNw84cfIcI/4MwMDYVj8lcynbXXxcgu668FMGhlhamL2yJvxPKfuwkbHYdvTj/49GbEdalSGvuuwcpXbFwMqb1KQwOlfYz4jBnWXwStILMi14uw0+wIPkpvopUkrcQ0Z2fEjbFtVzTfAqt0t5enrK4H2FI0dPM3heIVSm+fRTJLPoLSyfUJnAR365Jni3bt1Kly5dZPBK/8nrnFmS/gVjy0Is3hJMfHyCfkrOlZCQoLs/U7kf+cV7MSXpr8QaV2fVxtOvHW7ZWXh4OJs2bdJdUpP38Er/lQzeNygwpSbbdh7Vj+U8Sg163759LF++XNcxyIgRI8iXT9bopNdjZO7KlhMqHgW+qivXnCE6Opr169frQrdKlSp89tlnr6xJS9I/IYP3DTKyKMjc9X66U7w5iVqtZv/+/cyePRt3d3eGDBnCO++8g7m5uX4JSXo9caa1WbP5tH4s51BqtqtXr2bVqlXUqVOHb775hsqVKz+9DCRJ/4UM3jcs0qQ5d3z99WPZm3Jd7NixY0ybNo38+fMzZswY6tWrJwNX+teMzFy45O9OYmL6046yNyVw161bp2uX0bhxY7799lvKly//tG2EJGUGGbxvmCYxEDtbO/1Y9pSYmMipU6eYM2cOVlZWjBs3jkaNGslTatJ/p9VgZhiT7YMrIiKCLVu2sGjRIurXr6/bB5Q+mWUNV3oTZPC+QVqtmtJOF8nnmj2DVwlcpX/ppUuX6h7soNRwmzVrJkv3UqZJirpF0yqi5muUPQMsMjKSzZs3s3HjRipWrIjyzBjZal9602TwvkGJISf4vHdN/Vj2oTSaUq7hLlmyBHt7e7766itatmwpa7hSplL6jy5keYGmjSrrp2QfMTExbNiwQfdSrt0OHTqUqlWrvrL/aUnKbHIre0O0mhSqeNylUoXn7118m5RGXocOHWL69OkUKFBA12CkSZMmWFhY6JeQpMyTEnOXHi3zYWOTfe55Vc7yrFmzRtdoqmbNmrrAVVory7M8UlbKvODVanRhk9df6ZLDT/LpB9WyxQ6tNJpSOr9QGk05ODjw/fff07BhQ9loKpNpNeqXtoe89hL/pP0uRG3X3fwcLd+trht/2+Li4nS1W6Udg7Ltjx49mgoVKsjAld6KTOm5SukFZtHK/QSG6SfkUafPnOOxxQg0qYlUslvHjJ+7iAOQ5q31XKWU7i9dusT58+epVq0a77777nMP6Zcyz927D1i47hpaVd4+Xb/jaBBGBXqQGufL8Pa+dOnQ9K12Galcwz169Ch+fn60bduWSpUq6ZeQpLfnrTydKLfSPZ3I9ytSI08xdZApdWpVfCsPSVC+h9Kv8q1bt3S3Qiink2VvO1JWUJ5OFOs4hHwpS1gzvZPuMsbbCN6wsDCOHz9OcHCw7h505fqtbKEsZRfyGm8m04raboWCd6hetYx+StZROr5QunZUbomwsbFh0KBBtGrVSoaulKXUcQ/p1cr5rbQdUJ4QpfQypfQ2pZxKHjZsGDVq1JChK2UrMngzmSb2Kh+2L5mlp3SVRlP3ReCatG5NARGySqOppk2bYmlpqV9CkrKOi3Yf77VWntKVdZTa85yIOfSN70uVqlUYPny4rpYrr+FK2ZEM3sykSaWs80Xq1M6a2yeUU8vKKeUpU6agWbaMAlevUvfhQ9loSnpr1DF36d/J45WXUzKbcgo6KiqKtWvXMmPhDJa5LON22dvYV7KXbRmkbE0GbyaytLTgkx6V3vi9gEqjqdOnTzNv3jzdta5xn31GrZs302b+/rvShDPtvSRlsRIeGlo0ra0fe3OUa7hKxxdK945KL2u1x9TmtsNtHothsRg0YpCk7Eo2rspE4eGR2NvbPtfQIzMbVymfVQI3vdGU0pesuZkZTJ4MQ4akLaR8b2X8yy/TxiUpCz1+/IT8+Z9/glVmNq5SunZU2jEoNV3lcoqyH2gMNNQTw0kxKAqK4bQYlK+SlB3JGm8mcnCwe6l1ZWZQGk0pt0QoAa48gFtpNNW6deu0U8pBQfDHH/olBeUgNXWq0heefoIkZZ0XQzezpJ9SVvpTVjq++Prrr3VdPCrBvFsMStCmeySGeWKQpOxKBm82ptR+lYcXTBVBqgSu0suO0pey8iCDp+bPh4AA/YjevXuwbJl+RJJyLuWyivI8aCV0lVPKSvemSi03/axQshh+FcOLp5aniSFcDJKUHcngzYaURlNKpxeTJ0/WHWCUJ6UogfvS7RmiJszChWBjk/ZSGpQoX5VgXrVKOZenX1CSchal4wvllqC5c+fSpk0b3eP5lKcFvdhK+ZIY7ojBRgyWYjAVg/JeCeTVYpCk7Ehe433D/sk1XmXZixcvcvnyZd0TUpR7cP+2dWhgYFoAJyTAoEEwaRIioUG5d9fFJe2aryS9Rf/kGq/SaEp5JnRISIjuwR1K7fb/Xb5RAjZIDFoxnBHDITEMFYPCSQwWYpCk7EbWeLMBpYar9LKjPC1IuWalXL9SgvpvQ1dRoAB4eIC7e1rgKl+VcVdXGbpSjpH+eD7lGq7ytCDlPlylA4y/azNhIgZ3MXiIwVUMSm1Xea8MMnSl7EoG71ukdHyhBO7s2bN1p5EHDx6sO60mO76Q8grl8XzKKWWltynlKUFK5y9K8MqepqTcTAbvW6A0mjp37pzuGq7SnaNSum/evPnzjaYkKRdTTj0rj+dbuXIl9evX1zWaUh5gIANXygtk8GYh5ZSyj4+Prqcp5frW+PHjddexZA1XyiuU24KUU8qzZs3SbfvK4/le1WhKknIzGbxZQCndnz17loULF5KQkKB7Hm67du1kt3ZSnqFcw926davutiDlVLLSUr9kyZL6uZKUt8jgfcOUxiHKo8mU67lKxxcdO3aUTwuS8hTljM6FCxd0LZSVyypK8L7pblUlKTuTtxNlgb+6hShTxcfDBx/AkiXKkU4/UZLePqXQqXjT12+PimGnGH4SgyRlZ7LYmQXeeOhKUjamBK5sNCVJz8jglSRJkqQsJINXkiRJkrKQDF5JkiRJykIyeHOSxHiIT9KPSJIkSTmRDN7sLuA6TJ4Dj29Ds3ehw/twzk8/U5LyAM3zj/zTjcubMaQcTAZvdqZNgbnTwak4bF8MVfvB2G6weqt+AUnKxWKjIOgOfDpKfA1THl2U9vpjGBy8r19IknIeGbzZmijVx6VCUWfYexpa1obkpJdrAJKU64htf98q+HgQbF4JA0Shs5/+dTwQiot9QpJyKBm82ZnKGN5rKkr4osRvVAFKiIPRxDVp0yQpV1OJ7bw/LJ0JJevCitWwWv9atxTcrPXLSVLOI4M3WxMHn7L1YcYcmDseXDxg1jyoW0I/X5JyMZU4PCkPT7AxFUcq8VXpiEZ5GcrDlpSzyS04O9Mmwc/fwaMUsBAHH0Pxyueky2NJyhOMrcDsHrzbCvrqTzUP+BTuhusXkKScR/bVnK1pYNU0OBQMrWuLg5C+2z0PUeMtWSjtfTrZV7OUG2nV8NBPtys8I0qe+d0g4okokIqCqJ25bqrsq1nKKWSNN1sTZSLHAlBYlPqvXIYLF9JeASHiQCQOSAnynl4pl1MZie2/KBTN+CoC5sZw7CDcCtUvKEk5hwzebE3UcJt0hOHDn381rgLhd2H5cf1ykiRJUk4hgzenShW13Yh4/YgkSZKUU8jglSRJkqQsJINXkiRJkrKQDF5JkrIfbSpERjzrJvK5VzikiPkVq0JhO/0HJCnnkLcT5VRK46o9wdC1Vtq4vJ1Iyk0SRcCO+QGCo/QTMjA0geG/gJeDfkIaeTuRlFPI4M2uNi2EQ5f1Iy9o0B7eqwMa8acz1N/bK4NXyk20GhG+iWnb+ItUKjA1e6kHKxm8Uk4hgze7CrwPoTFp75U/UWrqs5BV7u11e6GTeBm8Um4V+QhmzYGkfNCqlNjWnaBuGf3MZ2TwSjmFvMabXRUoAuXKQfFCcO4Q/DwZzG3gyCmwEV8lKS9ITYBvR4KD2A/u3hVfRYHzZzHupy+USlIOJIM3W9PAWlHSf2ItQjcRUswg0RcW79HPl6RcLukJ3DeBNjXBSByu8pWEmqLmeytYv4Ak5TwyeLMz5UH4525By6ZgpVzTEq9mDcVB56Z+AUnK5UzsxbYfLwqf+hpubJDYJwLA4/mGVZKUk8jgzc6U5/EWd4NLImiVK/FKb1U7RG23WPG0+ZKU2xnZwVfvw9ixsG89tOoGTT8BLxHIkpRDyeDN1sSfp5fyCLRtcPA0dG0FIe7wUQv9fEnKA6o1g9UbRAH0FCycBR80lkcuKUeTm292Z+UMo36By5dg+Wzo2RrMjPQzJSmXUzrSWDYFNp2EHQtg4DdiHxgM0Sn6BSQp55HBm61p4exO+E4ceHzPwScj4LfvYfsF/XxJyuWSgkWBU4RujcKw6ij8Kmq8ZUToXgrULyBJOY8M3uxMaVy1bjM0bgk710DzT2FIV9h/RL+AJOV2GjCygJDbYn9whGJ2EBEFJvKsj5RzyeDN1lTioGMManGg2eMDLavBIz+wstLPl6RczjQftC8Bo/6EXv1g93xILQMVxHRJyqFk8GZnSqvmPr1g2SSo1R3comHhCTGtvX4BScrlVIZiex8OO7ZCl3rQ4XOY+R2Y6Xtxk6QcSAZvdlesKixfB98NAGdR8l+3VExz1M+UpLxAJY5U+kOV0m2q0lezJOVgMnhzFHHAkQcdSZKkHE0GryRJkiRlIRm8kiRJkpSFZPBKkiRJUhaSwStJkiRJWUgGryRJkiRlIRm8kiRJkpSFZPBKkiRJUhaSwStJkiRJWUgGryRJkiRlIRm8kiRJkpSFZPBKkiRJUhaSwStJkiRJWUgGryRJkiRlIRm8uYVGk/bSavUTJClvSRWDRgySlN3J4M3plKDdvx+6dYPDh6FnTzhxQgawlGckimG2GL4QwzIxDBVDkBgkKbtSaQX9eykn2rcP2raFuDj9BMHZGdasgQYN9BMkKXfSimGgGGaKQS2GdLXFsE8MZmKQpOxG1nhzul9+eT50FSEhadNTU/UTJCl3ui0GpZabMXQVJ8SwQQySlB3J4M3pDh3Sv3nBo0eQnKwfkaTc6bIYIsTwIqUmfEMMkpQdyeDN6by99W9eYGsLRkb6EUnKndzFYCGGV3EVgyRlRzJ4c7rBg8HERD+iZ2wMAwakfZWkXKySGN4Vw4sKiKGrGCQpO5LBm9P16AFTp0Lp0mnjFSvClCnQVR50pNzPVAxzxPCxGBzEoDSmaiqGrWJwEoMkZUeyVXNuoPwJleu5ykup/Zqa6mdIUt6g3L+r3FakfFXC10gMkpRdyeCVJEmSpCwkTzVLkiRJUhaSwStJkiRJWUgGryRJkiRlIRm8kiRJkpSFZPBKkiRJUhaSwStJkiRJWUgGryRJkiRlIRm8kiRJkpSFZPBKkiRJUhaSwStJkiRJWUgGryRJkiRlIRm8kiRJkpSFZPBKkiRJUhbKs8Hrf243czefJGsezaTF59AG1h66oR/XcGb7Sg5evMO4Xu+SP39+3cvZ0Y7idXrwJDaJNTOncS8ySb+8JL1Iw+b5f3DOPwHU8SyYJraXsHj9vDcrMeIB0ycvJSY1bTz28U2mLdjG+Y0z8dRvy/lcXbCyLszSg3cJPLeLJXuvpi0sSVIufSygVo2/3xOsrY0IjtZS1N2Z0CcBhEUm41akMNYmGrZO+46NYYX59ZsPcbU2JSrsCY+CwrFyLoC7sz0qFaQmxfPgoR+mDvkxTIzE2sUNKxND/Td5RpuahP/jCKyMUohKNcMjny1BAf5EJELhQh6YqZKYN34odxwaMfqj9zCMvsMvM44yeuwATPVFH606gbnffU1sufcZ1KUW8YHn+X7BVX7+thdG4mfJyM/Pj5iYGP1Y7ubk5ISrq6t+LG9TJ8YQKDYq46RoEsVu++vgz6kzaCJNi6r44tOR9BjzC82rlECbHMdDP380BhZ4FHLHzNgArTaV0McBRCQYkN/BlOhkMwq62ujXnJGW8KAnYGJKyJMICnkVITkqhEdPwrB1dSO/oxW3T29m6E97+Wnaj3h72DJ77PdUHjCCqvkt9OuAu8fXMnLxdWb9OQoHs1T+GPodrUd+j5ediX6JZ+Li4njw4IF+LHdTiQOLt7e3fkzKq3Jn8KaE0KVxeyy8PFA71aB3ZWOmLt5GbIIay0Ll+WNsH77r04WjASq+n7eWmuqLjJ28grDYKFJSLRjyx2xaelsxY9xwNpy4Kw44hQl54MOoxXto5mWr/ybPqMNu0bLjQNycrLCp3paGtv7M2XSUBLWW/F71+fWrpvR/ryN3KcLMlctRnZzLtQKd+KJFSf0aRJie28KIOZeZMe1bbE3EgVKTxPgvB9Nq9EQquJrrl0rz9TdDKF2uqH4sd3v0MIJRo0brx/K2Jxc30frTOZRwMaFg8SJsXrEC5/Kt6N/Wk5HfTcXz3Q9YN/Ezxg0fyd3AEBLF9l68ST+mDuvCtd3L+HbiUlLNrXAxj0NTbABLfu6gX3NGamYM/Yhdfhq0MaaM/uF9pv70B0FRcRgY2DNs8mQuzBvCxJVn6DL4N8b38eKjETtYNHf400fPa1IiGdRzAO3HTqdBCSfdtGvbprI6tAo/9K6pG89o//79HDu5VxQS3PRTcq+9uw6yYvl6/ZiUV+Xe4K3QhA9W76FVaRt+6/8BsdV683mnusSFB+PoVoSbGyaxKsKb3z9txrZFM3Gq1Z4ilkms/+0brhTox6h3khk46zILpg3HJM6Pji1EUC498JfBW6PhJ8zYsZGqLiq+7N4Zrx6iBtKwPBFPQnHzLMKu2d9zx7U1X3eoxI8D+tJ0zAyqF0wPVDUTPulJ4d6/0rm6u36alk1/DCOk4sf0b/h8yI4bP5buPdvox3K3dSv3MHTocP1Y3vbk4kYafbKFg4fm4mqm4tve3Wj242LqOsfzcd+v+GLSdFwjzrPyXCrvN/Xm4YU9vD9hNye2TGN0vwF0FEFYt5gVK777iD2pbVjyS0f9mjNSgrcb1wr1YarYN06vncDPe1OZ8kN/rNSxJFu6Yhl7hYGjdjJt4VjCDs/mtwueTP/6Hf3nwffAfL7doWXZb/2enq2Je3iC/j+fYNmsr1+6vqUEb0JKMN6lS+in5F7z5yxj/I9/6MekvCr3XuO1KIiXu70oWpjS6dP+PNk/iwplSjLw5wUExybrF1KocBVZ+lWPznw18nsOXfUTYRnCk4CHeJStiK2pEeYOhfAs4qxf/tXM3QtQyMEClYkVH33Wj5MLf6S8d0XGTltHdLJGv5QiGb9HgRgZPDt/rA6/xY6bRjSp9HyJ397Bhsf3n+jHJAmcShbGwSy9bvkySwcXTi8eTbcBg5i+YgehT8KJTBKvWDu8izpiYGRGxcqldac8/5oV5bwKYyCWKdeoMxUt79CuTlWa9/iKS37h+mXSPLp5C0OjjD+PmhVLN9O2e+vnLpEYW9sR//ghCbmvmC9J/1juDV5x0Eg/tjh5Vmfy0o3cv3WVJhYPmLfyjG66RqNFkxrJlClbmbllD0sXzKFDvXKQqsXZNT+Pbt8iIVWDOjGcx4GRus/8FZUIUt23EweWQpWasHj9Lm5ePUn+0H0sPOSrm6HRnVwwIZ+LHbGJKcrSOneO7aRo447YGz9/MIwIj8bZ/f8HvpS3PN3OdNK3KfFOfFXe7p7xOwW6/Mau9csZP/RDLEwMRdjaYmEehV9QLFqNmvu+/rrl/5pKF7oKY0tnvh4/kws3bzBtYF3GTVygm67VapRNnXyeRUmIidVNU2jj/Dl+34Zm5Z+/Lp8SE4mJS0HMn9/EJSlPyv2tmrUpbJr7E1179KTfp4M4eE9L4wYlsXVx4cyKP1h7JpjqlRwZ+dmHfNirF5NWHCBBnYRb+YaUNbhA9+4f0KPbhxy+E/5cLfWvaFMTWDJhOO+L7/fJF99wLaUATSsUxMnJjg3TfuHIzVBqVy6Gz+3H+k/A9QvXKVWtjH5MT5OCj28kxklBBPj56SdKUjoV7vnN+GX4aO7FgIsqglHjJ+Fesy6nFn5Pr9696T3oB6Ki49EYWPFhh1qM6deT93t+wPcLt4gw/utac0b3Tm3l/Q7d6dV3AH8sP0KHVk0wNrMhNuAQE2dtx7VsDaL9r6Fv4EzskwdQtDR2L7RBfHjtEkWr1CQhLo59h/f9TfBLUu6WS1s1J+Nz5hqelStgYaQiNSWR29cuExASh1f5KhR2sUGjTuDK2TOYuJfD00HFufMXSTV2oEQRR+4FJ1KmoDk+dx+jSRC1BCMz5v4xnTELF1LM5uUDljYljnNX71O+XGlMDFWok+K4fukiQdEaylSpTH57S1Frjub82UvkK1UJh8S7/Dz7LGN/6I+JyPKHNy+hci2Jh72Zfo2QEHKVUTOOU7OwOaEP7jNgzJinpwflNd68KSkmGB+/WKqULqqr9SZFBXHiwh3K16iBQaQfF++GUb1mRYJuXORuSAJepUoQ4/8I9zLeIvgukyqK2WHRSYSeWc9dz36M7lA2bcXP0eJ/+zoqx8K4OVrqaraP79/ium8A9u4lqFjCQ5TWNTy45UNwgjWVK3jw56gxNPxyjK4RYFJ0ENf8E6hUurB+fYoUpg//joZff4erKpYeP/Rg0ahFuDqn1YrlNV4pr8mdwZsJYh7fYNiwbzl37R5mtu606PEl7UpE0uPTcWS8QgxGdBo6kVHvN9CPvwaNmt3L52NZqS11Sr/qVhmNqKVPJl/TvnB4M1e/+46WR4+S3y3tGrAMXumf0GqSWTXxW+ZuPEqY2pAy1d7h5+8+5qePu3LybpR+qTQFPJuzdMVPOKXf5/YaQm6dZNmxaL7s+y4v32wHwVcOsNrHkM/fr094WBi1jtTiY9XHDG47WDdfBq+U18jg/T9SkuKJio7FwNgcO1trNCkJRETG6K5tZWRuZYu1hal+7PVo1CmkaFSYmrzqlJ+W+IRELMzNOb1kCfa9e3Ppxx/p/O23urkyeKV/SpOqJiYqiiQN2NraYWKkIioinGR1xoZ/YGhkhr29Da9xVeUZcQiJT0zC3Nwsw/XnZ9RJiWiNTDE2VBEmgrfm3Zok3krkWvtrWFtZy+CV8pwcH7wpyckkJCTox3KfCytXUvaTTzjg6kpDHx+cXFxk8OZiyu4YGx8rgvL5QMwtwsPDafK4Cb4lfZm4eyJDug6RwSvlOTk+eI+IGmHsDz/w7OpoLhMTQ83gYJQ20FvE/7PH6NEyeHOx+Ph4uq/tzlX33NnFolKgCCgWQErRFIqtLMaZZme4eOGiDF4pT8n5wTtpEhWHDMFaP56brXdzo+7Zs8yZP0sGby4VGxtL41ONOd34tH5K7mUYbMjEoxMpY1dGBq+Up+T+24lykUaPHrF/3jz9mCTlbKnOqczRziEkLEQ/RZLyBhm8OYidVov5ggU8FgEsSTmeCm7VuMWmC5v0EyQpb5DBm4MoLUZrP3yI5vJlpSGpJOV4qW6pbHDcoHToJkl5hgzeHMZSJK6tJlX2/CPlGkr4SlJeIoM3h7lkZ4efmxsG/+hGS0nKnlQxKiqcqqA8O0SS8gwZvDmIckvRzWbNKFG2XNoEScrhnM8508Orh35MkvIGGbw5yFlLSyoNHIih4as65pOknEWVqKLdg3aULfmqPqMlKffK8ffxHpw2Dadhw7DUj+c2KrUa9+RkXcOqeR07MmDtWtmBRi4WFxdHsx3NuFD5gn5K7qIcbhIdE9HaabHbZ8dR96MEBQTJ+3ilPCXHB2/I48c8vn9fP5b73N65k4bjxnHVzAzHI0coU7WqDN5cTKPRcPn2ZRKSc2c3qFFRUQzQDsC/pj99FvVhfv/5sstIKc/J8cGb2ykPSfDo1Yudorbba9Uq3WlmGbxSTpX+kITHyY85U/AMpYqWksEr5TnyGm8OcNrcnKpDhshru1LukAKdAztTokjuD1pJehUZvNlcnHjdbd2akpUrp02Q/iMtnNoDPn76cSmrWR6x5MtKX2KgkoefzJBEIGvYScJLDyyVsiu55Wdz8ba21Bs4EGMT2bVP5hAHpxO74bIM3rfBwMCAdqp2eBf21k+R/qskHrGKHcSTOx8lmRvJ4M3mmjZrRpXq1fVj0l/SJMPWpfB+Z/h2IgRHi4kiZH0vwBf9YMAQUdO9mbbs/yU+M+t3WLIABo6BwAD480fo1BXmbxJHOdnL0n9hKwqSXw/6GmNjY/0U6a+Eco2f+JwOfMRqzuvqs2oi2cREutOFn1lLhJjydyI5ww/MFst/yjJ8uMIuPqMrHzJGrPWxfikpK8ngzeZMTE0xeIPXdrVJUfw+8Bs6tevz9PXN2NXEZ8wXTSJLvx/zdP4Hvb5ly9HrpIojgTY2kB9+WiZ2fw13Tp/hdqASeG+BvwjYOfvg44HgZQIHrkBMIPw8E5p1g85NYKIIUP9Y/Qf+j9N74Uw49O4C2+ZBkJ0I4U/FkfA63ArWLyT9G0qN18LcQj/2ZvhsX0s3/baqe3X4mrO+Efq5aaL9fPiox0f6ZfoxfOx87j1O2zb2zJ/NUd8okiKfcPDQFdRK4mW5JOaLqIQmDKa9CMs9IojV7BcBegIbPuFLPESIjmL939ZzE0WNeKkIaU86U0cs/TVzaMMXYqwYBzkl5ktZTQZvHqcysaL38K+YOOUHfv9jFNWLO1O0YknMM2a9NpWAkBT6fztct9zYoR05vHoVN4LiUVk483H/VhiSyvGd+/ELS9J/KIuZWcODc7BqoyitFIVWVeDmMVi3Ab78CD76HPZvh2N39R/4P5SCTtt2ULE0uLrAjtWw8xDUaA7ervqFpOyqeL2mTBDbqbKtfv1RcyzzFaRIvuef2K1OiMHQuSq/TVaW+45m3sbMWbSPZJFitdp3opK7FZF+N9h95M5bunJqgKPYqzaxmL3coi09xXgcq1ghaq0/0VuMj2Eh29nN6xR17alMKxpQCFdsuSeidzV3MBP15ibiXymryeDN61SGOOXPh4eHG0ZRD/BL9eKDluV0HXY8x8AY14IFdMsVLeVNSXsTgiPiRY03gJFjFnD7xG6mrdzGN31HcE0EcpZz9YZDe6C2lwjJBaKGOxyS1dDpK1EF8kl73fWFdmX0H/g/RK0MW/O0920GwMa54siVCj8Ohj/kI+yyOzNrW9zFdlrQ1UZsEj58+FkPnCyN9HOfMbNMW87Dw51KNSqQFBGCOlXLjhlT2e9zj19/msPW5ZP5YaYowGU5Y/owS0TrF+LdQz4XddTlouaqoghLRJ3XRzdc5zyTRZD+PXMsxXrE7k5+Edz7+Yzq+LKN9xggAjh33jOencngldJoU1izdDdt+7XHyugVD2CIC2LWLxMZNWI8wwd9x8WUfFQq6iA+pyUpKYWitd7l826t+G3+z5R2fbOnEl8p8Dqs3AuVGkL/bqCJA8/KcOcgHL4I965Bn/5iOaWd+OsSdZ39ImgvBsJ774tacF3xe4jRz5Oyu4fnjxDsVIFapZz1U553/9I+xowcL7bpcXz17WwqvlMLc2MV6pRktKb2DBv5Ea3fH8SYT+roP5F1tCSzRdR2/UWsdqEvjUVgRonobEhB5rGS+wRwgCl8zfp/VCNPEZ+bwRpRe67KR6LeXFB8OgnZbiGryeCVdBIfX+VMuDO1ioswFTvj6a2r+aTfED75fAwXAmJFAdySSrWq06BhHRo1a4CbcRhX7oWkfTg7cPYQxfkA+KQvTNsPE74VteDiMEnUfJf8BiPFq794X1TUDwoWARcb/Qdfwas0WCutyEUBpExZOLZKhPZH4GcHn3dIW0bK5lLZvvEgDVvWRWSpGI1iytcjGCC26e9/20yCRoudaxHqN6gjtum6NH+3Fr7nfYjJJo3nVCJky+HJZn4QNd+vMeFDEb/KVdoxNCGIwfRjBzb8xPtiSWtKUUx8fUWBWTARMVsOD91cY1zEe0PGirV9xSJ6Mkx81iptQSnLyJ6rcqA30XPV2SVT2GtYj5HvV9SNRzx5hN/jCN31zkJFCzBz5ERajBhK+fxpO+mZjQvZFe3J6LYF6Tl4LQsWDGH52N9x69CPxmVfXcP4N95Yz1VJ0bDvECS88Dw6FxHKdUVN+dXHMOkNeBM9V2kTHvNRr6n8snQcjqaifqFNwffaHWJSNJhZOeKYeo+flj3i9x87Y6j8rdXRjProJ7r+PAafmeOx7DCYGtorTNoUwY+j26eFdyZ4kz1X3ecM53nxNjlDqtMCd0z141J2IGu8kqDF504wVasV04+Dfb6ClK9YhvLlSmFnbiSqxJHsWLuBJYtWs2jeYhatuUSt8p76pRUqTAwT2b1pP6FxygMMs7mUeDh9HA4ffv51+Y74dciyaE6XEOSHpqg3DkroKlTGFCvjTQWxTZf0yq8L2yf3LrFs8WrdNj194gwe2bvjbvesqZGhiQn+109x7EKAfkp2puUxNzj80nCMYPmw42zHcKygfy/lEEeOHqJs+czsbk9DfIKa4t4lsEk/UGWkUmEgagwR0XEkJ4ud2NCGzp/0ompxFzFLhaGpBSWLF6Jw8cKEPQrCvYQXtkpY/0vKE5lstu7B5evvqbVmPQYnToCDA3iKoBffL1OYiJp7wybQosXzr+pl/tn3WL8ePvkEChQAd3cw+vf/77zq/v37qDVxOLs46af8d4lxcVg6F6R4ob9Yp/gbJ8ZHEZeQpNumnUtU4bM+rXWFTJWBIfkKF8atoBtOlsnEamwpXuS//WwPjf35xWEKixutZL7BfELEUFkMZpnWplglarUVRN32xeFdCvyD2m6QGN4VwyMxlBKDhRhU8vRPppOnmnOgXP2QBLE52q3ZgsPIn0StNEPnANbWsGkTNGqkn5BNLF8OPfQPcld+tmHDoG5dMNe3ipb+Vm5/SEKwUQi9XT7nluHzt7J1E8NCMZhmo9PAD8VQWwxK8OYXw+di6CmGgmKQAZx55KlmKVsxSErGZvGa50NXERMDM2ZAbCwkJGSfl3IGIN2BA9CqFbRrB9u3Q9JbuqdZylaOm595KXQVG8RwVQwJ2WhIFINWDIrHYvhWDHXF8JMYlDCWMoes8eZAubnGaxgZRaFKTUD9italzs5ptUnlPtvsws8PzpzRj2RgYwPr1kET8X/JBNGhfhw5cAoLj1LUqVIGEyPwOX2AGw9CdfOdi5SmTiVvMd2AwJvnOHrZVzfd3qU49epVwEzXguhlWq3S75HBy2fXU2I4dOoW9epW+eelc7HO+/4BmKZGcfTMdf1EFR6lquOd35QkY1tc7J6dEcjtNd6f7P9gvtVy/djzGonBQQzZRbwYDopBCeEXKTX05WKQNd//TgZvDpSbg9cgMQm3Dn0wuvKKfpXbt4d587JX8K4RtfOPPtKPCEqvV40bw9ChUKcOZMLDLW4dXs2ISZvxKOxMXEQIZoXeYcKYXvzYtz3+5oVxNDMgPuIJeDZl6sje7PlzCFNORFOmoA3xof7Y1f2YCQNeLgCo44KYOmkTfYZ+hK3J8wdTbdQtmvSYzI6tM/mn/4PQmwfZcceeqi6PmK3cWy1qULdPH6HOF3MY1NiWVbt86dGjOSb6P2NuD95N1jv4ym60fuwZ5RTzITEo11KzCz8xKNd4ldpuOjcxDBSDcsrZRQzSf5cnG1clhD9g846L2BsFc/R+Cl4F7PVzXi0lIZ5UlRGGBi+W9DRc3L+dQK0jBRz+eacRj31vExoayPRp09m1Z6/uAHTpdjjlSuXj/NUnuOd/9c/1qsZViTGRnN63j3Ub9xCcYo67mxMmhtknoNTxUfg9icPO9v//nrQiuFTiZX7wuPj1ZigT2tnB5MlQsiSYmWWf101RQNiwIa1RlfIwi6VLYfhwKFYsLYT/I038E8b9sZaRf0zi/Q5taN2mBYmPr2NTqDgXdh/j49+m0rNdC1qJ6VdXL8TAuzZJ985R5L0hjBzQlRbvVmPN/I1ifqMXaq5abpzYyHeTFmFZrJIIaVN2rFjA2l0XySd+dgfjOJZuOEX3Lk05tXMLAck2FLBXsX/1IpZvOUuB4l5imXhWr91LoM8BVu29QpGSSqM6FXNnrad9r3YUKlSCZs2aUbesM/tvmTFuaBcsre25fmIXqgKlyGeTdm3zVY2rtKlqAu5eZ82i9Zy48Yh8bvmxtTTLPnUtUasP9PXDyM4W479pjOeoceCw+XHCDZ71F20ghu5iGCAGSzEojayyw6CcalauO8eIQQncMWKYI4Z3xKD8nFLmyEZVh6yTEOHPth0nCPK9wIHL/vqpf0XD3DHfczX0VdfrNFw9uo8rD5/vgP11pMQGsfXQOawdHShazBMvL08MYx5x+1EsxhZ2PD6zndsRr3cbQGzwfcaMGM/Bm2G4F3HnzqG1DP1lNbEp2edkxs09a1h16DVuyxAHsahOrQn/cTgpJT1JUgK3Vq20QFNOM2c3VlZQuzasWJF2O1K9epkSuOniRI010bwI7o5pBz2VoTnte/SmsP3zjbdUhhbULe/E5bui5pscy6JfhtKnTx+6dvqSUk3e41U/kYUIQVtbR1wdzJk7fii7fONxtghnyJBvuR+eKMIvmX1r5rHndgrliruwdtKPbLoRTQHHJCaNm0xAaDALxv3KiUA1BkGnGf3bGpJj/LgbZIxzenVWq2bFzOV0/6IflrrT3YZUK2bL0Qt30ua/glaTzO7l8/juzy1YFCiAA+GMGjaek7fTTqtnB6nJofz2wxISXuNJfM5qR6aF/UrjpPrYJdriKYZBYpgsBpN/fD7hzVJq4YXF8I0YTovhKzHYi0HKXLm3xpuawNZFfzJ07EQCU2ypWLoIt09v55vBw7iXAMFBGmqVNufYnVB2L57CmfvJlCtfEnPj58sikQ/ExjdmHMfuJdPmnTJsnjeJMd//SaDGWqyzKNeP7EVbqCo2IWeZu/UKFcu6s3PJVL4d8wePNHZULlOE05vns2rPYf6c8Ae+8RZUr+DFTVHqD7X0pmZZT8qWK08ZT1d2H7jKp0M/J5+VKa7W0azYF0LtCh76n+SZ52q82lTx8y/GpEpbBvZ6lzJlSlKjdhXCr13BqYQ3toaJ7F+7hl9+W8gN/zgKexXBRtRmJo2aT0xCAFP/XIbG1o3YOyf5cfwCYixcKVXUiW3zF3LrURgLpszi8sNESoj/q4X43QRcOc/kiTNYtn4fSaZOlCjiyuWtq9l+3pdlizfjVrYc4bfOMWnCVNZtOYmRfUE8rOL4/vtZnDp/nfylKlHALIY1cxYwdc56QpLN8PJ0I/jiIVbt92HLsuUkuZbGrWlVYju2Zru5PRUWLIRSpXShnO0oNduePaFcuUwN3HSaxEj2Hr5F46Y1MdFfpw32f0CMxoQzu3dTtlkrXMzTttnrR/aRLLZFy6CLJLnXpk3Danh7F+L8hWs0eqf2C51AqLAwN+LspRD6fFCHOYsO8ee0n6lZoxYJ108SY52fffNmcfJOGP2+HkJxhyR+GfYdD8JCuXPbl2tXblC8Wk1u+yfw5x+jKFvMjt27rlGnoh07Lqtp21T8PoSk0BvM2eHHxx+8i4mBioCAR/jdPMXhOwY0r1tKV4N9scYbdd+H+dse8ONPg6hRyZtylSpQ2jHtwVBlPF3w9znHlN9nsH7bOUydC+CR355Lm1aw51oo+5bMZ9+1CDwLmDLj58nsOucvtt0SaB5fZtqKU/ge3ca8lcdwKFqUgk7WqOMi2LxoCZP+XMI533BKlPLCJOkJ06au5/KpvZx4ZEzZgkasmD2PP2eu5vZjsS+UKsrhFfNZsfUwj6ItqFm1EGe2beLnX+dx6U4E7l5Fsbc0YNWUBdz0u82iJadoUqshHZKbkroylaXVVtJGDOZiyG6UWm1nMbQUg40YpDcj19Z47x9ZyYIT8Ywc9TUmIbe4f8+HHydvo/eQkRQ2iSM0Ia3xzoPr9+jW/wscw86yerePblpGVq4lqF6uCn16tePS1kUceGzD8DFfEXdmOfMPKA1YNCLQdzFz4w26dm7KnYOr2eFrLAJ/GBZ397PhjB9Pbl3iyiMVX33zBRdWzOFqcDw3LvtQoKhb2jcRLu9dj22lVpRwTjsVa1vIG/+L+//21neNOpELvqFUq+RJ+plwAxNren7xIUUcTDi6djFbLifx2Vf98TDy59fpm0lMSeL8vp3cjnGkZ5eGLPxhPMdDLPmof2sOr1mHf1QSD2+eY8PBO3T5qDdO8deYu+6UOEg94ZcJ62jQqRuf9WnB3jnLuBOaQKjvDfaffsAHH3bCNfkhv805SLvefejXpRbLFywjSGvHe00rUaVxK6oUs2Tp5Bn4WRbjy4E9iBG/uznrz4la+yM2bTlOy+7vU9UzrbGJxtyMIKVGmQnXSd8Y5bmypm/udhBz5yIUMbnH+oOXSdFqiX5ym/FjfsEv+vkzMJGB11h/Npxa3vlEAcCEMjUa0Lx5c1q0akHig9uEKY/d+SuiFm1lEMvtR5GkxIdzJzAce1szrLxqMO2nviycNpcotQn5Cpek5+dD+fGH7xj0+YcUz2+DibHpcwcREwtrzERNOd1Dn/MUqlkLC6O0pR48uM/Pf6zA3N7qL08b+92+hU2J0jhZpN8TraJE3aZ0bVaWlIgHfPfDUqq07kTPjlVYOmUml/yjCb13k+27L1CvcxdsHp1i6IRNNO7ShSIEiO34hqiJh7Jx7WasyzagR9uyzP9zIY+jkzmwdAG3KMTAbz7GK+ku8zdcIjUplmNbd+FYrhHt6nuxdupM4t2r8tVXfTEKOMPao3fEttxIFFBL0bljba7uWsfyw0H0H9yfMs5R/DJxJbEpqdy9ephzwdb069ccGxMDDLUGmD0x1dUgs2sDJeXnshaDbED1ZuXa4L168hw1O3ametWafPHVQJwS/LAr3YSGtarxXtt2FHZOK22Wrd+C2jXEtBY18b1zU8To84zMbXC2d8SraEHuXrvDe926Uq1aDT7p247zR66DOpKdG1eJ3duSfOJgdfXAblbN/ol2bdry3fQ57Nx5URyNrGnUph3VatTGu7AV4VEJBDyIwNYiPVBS2LTjKh3aVH+6uauMLEgJDyX6704Xi4NxcqrmFdefBVGL2L/Dlw8/70r5ct50+qArmkfXCYlLwdS2KB3b16VilQo4O+SnSZOalK9cCWeLeB5HKU/otKVH385UqlCa9l1b8fjiZeINHfnk81b4HDnAquVbuHTzARHi4CV+S1SoVEd3BsChoBefd63BcVEbW7VqOzdu3Ccq2RD3Ao445XfDQh3KhRAz+nRtJmrt5en1aXseHj9PvEaLV4nqVK1QEkerbBy0Wc3Ago8Gf8rVtb/g5e5O/Y6DqNi+D5U97MSf/i6NvD0oWNCdFj1H06jPxxR3FAW3xHC+aV9DTC9I6Rqt8GrahQJmL+/qxuZ2mEcd45uJuxj8RUe+alOXUhVaYFTxXaoWcRB5bE6pmi15t1AC6w7d48uhfdgycRjtO3/IuScqUWN8+ZqfiVMhjJMf6J/xquWKz10K5M//3GHcJyofZYoo4fMqWlJS1Lrr/K9y7+QR7Ku0okW9ClSp14j36+bn6KWHYocxplaTd0UBtCxVS7lTtFJtqlQsTbWKhbkfEKjbr0vXbCYKgFWp3qgJ1Z1T8bkXTo22nfA0D2Pjmk1sO3Je7Jdp/Y/b2nlSv14l3F3saNm7B/ZhN1m3ciOHDp/nweMIHMX/ydbKjsIe1mJbv07n/l2pJPaxNl06Yx93n4fhym/AjMbv1qO4V0H05Q5J0sm1m4NX+VJc3HeQwCeB7Fy3mofJDoRcO8RNv0ecEztvgKipKW5fPIVfYCDHT/jg5lH0lb8QA5WGqJh4PEQN9cCeAwQGBrBxw25KVPYUmePAl+NnUyflAksP38Grel0GfDud0+fOsWXFfHp0qCIOCqL8mDEYxUGlgLstcUlpXStqYv0INHanuMOzmpNWnYDKxharv+kk1kDUOMrks+bGnSf6u+8ErTioHD3KNb8oXe+H6WdotZpUEsRLd5+eyhCD9J9JLGCgX0hp5K7RNXRXiTBP+23oZolpMX6X+OmPzXhWrMengwfQuLgTSUqn8mIBc8u0gkzguQNMXHyE0g3e5bMhAyhTyIFEdcbiTNq602nUKaiVx/cJZlYWT39W6RnbgqX5bc5K7vn5cf7odnq3roah+PuNX7SfJ48C8Pd/yPG96+nepILu79jqqxmEBQWK6f7cunSK4X0bkxQTRXBwcIZXCPFaKyat3M3ckZ0oUbMd+89f5vbNM4wb0A4Lx5Ls2TIDU1F77jZkLH3eLYdHhaasO3Ca+3evMW1MX+ycvFi+5EfdmRaHYnVZOG8kliaOdKniwilf5SmxKtoP+p4+jUum/Ud0REFRW5jDOy6i0byqFq7CvWgRom/fJS7l2fzYYD927rtESqpWbCPPNpJEdTJiko5hhrA2yNCwUKNvpGdgYJi25Yl/lK9arZplv03iTqQ1HT/owZe9W2GQmKDbQg3NLDBWTu2nxjHl28kEW3rwfv/e9PmgMcmxSbpl0j23j2k1JKam34NugrW58jA+SXperg3eku/2prH9LVo3e49tVyIpVrY6I/rUZFDPTuy4nUAZz/yYWztS1suGLz98n0PhrrzfurL+0xkZ0rRZWX4cMYEK7fpS4PEB2jTrzA2rOnzeyht71wI42NrQb+QQbuzfS8lm7+OZcIKOLVoybec9yhdzwdYpH/YWaU/DdHXzwMrEBK9Sxbl9TZTUhfjQx9gX8X6uAUxc4F0KlW0oysx/Q5T0G3d8l71L57Jpzxlu3rjNzjXLmbrxAk5OLrzTvCgLp6/l2vVbbFy1Hgu3MrhYvk6NMpqNK7dz9fpNNizfTqGqVTCIi0Bl5Yp7fnPunD7B0ZtB+mWfiQ4Nx8y5EG42hlw6dpAr+hqEciB88uABCcbOVHCMZ9Havdy4do0V87ZRtEFVLF5VY5eeEUd2A1EQSi8gKVQqMa5ME6+MYaS8T5+uK1yJgtiOqd/SuHHjDK/mzNlwSbds+mfT1vdsPU+/13PLpK07fan06Yr09zW7dSPcRwSrflqGRSAlHKuinTn7oCg3bry6gZVziYqUtA5gwvT1XL52m0unjjP+l9nEmVpRvE49ws5uZffxK1w8cZgNJ8Oo/4p2EK9y6+wh9h3z4eyBvVwINaWCpy2hoYl4ehdCHRPExs2H0V+BekadSEhEKt7F3YgLfsjmXSdIi1UV6vhw7vvFUvvdUqyZtxaf62LfW7+ReGtPPBz+ds+V8jB5H28GKXFhnDp7icQMJW0TGxdqVin3tGFLZkmK8mf+uuP07t0Fi5fWrWHHvOkUaN2PCq4vN8B46T5eUcr2u3WVDWu2cul2IJ7V6tOtawuKuVihSY5l75p1rNl5Aa8q9figV0sK2iTxx6hV9Bk3ANvUaKb9sY72n39AAXMti+csomqHrhz4bRzm5Wtz5eAhijVoRa/ODbA1VrNj8UJW77+BV4XK2KREUr5tN6xv7sPPuTZt6xZCkxTNmhlz2HnBn9LVq2EQHkHjnh9Q3DyEsT/Op04XUVP2Nmbd4lUcuhRA7Vbt6PxebSIvHWTXfVv6da369KCueGNPJ8qmlH6DZy3YQURc9ulGMDMFPPLnhH8dzGyLU91+IdMn9OPAgQMv3cebLAp5+7buZMvOk2jsCtC+a1veqV4Spe2j36UzzFu8kdBkWzp+2IX6lYtyacNyAlzq8l5dD67t3sR5g1L0bFKC++cOsMvPkvbFIvlm3m3qOYdzKd6Ofv276QrFT66dZeL0FSSonKhRtRAPY+356v2yzJ5+jH4jumElSsN3zx1m6rS1pDoXoVoJB6KNvfikRw12Lp7N0YcOfDvsPS7u3MryTcdxK12TD/q0oYiLGSsmzaTSBwMo6fSsoPsmn04k5RwyeDOIeXSF0eMmER73rLtCmyJVGT/iU2zNMrvFqhbfyxcwKVgS9xevlYlAO3zan3p1yj4XQunefAcaaqZ+PYISvYfRtEzmdVz/b+S14I2NjaX7kGM8Sm2on5L7qAxEEIlqsDbyCPO/dSAsNOiNd6ARfHk3I1aGMP8Xfb/ab4kMXkmRa081/xvWBcsyeeYClixZ8vQ17fsv3kDoKlQUK1/55dBVGNtRXx+6p06d+otrYW+SAZUa1KewU/a73SEvUBkYoTI0zbWvp+eerasyf9VZXbuCN83CuTDN6nnrxyTp7ZLBm83NnrOAc+cv68eyigG1W7WieD7ZU4305iidgZx+4MWFi1f0U94cqwIl6NSikn5Mkt4uGbzZnNrInQVrLqBWv/C0HknKBdTmFVm9/c6zWrAk5QEyeLM5AyMLTtwpyNVrf93FniTlVAZGlkQZNUi77itJeYQM3hzAyLE+s5YeeQvXeiXpDdNqSI6+rtwAq58gSblfjm/VfOnSJXbv2acfy322HXpCgtvvxPhvYtPkcpQqUTRXPxbwRXmxVfP7X5/ikaaxfkrupo73p6LlTDq0K5trHwuYkWzVLClyfPDOFjXB2QcqYmBsrZ+SO2m1qVQwm8q8Pwcy/qfvZfDmUnkreLW4qDcx4D1DDE3jZPBKeYY81ZxDqFSGnHpYEp8r1/RTJCln0yQG0f1dS6ysZOt5KW+RNd4cRJOaQFXbhbg5BPF+r/f0U3O3vFbjjY+Pp9egdQTEeeqn5C4pKUmozcthZOqIadh89i7tzsmTJ954BxrZhazxSgoZvDmMJmwfxQxn8uvEb/VTcre8FrzK7hgUHI5a/WKnwbnD2TOnGbnYBVObovSvvZvPBvRg//79MnilPEUGbw6TmhKLY9SPzJ7cmYwd1OdWeS14c7tjx47R/3djrLWXObC8O1ZWVjJ4pTxHXuPNYVTaFIwMNXkidKXcKTnOjz6t7XShK0l5kQzeHMZac4FCTsqzTiUpZ7JJPkDHtu/oxyQp75HBm4No1bG0qBKNu1t+/RRJylmMjU3o06k8Tk6O+imSlPfI4M1BjGOP0qtLHf2YJOU8FSpU4KP+H+rHJClvyvGNq+Ys2cf0bfa6Pl9zIw0mGFsV1d1K1LnsdoYP6ih7rpJyFdm4SsprcnzwKj39BAcH68dyn6HfL+OB6RgMI7axfVZtnBztZfBKuYoMXimvyfHBm9v1+nQiV+L70a3KEb7+rJWuNbMMXik3kcEr5TXyGm8OYJlyhq5tq8pbiCRJknIBGbzZXGpyBK1qJONW0FU/RZIkScrJZPBmc662KXRtU0HWdiVJknIJGbzZ3PDh31CoUEH9mCRJkpTTyeDN5pydnfTvJEmSpNxABq8kSZIkZSEZvJIkSZKUheR9vDnQ2rVrefDggX4sd6tUqRLvvCM71M/N7t+/L7bpNahUub8eoBxuhw4dqh+T8ioZvJIkSZKUheSpZkmSJEnKQjJ4JUmSJCkLyeCVJEmSpCwkg1eSJEmSspAMXkmSJEnKQjJ4JUmSJCkLyeCVJEmSpCwkg1eSJEmSspAMXkmSJEnKQjJ4JUmSJCkLyeCVJEmSpCwkg1eSJEmSspAMXkmSJEnKQjJ4JUmSJCkLyeCVJEmSpCwkg1eSJEmSsgz8D65UA5sTqb0tAAAAAElFTkSuQmCC;" vertex="1" parent="1">
          <mxGeometry x="140" y="1010" width="478" height="296" as="geometry" />
        </mxCell>
      </root>
    </mxGraphModel>
  </diagram>
</mxfile>
